<?xml version="1.0" encoding="UTF-8"?>
<svg xmlns="http://www.w3.org/2000/svg" xmlns:xlink="http://www.w3.org/1999/xlink" width="940.49pt" height="470.25pt" viewBox="0 0 940.49 470.25" version="1.1">
<defs>
<clipPath id="clip1">
  <path d="M 470 0 L 940.488281 0 L 940.488281 470.25 L 470 470.25 Z M 470 0 "/>
</clipPath>
<clipPath id="clip2">
  <path d="M 0 0 L 471 0 L 471 470.25 L 0 470.25 Z M 0 0 "/>
</clipPath>
</defs>
<g id="surface1">
<g clip-path="url(#clip1)" clip-rule="nonzero">
<path style=" stroke:none;fill-rule:evenodd;fill:rgb(9.399414%,36.099243%,63.899231%);fill-opacity:1;" d="M 470.25 470.25 L 940.5 470.25 L 940.5 0 L 470.25 0 Z M 470.25 470.25 "/>
</g>
<path style=" stroke:none;fill-rule:nonzero;fill:rgb(88.198853%,55.299377%,1.199341%);fill-opacity:1;" d="M 659.398438 235.105469 L 659.398438 223.917969 C 654.300781 224.449219 649.59375 226.296875 645.625 229.117188 C 649.433594 232.34375 654.179688 234.496094 659.398438 235.105469 M 659.398438 217.789063 L 659.398438 212.296875 L 636.589844 212.296875 C 637.125 216.871094 638.84375 221.085938 641.433594 224.621094 C 646.53125 220.820313 652.699219 218.363281 659.398438 217.789063 M 659.398438 206.195313 L 659.398438 200.703125 C 652.699219 200.128906 646.53125 197.671875 641.433594 193.871094 C 638.84375 197.40625 637.125 201.621094 636.589844 206.195313 Z M 659.398438 194.574219 L 659.398438 183.386719 C 654.179688 183.996094 649.433594 186.148438 645.625 189.378906 C 649.59375 192.195313 654.300781 194.046875 659.398438 194.574219 M 665.503906 183.386719 L 665.503906 194.574219 C 670.601563 194.046875 675.308594 192.195313 679.277344 189.378906 C 675.46875 186.148438 670.722656 183.996094 665.503906 183.386719 M 665.503906 200.703125 L 665.503906 206.195313 L 688.3125 206.195313 C 687.777344 201.621094 686.058594 197.40625 683.464844 193.871094 C 678.367188 197.671875 672.203125 200.128906 665.503906 200.703125 M 665.503906 212.296875 L 665.503906 217.789063 C 672.203125 218.363281 678.367188 220.820313 683.464844 224.621094 C 686.058594 221.085938 687.777344 216.871094 688.3125 212.296875 Z M 665.503906 223.917969 L 665.503906 235.105469 C 670.722656 234.496094 675.46875 232.34375 679.277344 229.117188 C 675.308594 226.296875 670.601563 224.449219 665.503906 223.917969 M 630.3125 209.246094 C 630.3125 191.496094 644.703125 177.109375 662.453125 177.109375 C 680.203125 177.109375 694.589844 191.496094 694.589844 209.246094 C 694.589844 226.996094 680.203125 241.382813 662.453125 241.382813 C 644.703125 241.382813 630.3125 226.996094 630.3125 209.246094 "/>
<path style=" stroke:none;fill-rule:evenodd;fill:rgb(100%,100%,100%);fill-opacity:1;" d="M 606.355469 161.382813 L 689.707031 161.382813 L 689.707031 169.910156 L 626.097656 169.910156 C 621.765625 169.910156 618.253906 173.421875 618.253906 177.757813 L 618.253906 240.738281 C 618.253906 245.070313 621.765625 248.582031 626.097656 248.582031 L 689.71875 248.582031 L 689.71875 257.109375 L 606.355469 257.109375 C 599.617188 257.109375 594.152344 251.648438 594.152344 244.90625 L 594.152344 173.585938 C 594.152344 166.84375 599.617188 161.382813 606.355469 161.382813 M 737.828125 248.582031 L 737.535156 248.582031 C 733.203125 248.582031 729.6875 245.070313 729.6875 240.738281 L 729.6875 177.757813 C 729.6875 173.421875 733.203125 169.910156 737.535156 169.910156 L 737.828125 169.910156 C 742.160156 169.910156 745.671875 173.421875 745.671875 177.757813 L 745.671875 240.738281 C 745.671875 245.070313 742.160156 248.582031 737.828125 248.582031 M 776.9375 169.910156 C 772.605469 169.910156 769.089844 173.421875 769.089844 177.757813 L 769.089844 240.738281 C 769.089844 245.070313 772.605469 248.582031 776.9375 248.582031 L 778.894531 248.582031 C 787.082031 248.582031 793.714844 240.78125 793.714844 231.160156 C 793.714844 221.539063 787.082031 213.742188 778.894531 213.742188 L 777.152344 213.742188 L 777.152344 204.753906 L 778.894531 204.753906 C 787.082031 204.753906 793.714844 196.953125 793.714844 187.332031 C 793.714844 177.710938 787.082031 169.910156 778.894531 169.910156 Z M 698.265625 257.109375 L 698.265625 248.582031 C 702.757813 248.582031 706.269531 245.070313 706.269531 240.738281 L 706.269531 177.757813 C 706.269531 173.421875 702.757813 169.910156 698.425781 169.910156 L 698.425781 161.382813 L 790.230469 161.382813 C 802.867188 161.382813 813.109375 172.164063 813.109375 185.464844 C 813.109375 194.824219 808.035156 202.9375 800.625 206.925781 C 809.957031 210.609375 816.597656 220.085938 816.597656 231.195313 C 816.597656 245.507813 805.570313 257.109375 791.972656 257.109375 "/>
<path style=" stroke:none;fill-rule:nonzero;fill:rgb(100%,100%,100%);fill-opacity:1;" d="M 549.941406 291.542969 L 553.4375 281.941406 L 557.003906 291.542969 Z M 550.738281 275.898438 L 540.65625 301.785156 L 546.199219 301.785156 L 548.339844 295.90625 L 558.683594 295.90625 L 560.941406 301.785156 L 566.628906 301.785156 L 556.261719 275.898438 "/>
<path style=" stroke:none;fill-rule:nonzero;fill:rgb(100%,100%,100%);fill-opacity:1;" d="M 593.667969 296.230469 C 593.179688 296.777344 592.546875 297.121094 591.769531 297.265625 C 591.265625 297.371094 590.070313 297.421875 588.1875 297.421875 L 583.347656 297.421875 L 583.347656 290.503906 L 587.566406 290.503906 C 589.945313 290.503906 591.488281 290.628906 592.203125 290.871094 C 592.914063 291.121094 593.460938 291.515625 593.835938 292.054688 C 594.210938 292.597656 594.398438 293.257813 594.398438 294.035156 C 594.398438 294.953125 594.15625 295.683594 593.667969 296.230469 M 583.347656 280.210938 L 586.351563 280.210938 C 588.808594 280.210938 590.300781 280.238281 590.816406 280.296875 C 591.6875 280.402344 592.34375 280.707031 592.785156 281.207031 C 593.226563 281.707031 593.445313 282.355469 593.445313 283.15625 C 593.445313 283.992188 593.191406 284.667969 592.679688 285.179688 C 592.167969 285.691406 591.464844 286 590.570313 286.105469 C 590.074219 286.164063 588.808594 286.195313 586.773438 286.195313 L 583.347656 286.195313 Z M 594.894531 288.03125 C 596.011719 287.523438 596.898438 286.765625 597.550781 285.753906 C 598.203125 284.738281 598.53125 283.628906 598.53125 282.414063 C 598.53125 281.296875 598.269531 280.289063 597.738281 279.386719 C 597.207031 278.488281 596.546875 277.765625 595.75 277.226563 C 594.957031 276.683594 594.058594 276.328125 593.050781 276.15625 C 592.042969 275.984375 590.515625 275.898438 588.46875 275.898438 L 578.121094 275.898438 L 578.121094 301.785156 L 586.933594 301.785156 C 590.261719 301.761719 592.363281 301.703125 593.234375 301.605469 C 594.625 301.453125 595.792969 301.046875 596.738281 300.378906 C 597.6875 299.714844 598.433594 298.828125 598.980469 297.714844 C 599.527344 296.601563 599.804688 295.460938 599.804688 294.28125 C 599.804688 292.785156 599.378906 291.484375 598.53125 290.378906 C 597.683594 289.273438 596.472656 288.488281 594.894531 288.03125 "/>
<path style=" stroke:none;fill-rule:nonzero;fill:rgb(100%,100%,100%);fill-opacity:1;" d="M 610.875 291.542969 L 614.371094 281.941406 L 617.9375 291.542969 Z M 611.667969 275.898438 L 601.585938 301.785156 L 607.132813 301.785156 L 609.269531 295.90625 L 619.613281 295.90625 L 621.871094 301.785156 L 627.558594 301.785156 L 617.195313 275.898438 "/>
<path style=" stroke:none;fill-rule:nonzero;fill:rgb(100%,100%,100%);fill-opacity:1;" d="M 646.0625 293.1875 L 635.46875 275.898438 L 630.382813 275.898438 L 630.382813 301.785156 L 635.238281 301.785156 L 635.238281 284.90625 L 645.671875 301.785156 L 650.914063 301.785156 L 650.914063 275.898438 L 646.0625 275.898438 "/>
<path style=" stroke:none;fill-rule:nonzero;fill:rgb(100%,100%,100%);fill-opacity:1;" d="M 679.324219 275.898438 L 672.296875 275.898438 L 661.738281 287.394531 L 661.738281 275.898438 L 656.511719 275.898438 L 656.511719 301.785156 L 661.738281 301.785156 L 661.738281 293.960938 L 665.976563 289.636719 L 673.09375 301.785156 L 679.855469 301.785156 L 669.578125 285.980469 "/>
<path style=" stroke:none;fill-rule:nonzero;fill:rgb(100%,100%,100%);fill-opacity:1;" d="M 690.746094 280.277344 L 698.429688 280.277344 L 698.429688 301.785156 L 703.65625 301.785156 L 703.65625 280.277344 L 711.316406 280.277344 L 711.316406 275.898438 L 690.746094 275.898438 "/>
<path style=" stroke:none;fill-rule:nonzero;fill:rgb(100%,100%,100%);fill-opacity:1;" d="M 730.675781 295.507813 C 729.339844 297.007813 727.632813 297.757813 725.546875 297.757813 C 723.464844 297.757813 721.746094 297.003906 720.390625 295.488281 C 719.039063 293.976563 718.363281 291.757813 718.363281 288.824219 C 718.363281 285.847656 719.019531 283.617188 720.339844 282.144531 C 721.65625 280.664063 723.394531 279.925781 725.546875 279.925781 C 727.699219 279.925781 729.429688 280.65625 730.730469 282.113281 C 732.03125 283.574219 732.679688 285.789063 732.679688 288.753906 C 732.679688 291.757813 732.011719 294.007813 730.675781 295.507813 M 725.492188 275.460938 C 723.386719 275.460938 721.527344 275.800781 719.914063 276.484375 C 718.703125 276.988281 717.589844 277.765625 716.570313 278.816406 C 715.550781 279.863281 714.746094 281.046875 714.160156 282.363281 C 713.371094 284.152344 712.976563 286.363281 712.976563 289 C 712.976563 293.121094 714.113281 296.355469 716.382813 298.703125 C 718.65625 301.050781 721.714844 302.226563 725.566406 302.226563 C 729.367188 302.226563 732.402344 301.046875 734.675781 298.6875 C 736.949219 296.324219 738.082031 293.058594 738.082031 288.878906 C 738.082031 284.664063 736.9375 281.375 734.648438 279.007813 C 732.359375 276.644531 729.308594 275.460938 725.492188 275.460938 "/>
<path style=" stroke:none;fill-rule:nonzero;fill:rgb(100%,100%,100%);fill-opacity:1;" d="M 750.355469 280.277344 L 758.035156 280.277344 L 758.035156 301.785156 L 763.261719 301.785156 L 763.261719 280.277344 L 770.921875 280.277344 L 770.921875 275.898438 L 750.355469 275.898438 "/>
<path style=" stroke:none;fill-rule:nonzero;fill:rgb(100%,100%,100%);fill-opacity:1;" d="M 783.40625 286.847656 L 779.539063 286.847656 L 779.539063 280.28125 L 783.617188 280.28125 C 785.734375 280.28125 787.007813 280.308594 787.429688 280.367188 C 788.277344 280.507813 788.933594 280.847656 789.398438 281.382813 C 789.863281 281.917969 790.097656 282.621094 790.097656 283.492188 C 790.097656 284.269531 789.921875 284.917969 789.566406 285.433594 C 789.214844 285.953125 788.726563 286.316406 788.101563 286.53125 C 787.476563 286.742188 785.914063 286.847656 783.40625 286.847656 M 791.449219 292.53125 C 790.714844 291.742188 789.78125 291.019531 788.648438 290.363281 C 790.921875 290.03125 792.628906 289.234375 793.769531 287.96875 C 794.910156 286.703125 795.480469 285.101563 795.480469 283.15625 C 795.480469 281.628906 795.105469 280.269531 794.351563 279.078125 C 793.597656 277.890625 792.59375 277.0625 791.34375 276.597656 C 790.089844 276.132813 788.078125 275.902344 785.3125 275.902344 L 774.3125 275.902344 L 774.3125 301.785156 L 779.539063 301.785156 L 779.539063 290.980469 L 780.597656 290.980469 C 781.800781 290.980469 782.675781 291.078125 783.230469 291.269531 C 783.78125 291.464844 784.304688 291.824219 784.800781 292.347656 C 785.296875 292.871094 786.214844 294.140625 787.554688 296.152344 L 791.335938 301.785156 L 797.585938 301.785156 L 794.421875 296.734375 C 793.175781 294.722656 792.183594 293.320313 791.449219 292.53125 "/>
<path style=" stroke:none;fill-rule:nonzero;fill:rgb(100%,100%,100%);fill-opacity:1;" d="M 815.785156 290.21875 C 815.785156 292.269531 815.710938 293.734375 815.558594 294.617188 C 815.402344 295.5 814.949219 296.242188 814.195313 296.851563 C 813.441406 297.457031 812.324219 297.757813 810.84375 297.757813 C 809.382813 297.757813 808.230469 297.4375 807.390625 296.796875 C 806.550781 296.15625 806.015625 295.304688 805.792969 294.246094 C 805.664063 293.585938 805.597656 292.144531 805.597656 289.921875 L 805.597656 275.902344 L 800.371094 275.902344 L 800.371094 289.707031 C 800.371094 292.605469 800.542969 294.792969 800.886719 296.277344 C 801.121094 297.277344 801.609375 298.234375 802.351563 299.144531 C 803.09375 300.058594 804.101563 300.800781 805.378906 301.367188 C 806.65625 301.941406 808.527344 302.226563 811.003906 302.226563 C 813.050781 302.226563 814.710938 301.964844 815.980469 301.441406 C 817.253906 300.914063 818.265625 300.214844 819.027344 299.328125 C 819.785156 298.449219 820.304688 297.363281 820.589844 296.082031 C 820.871094 294.800781 821.011719 292.605469 821.011719 289.496094 L 821.011719 275.902344 L 815.785156 275.902344 "/>
<path style=" stroke:none;fill-rule:nonzero;fill:rgb(100%,100%,100%);fill-opacity:1;" d="M 842.351563 287.492188 C 841.132813 286.851563 839.25 286.230469 836.710938 285.628906 C 834.164063 285.027344 832.566406 284.453125 831.90625 283.898438 C 831.390625 283.464844 831.128906 282.9375 831.128906 282.328125 C 831.128906 281.65625 831.40625 281.121094 831.960938 280.722656 C 832.820313 280.097656 834.007813 279.785156 835.527344 279.785156 C 836.996094 279.785156 838.101563 280.074219 838.835938 280.660156 C 839.570313 281.242188 840.050781 282.199219 840.277344 283.527344 L 845.5 283.300781 C 845.417969 280.921875 844.558594 279.019531 842.914063 277.597656 C 841.273438 276.171875 838.828125 275.460938 835.578125 275.460938 C 833.589844 275.460938 831.890625 275.761719 830.484375 276.359375 C 829.078125 276.960938 828 277.835938 827.253906 278.980469 C 826.507813 280.128906 826.132813 281.363281 826.132813 282.679688 C 826.132813 284.726563 826.929688 286.464844 828.515625 287.886719 C 829.644531 288.902344 831.613281 289.753906 834.414063 290.449219 C 836.589844 290.988281 837.984375 291.367188 838.597656 291.578125 C 839.492188 291.894531 840.121094 292.269531 840.480469 292.699219 C 840.835938 293.128906 841.015625 293.652344 841.015625 294.261719 C 841.015625 295.214844 840.589844 296.050781 839.738281 296.761719 C 838.882813 297.472656 837.617188 297.828125 835.933594 297.828125 C 834.34375 297.828125 833.078125 297.429688 832.144531 296.628906 C 831.210938 295.828125 830.589844 294.574219 830.28125 292.867188 L 825.199219 293.363281 C 825.539063 296.257813 826.585938 298.460938 828.339844 299.972656 C 830.09375 301.488281 832.605469 302.242188 835.878906 302.242188 C 838.128906 302.242188 840.003906 301.929688 841.511719 301.300781 C 843.019531 300.667969 844.183594 299.707031 845.007813 298.410156 C 845.828125 297.117188 846.242188 295.726563 846.242188 294.246094 C 846.242188 292.609375 845.898438 291.234375 845.210938 290.121094 C 844.519531 289.011719 843.570313 288.132813 842.351563 287.492188 "/>
<path style=" stroke:none;fill-rule:nonzero;fill:rgb(100%,100%,100%);fill-opacity:1;" d="M 848.785156 275.898438 L 848.785156 280.277344 L 856.464844 280.277344 L 856.464844 301.785156 L 861.691406 301.785156 L 861.691406 280.277344 L 869.351563 280.277344 L 869.351563 275.898438 "/>
<g clip-path="url(#clip2)" clip-rule="nonzero">
<path style=" stroke:none;fill-rule:evenodd;fill:rgb(100%,100%,100%);fill-opacity:1;" d="M 0 470.25 L 470.25 470.25 L 470.25 0 L 0 0 Z M 0 470.25 "/>
</g>
<path style=" stroke:none;fill-rule:nonzero;fill:rgb(88.198853%,55.299377%,1.199341%);fill-opacity:1;" d="M 189.148438 235.105469 L 189.148438 223.917969 C 184.050781 224.449219 179.34375 226.296875 175.375 229.117188 C 179.183594 232.34375 183.929688 234.496094 189.148438 235.105469 M 189.148438 217.789063 L 189.148438 212.296875 L 166.339844 212.296875 C 166.875 216.871094 168.59375 221.085938 171.183594 224.621094 C 176.28125 220.820313 182.449219 218.363281 189.148438 217.789063 M 189.148438 206.195313 L 189.148438 200.703125 C 182.449219 200.128906 176.28125 197.671875 171.183594 193.871094 C 168.59375 197.40625 166.875 201.621094 166.339844 206.195313 Z M 189.148438 194.574219 L 189.148438 183.386719 C 183.929688 183.996094 179.183594 186.148438 175.375 189.378906 C 179.34375 192.195313 184.050781 194.046875 189.148438 194.574219 M 195.253906 183.386719 L 195.253906 194.574219 C 200.351563 194.046875 205.058594 192.195313 209.027344 189.378906 C 205.21875 186.148438 200.472656 183.996094 195.253906 183.386719 M 195.253906 200.703125 L 195.253906 206.195313 L 218.0625 206.195313 C 217.527344 201.621094 215.808594 197.40625 213.214844 193.871094 C 208.117188 197.671875 201.953125 200.128906 195.253906 200.703125 M 195.253906 212.296875 L 195.253906 217.789063 C 201.953125 218.363281 208.117188 220.820313 213.214844 224.621094 C 215.808594 221.085938 217.527344 216.871094 218.0625 212.296875 Z M 195.253906 223.917969 L 195.253906 235.105469 C 200.472656 234.496094 205.21875 232.34375 209.027344 229.117188 C 205.058594 226.296875 200.351563 224.449219 195.253906 223.917969 M 160.0625 209.246094 C 160.0625 191.496094 174.449219 177.109375 192.203125 177.109375 C 209.953125 177.109375 224.339844 191.496094 224.339844 209.246094 C 224.339844 226.996094 209.953125 241.382813 192.203125 241.382813 C 174.449219 241.382813 160.0625 226.996094 160.0625 209.246094 "/>
<path style=" stroke:none;fill-rule:evenodd;fill:rgb(9.399414%,36.099243%,63.899231%);fill-opacity:1;" d="M 136.105469 161.382813 L 219.457031 161.382813 L 219.457031 169.910156 L 155.847656 169.910156 C 151.515625 169.910156 148.003906 173.421875 148.003906 177.757813 L 148.003906 240.738281 C 148.003906 245.070313 151.515625 248.582031 155.847656 248.582031 L 219.46875 248.582031 L 219.472656 257.109375 L 136.105469 257.109375 C 129.367188 257.109375 123.902344 251.648438 123.902344 244.90625 L 123.902344 173.585938 C 123.902344 166.84375 129.367188 161.382813 136.105469 161.382813 M 267.578125 248.582031 L 267.285156 248.582031 C 262.953125 248.582031 259.4375 245.070313 259.4375 240.738281 L 259.4375 177.757813 C 259.4375 173.421875 262.953125 169.910156 267.285156 169.910156 L 267.578125 169.910156 C 271.910156 169.910156 275.421875 173.421875 275.421875 177.757813 L 275.421875 240.738281 C 275.421875 245.070313 271.910156 248.582031 267.578125 248.582031 M 306.6875 169.910156 C 302.355469 169.910156 298.84375 173.421875 298.84375 177.757813 L 298.84375 240.738281 C 298.84375 245.070313 302.355469 248.582031 306.6875 248.582031 L 308.648438 248.582031 C 316.832031 248.582031 323.464844 240.78125 323.464844 231.160156 C 323.464844 221.539063 316.832031 213.742188 308.648438 213.742188 L 306.902344 213.742188 L 306.902344 204.753906 L 308.648438 204.753906 C 316.832031 204.753906 323.464844 196.953125 323.464844 187.332031 C 323.464844 177.710938 316.832031 169.910156 308.648438 169.910156 Z M 228.015625 257.109375 L 228.015625 248.582031 C 232.507813 248.582031 236.019531 245.070313 236.019531 240.738281 L 236.019531 177.757813 C 236.019531 173.421875 232.507813 169.910156 228.175781 169.910156 L 228.175781 161.382813 L 319.980469 161.382813 C 332.613281 161.382813 342.859375 172.164063 342.859375 185.464844 C 342.859375 194.824219 337.785156 202.9375 330.375 206.925781 C 339.707031 210.609375 346.347656 220.085938 346.347656 231.195313 C 346.347656 245.507813 335.320313 257.109375 321.722656 257.109375 "/>
<path style=" stroke:none;fill-rule:nonzero;fill:rgb(9.399414%,36.099243%,63.899231%);fill-opacity:1;" d="M 79.695313 291.542969 L 83.191406 281.941406 L 86.753906 291.542969 Z M 80.488281 275.898438 L 70.40625 301.785156 L 75.949219 301.785156 L 78.085938 295.90625 L 88.433594 295.90625 L 90.695313 301.785156 L 96.378906 301.785156 L 86.015625 275.898438 "/>
<path style=" stroke:none;fill-rule:nonzero;fill:rgb(9.399414%,36.099243%,63.899231%);fill-opacity:1;" d="M 123.417969 296.230469 C 122.929688 296.777344 122.296875 297.121094 121.519531 297.265625 C 121.015625 297.371094 119.820313 297.421875 117.9375 297.421875 L 113.097656 297.421875 L 113.097656 290.503906 L 117.316406 290.503906 C 119.695313 290.503906 121.238281 290.628906 121.953125 290.871094 C 122.664063 291.121094 123.210938 291.515625 123.585938 292.054688 C 123.960938 292.597656 124.148438 293.257813 124.148438 294.035156 C 124.148438 294.953125 123.90625 295.683594 123.417969 296.230469 M 113.097656 280.210938 L 116.101563 280.210938 C 118.558594 280.210938 120.046875 280.238281 120.566406 280.296875 C 121.4375 280.402344 122.09375 280.707031 122.535156 281.207031 C 122.976563 281.707031 123.195313 282.355469 123.195313 283.15625 C 123.195313 283.992188 122.941406 284.667969 122.429688 285.179688 C 121.917969 285.691406 121.214844 286 120.320313 286.105469 C 119.824219 286.164063 118.558594 286.195313 116.523438 286.195313 L 113.097656 286.195313 Z M 124.644531 288.03125 C 125.761719 287.523438 126.648438 286.765625 127.300781 285.753906 C 127.957031 284.738281 128.28125 283.628906 128.28125 282.414063 C 128.28125 281.296875 128.015625 280.289063 127.488281 279.386719 C 126.957031 278.488281 126.296875 277.765625 125.5 277.226563 C 124.707031 276.683594 123.804688 276.328125 122.800781 276.15625 C 121.792969 275.984375 120.265625 275.898438 118.21875 275.898438 L 107.871094 275.898438 L 107.871094 301.785156 L 116.683594 301.785156 C 120.011719 301.761719 122.113281 301.703125 122.984375 301.605469 C 124.375 301.453125 125.542969 301.046875 126.488281 300.378906 C 127.4375 299.714844 128.183594 298.828125 128.730469 297.714844 C 129.28125 296.601563 129.554688 295.460938 129.554688 294.28125 C 129.554688 292.785156 129.128906 291.484375 128.28125 290.378906 C 127.433594 289.273438 126.222656 288.488281 124.644531 288.03125 "/>
<path style=" stroke:none;fill-rule:nonzero;fill:rgb(9.399414%,36.099243%,63.899231%);fill-opacity:1;" d="M 140.621094 291.542969 L 144.121094 281.941406 L 147.6875 291.542969 Z M 141.417969 275.898438 L 131.335938 301.785156 L 136.878906 301.785156 L 139.015625 295.90625 L 149.363281 295.90625 L 151.621094 301.785156 L 157.308594 301.785156 L 146.945313 275.898438 "/>
<path style=" stroke:none;fill-rule:nonzero;fill:rgb(9.399414%,36.099243%,63.899231%);fill-opacity:1;" d="M 175.8125 293.1875 L 165.21875 275.898438 L 160.132813 275.898438 L 160.132813 301.785156 L 164.988281 301.785156 L 164.988281 284.90625 L 175.421875 301.785156 L 180.664063 301.785156 L 180.664063 275.898438 L 175.8125 275.898438 "/>
<path style=" stroke:none;fill-rule:nonzero;fill:rgb(9.399414%,36.099243%,63.899231%);fill-opacity:1;" d="M 209.074219 275.898438 L 202.046875 275.898438 L 191.488281 287.394531 L 191.488281 275.898438 L 186.261719 275.898438 L 186.261719 301.785156 L 191.488281 301.785156 L 191.488281 293.960938 L 195.726563 289.636719 L 202.84375 301.785156 L 209.605469 301.785156 L 199.328125 285.980469 "/>
<path style=" stroke:none;fill-rule:nonzero;fill:rgb(9.399414%,36.099243%,63.899231%);fill-opacity:1;" d="M 220.496094 280.277344 L 228.179688 280.277344 L 228.179688 301.785156 L 233.402344 301.785156 L 233.402344 280.277344 L 241.066406 280.277344 L 241.066406 275.898438 L 220.496094 275.898438 "/>
<path style=" stroke:none;fill-rule:nonzero;fill:rgb(9.399414%,36.099243%,63.899231%);fill-opacity:1;" d="M 260.425781 295.507813 C 259.089844 297.007813 257.382813 297.757813 255.296875 297.757813 C 253.214844 297.757813 251.496094 297.003906 250.140625 295.488281 C 248.789063 293.976563 248.113281 291.757813 248.113281 288.824219 C 248.113281 285.847656 248.769531 283.617188 250.089844 282.144531 C 251.40625 280.664063 253.144531 279.925781 255.296875 279.925781 C 257.453125 279.925781 259.179688 280.65625 260.480469 282.113281 C 261.78125 283.574219 262.429688 285.789063 262.429688 288.753906 C 262.429688 291.757813 261.761719 294.007813 260.425781 295.507813 M 255.246094 275.460938 C 253.136719 275.460938 251.277344 275.800781 249.664063 276.484375 C 248.453125 276.988281 247.339844 277.765625 246.320313 278.816406 C 245.300781 279.863281 244.496094 281.046875 243.910156 282.363281 C 243.121094 284.152344 242.726563 286.363281 242.726563 289 C 242.726563 293.121094 243.863281 296.355469 246.136719 298.703125 C 248.40625 301.050781 251.46875 302.226563 255.316406 302.226563 C 259.117188 302.226563 262.152344 301.046875 264.425781 298.6875 C 266.699219 296.324219 267.832031 293.058594 267.832031 288.878906 C 267.832031 284.664063 266.6875 281.375 264.398438 279.007813 C 262.109375 276.644531 259.058594 275.460938 255.246094 275.460938 "/>
<path style=" stroke:none;fill-rule:nonzero;fill:rgb(9.399414%,36.099243%,63.899231%);fill-opacity:1;" d="M 280.105469 280.277344 L 287.785156 280.277344 L 287.785156 301.785156 L 293.011719 301.785156 L 293.011719 280.277344 L 300.671875 280.277344 L 300.671875 275.898438 L 280.105469 275.898438 "/>
<path style=" stroke:none;fill-rule:nonzero;fill:rgb(9.399414%,36.099243%,63.899231%);fill-opacity:1;" d="M 313.15625 286.847656 L 309.289063 286.847656 L 309.289063 280.28125 L 313.367188 280.28125 C 315.488281 280.28125 316.757813 280.308594 317.179688 280.367188 C 318.027344 280.507813 318.683594 280.847656 319.148438 281.382813 C 319.613281 281.917969 319.847656 282.621094 319.847656 283.492188 C 319.847656 284.269531 319.671875 284.917969 319.316406 285.433594 C 318.964844 285.953125 318.476563 286.316406 317.851563 286.53125 C 317.226563 286.742188 315.664063 286.847656 313.15625 286.847656 M 321.199219 292.53125 C 320.460938 291.742188 319.53125 291.019531 318.398438 290.363281 C 320.671875 290.03125 322.378906 289.234375 323.519531 287.96875 C 324.660156 286.703125 325.234375 285.101563 325.234375 283.15625 C 325.234375 281.628906 324.855469 280.269531 324.101563 279.078125 C 323.347656 277.890625 322.347656 277.0625 321.09375 276.597656 C 319.839844 276.132813 317.828125 275.902344 315.0625 275.902344 L 304.0625 275.902344 L 304.0625 301.785156 L 309.289063 301.785156 L 309.289063 290.980469 L 310.347656 290.980469 C 311.550781 290.980469 312.425781 291.078125 312.980469 291.269531 C 313.53125 291.464844 314.054688 291.824219 314.550781 292.347656 C 315.046875 292.871094 315.964844 294.140625 317.304688 296.152344 L 321.082031 301.785156 L 327.332031 301.785156 L 324.171875 296.734375 C 322.925781 294.722656 321.933594 293.320313 321.199219 292.53125 "/>
<path style=" stroke:none;fill-rule:nonzero;fill:rgb(9.399414%,36.099243%,63.899231%);fill-opacity:1;" d="M 345.535156 290.21875 C 345.535156 292.269531 345.460938 293.734375 345.308594 294.617188 C 345.152344 295.5 344.699219 296.242188 343.945313 296.851563 C 343.195313 297.457031 342.074219 297.757813 340.59375 297.757813 C 339.132813 297.757813 337.980469 297.4375 337.140625 296.796875 C 336.300781 296.15625 335.765625 295.304688 335.542969 294.246094 C 335.414063 293.585938 335.347656 292.144531 335.347656 289.921875 L 335.347656 275.902344 L 330.121094 275.902344 L 330.121094 289.707031 C 330.121094 292.605469 330.292969 294.792969 330.636719 296.277344 C 330.871094 297.277344 331.359375 298.234375 332.101563 299.144531 C 332.84375 300.058594 333.851563 300.800781 335.128906 301.367188 C 336.40625 301.941406 338.28125 302.226563 340.75 302.226563 C 342.800781 302.226563 344.460938 301.964844 345.730469 301.441406 C 347 300.914063 348.015625 300.214844 348.777344 299.328125 C 349.535156 298.449219 350.054688 297.363281 350.339844 296.082031 C 350.621094 294.800781 350.761719 292.605469 350.761719 289.496094 L 350.761719 275.902344 L 345.535156 275.902344 "/>
<path style=" stroke:none;fill-rule:nonzero;fill:rgb(9.399414%,36.099243%,63.899231%);fill-opacity:1;" d="M 372.101563 287.492188 C 370.882813 286.851563 369 286.230469 366.460938 285.628906 C 363.917969 285.027344 362.316406 284.453125 361.65625 283.898438 C 361.140625 283.464844 360.878906 282.9375 360.878906 282.328125 C 360.878906 281.65625 361.15625 281.121094 361.710938 280.722656 C 362.570313 280.097656 363.757813 279.785156 365.277344 279.785156 C 366.746094 279.785156 367.851563 280.074219 368.585938 280.660156 C 369.320313 281.242188 369.800781 282.199219 370.027344 283.527344 L 375.253906 283.300781 C 375.167969 280.921875 374.308594 279.019531 372.664063 277.597656 C 371.023438 276.171875 368.578125 275.460938 365.328125 275.460938 C 363.339844 275.460938 361.640625 275.761719 360.234375 276.359375 C 358.828125 276.960938 357.753906 277.835938 357.003906 278.980469 C 356.257813 280.128906 355.882813 281.363281 355.882813 282.679688 C 355.882813 284.726563 356.679688 286.464844 358.265625 287.886719 C 359.394531 288.902344 361.363281 289.753906 364.164063 290.449219 C 366.339844 290.988281 367.734375 291.367188 368.347656 291.578125 C 369.242188 291.894531 369.871094 292.269531 370.226563 292.699219 C 370.585938 293.128906 370.765625 293.652344 370.765625 294.261719 C 370.765625 295.214844 370.339844 296.050781 369.488281 296.761719 C 368.632813 297.472656 367.363281 297.828125 365.683594 297.828125 C 364.09375 297.828125 362.828125 297.429688 361.894531 296.628906 C 360.960938 295.828125 360.339844 294.574219 360.03125 292.867188 L 354.949219 293.363281 C 355.289063 296.257813 356.335938 298.460938 358.089844 299.972656 C 359.84375 301.488281 362.355469 302.242188 365.628906 302.242188 C 367.878906 302.242188 369.753906 301.929688 371.261719 301.300781 C 372.769531 300.667969 373.933594 299.707031 374.757813 298.410156 C 375.578125 297.117188 375.992188 295.726563 375.992188 294.246094 C 375.992188 292.609375 375.648438 291.234375 374.960938 290.121094 C 374.269531 289.011719 373.316406 288.132813 372.101563 287.492188 "/>
<path style=" stroke:none;fill-rule:nonzero;fill:rgb(9.399414%,36.099243%,63.899231%);fill-opacity:1;" d="M 378.535156 275.898438 L 378.535156 280.277344 L 386.214844 280.277344 L 386.214844 301.785156 L 391.441406 301.785156 L 391.441406 280.277344 L 399.105469 280.277344 L 399.105469 275.898438 "/>
</g>
</svg>
