<svg xmlns="http://www.w3.org/2000/svg" viewBox="0 0 1200 1200"><defs><style>.cls-1{isolation:isolate;}.cls-2{fill:#fff;}.cls-3{fill:#36ad4c;}.cls-4{mix-blend-mode:multiply;}.cls-5{fill:#f2f2f2;}.cls-6{fill:#4ecd66;}.cls-7{fill:#a6edb3;}.cls-8{fill:#f7f7f7;}.cls-9{fill:#e3e3e3;}.cls-10{fill:#ededed;}</style></defs><g class="cls-1"><g id="Layer_2" data-name="Layer 2"><rect class="cls-2" width="1200" height="1200"/></g><g id="Layer_1" data-name="Layer 1"><path class="cls-3" d="M588.87,1027.47a4.5,4.5,0,0,1-4.38-4.62h0a4.51,4.51,0,0,1,4.62-4.38h0a4.51,4.51,0,0,1,4.38,4.62h0a4.5,4.5,0,0,1-4.5,4.38h-.12Zm18.15-4.4a4.48,4.48,0,0,1,4.38-4.6h0a4.5,4.5,0,0,1,4.62,4.36h0a4.5,4.5,0,0,1-4.38,4.62h-.12A4.5,4.5,0,0,1,607,1023.07Zm-40.88,3.23h0a4.5,4.5,0,0,1-4.14-4.85h0a4.5,4.5,0,0,1,4.83-4.13h0a4.49,4.49,0,0,1,4.14,4.84h0a4.5,4.5,0,0,1-4.49,4.14h-.36Zm63.38-4.17a4.5,4.5,0,0,1,4.12-4.85h0a4.5,4.5,0,0,1,4.85,4.13h0a4.5,4.5,0,0,1-4.12,4.84h0l-.37,0h0A4.5,4.5,0,0,1,629.52,1022.13Zm-86,1.78a4.5,4.5,0,0,1-3.88-5h0a4.52,4.52,0,0,1,5.05-3.87h0a4.51,4.51,0,0,1,3.87,5.06h0a4.5,4.5,0,0,1-4.45,3.91h0A3.92,3.92,0,0,1,543.52,1023.91ZM651.94,1020a4.49,4.49,0,0,1,3.86-5.06h0a4.48,4.48,0,0,1,5.05,3.87h0a4.49,4.49,0,0,1-3.85,5.05h0l-.6,0h0A4.5,4.5,0,0,1,651.94,1020Zm-130.9.35a4.52,4.52,0,0,1-3.6-5.25h0a4.49,4.49,0,0,1,5.25-3.59h0a4.49,4.49,0,0,1,3.6,5.25h0a4.52,4.52,0,0,1-4.43,3.67h0A4.74,4.74,0,0,1,521,1020.34Zm153.16-3.69a4.52,4.52,0,0,1,3.61-5.26h0a4.51,4.51,0,0,1,5.25,3.59h0a4.5,4.5,0,0,1-3.59,5.25h0a4.11,4.11,0,0,1-.84.08h0A4.5,4.5,0,0,1,674.2,1016.65Zm-175.42-1.09a4.48,4.48,0,0,1-3.3-5.43h0a4.48,4.48,0,0,1,5.43-3.31h0a4.5,4.5,0,0,1,3.31,5.44h0a4.49,4.49,0,0,1-4.36,3.43h0A4.43,4.43,0,0,1,498.78,1015.56Zm197.49-3.42a4.52,4.52,0,0,1,3.31-5.45h0A4.5,4.5,0,0,1,705,1010h0a4.49,4.49,0,0,1-3.3,5.43h0a4.37,4.37,0,0,1-1.08.13h0A4.51,4.51,0,0,1,696.27,1012.14Zm-219.45-2.54a4.5,4.5,0,0,1-3-5.6h0a4.51,4.51,0,0,1,5.6-3h0a4.5,4.5,0,0,1,3,5.61h0a4.49,4.49,0,0,1-4.3,3.21h0A4.18,4.18,0,0,1,476.82,1009.6Zm241.25-3.16a4.48,4.48,0,0,1,3-5.6h0a4.49,4.49,0,0,1,5.6,3h0a4.5,4.5,0,0,1-3,5.61h0a4.25,4.25,0,0,1-1.31.2h0A4.48,4.48,0,0,1,718.07,1006.44Zm-262.91-4a4.5,4.5,0,0,1-2.72-5.75h0A4.51,4.51,0,0,1,458.2,994h0a4.5,4.5,0,0,1,2.7,5.76h0a4.49,4.49,0,0,1-4.23,3h0A4.37,4.37,0,0,1,455.16,1002.45Zm284.35-2.85a4.51,4.51,0,0,1,2.72-5.76h0a4.5,4.5,0,0,1,5.76,2.7h0a4.5,4.5,0,0,1-2.72,5.76h0a4.47,4.47,0,0,1-1.52.27h0A4.52,4.52,0,0,1,739.51,999.6ZM433.9,994.15a4.5,4.5,0,0,1-2.4-5.89h0a4.53,4.53,0,0,1,5.9-2.4h0a4.5,4.5,0,0,1,2.4,5.89h0a4.48,4.48,0,0,1-4.14,2.76h0A4.54,4.54,0,0,1,433.9,994.15Zm326.63-2.53a4.5,4.5,0,0,1,2.4-5.9h0a4.51,4.51,0,0,1,5.89,2.4h0a4.51,4.51,0,0,1-2.39,5.9h0a4.52,4.52,0,0,1-1.75.35h0A4.5,4.5,0,0,1,760.53,991.62Zm-347.39-6.88a4.51,4.51,0,0,1-2.07-6h0a4.5,4.5,0,0,1,6-2.07h0a4.49,4.49,0,0,1,2.07,6h0a4.52,4.52,0,0,1-4.05,2.52h0A4.45,4.45,0,0,1,413.14,984.74Zm368-2.21a4.51,4.51,0,0,1,2.07-6h0a4.51,4.51,0,0,1,6,2.07h0a4.53,4.53,0,0,1-2.07,6h0a4.72,4.72,0,0,1-2,.45h0A4.53,4.53,0,0,1,781.09,982.53Zm-388.17-8.31a4.51,4.51,0,0,1-1.75-6.12h0a4.51,4.51,0,0,1,6.12-1.76h0a4.5,4.5,0,0,1,1.75,6.12h0a4.43,4.43,0,0,1-3.94,2.31h0A4.61,4.61,0,0,1,392.92,974.22Zm408.23-1.86a4.51,4.51,0,0,1,1.75-6.12h0A4.49,4.49,0,0,1,809,968h0a4.51,4.51,0,0,1-1.75,6.12h0v0h0a4.41,4.41,0,0,1-2.18.57h0A4.48,4.48,0,0,1,801.15,972.36ZM373.3,962.64h0a4.49,4.49,0,0,1-1.42-6.2h0a4.48,4.48,0,0,1,6.19-1.42h0a4.48,4.48,0,0,1,1.43,6.19h0a4.48,4.48,0,0,1-3.81,2.12h0A4.5,4.5,0,0,1,373.3,962.64Zm447.35-1.52a4.48,4.48,0,0,1,1.41-6.19h0a4.49,4.49,0,0,1,6.21,1.41h0a4.51,4.51,0,0,1-1.43,6.21h0a4.47,4.47,0,0,1-2.38.69h0A4.47,4.47,0,0,1,820.65,961.12ZM354.33,950a4.49,4.49,0,0,1-1.1-6.27h0a4.49,4.49,0,0,1,6.27-1.09h0a4.5,4.5,0,0,1,1.1,6.26h0a4.45,4.45,0,0,1-3.69,1.91h0A4.45,4.45,0,0,1,354.33,950Zm485.19-1.17a4.49,4.49,0,0,1,1.08-6.27h0a4.5,4.5,0,0,1,6.27,1.09h0a4.49,4.49,0,0,1-1.08,6.27h0a4.45,4.45,0,0,1-2.58.81h0A4.45,4.45,0,0,1,839.52,948.87ZM336,936.45a4.51,4.51,0,0,1-.75-6.32h0a4.5,4.5,0,0,1,6.32-.76h0a4.49,4.49,0,0,1,.75,6.31h0a4.48,4.48,0,0,1-3.54,1.73h0A4.55,4.55,0,0,1,336,936.45Zm521.67-.83a4.5,4.5,0,0,1,.77-6.31h0a4.49,4.49,0,0,1,6.32.75h0a4.52,4.52,0,0,1-.77,6.33h0a4.48,4.48,0,0,1-2.78,1h0A4.51,4.51,0,0,1,857.71,935.62ZM318.52,921.91a4.5,4.5,0,0,1-.43-6.35h0a4.52,4.52,0,0,1,6.36-.43h0a4.53,4.53,0,0,1,.42,6.37h0a4.49,4.49,0,0,1-3.39,1.52h0A4.47,4.47,0,0,1,318.52,921.91Zm556.68-.48a4.52,4.52,0,0,1,.41-6.36h0a4.5,4.5,0,0,1,6.35.44h0a4.5,4.5,0,0,1-.42,6.34h0a4.5,4.5,0,0,1-3,1.11h0A4.46,4.46,0,0,1,875.2,921.43ZM301.78,906.48v0h0a4.5,4.5,0,0,1-.07-6.36h0a4.5,4.5,0,0,1,6.36-.07h0a4.51,4.51,0,0,1,.09,6.36h0a4.53,4.53,0,0,1-3.22,1.36h0A4.57,4.57,0,0,1,301.78,906.48Zm590.12-.15A4.5,4.5,0,0,1,892,900h0a4.49,4.49,0,0,1,6.36.08h0a4.5,4.5,0,0,1-.08,6.37h0a4.55,4.55,0,0,1-3.15,1.27h0A4.5,4.5,0,0,1,891.9,906.33Zm-606-16.15a4.49,4.49,0,0,1,.24-6.36h0a4.49,4.49,0,0,1,6.36.25h0a4.49,4.49,0,0,1-.25,6.36h0a4.49,4.49,0,0,1-3,1.19h0A4.52,4.52,0,0,1,285.91,890.18Zm621.87.17a4.48,4.48,0,0,1-.23-6.34h0a4.51,4.51,0,0,1,6.37-.25h0a4.5,4.5,0,0,1,.24,6.37h0a4.48,4.48,0,0,1-3.3,1.44h0A4.48,4.48,0,0,1,907.78,890.35ZM270.91,873.06a4.48,4.48,0,0,1,.59-6.33h0a4.48,4.48,0,0,1,6.33.59h0a4.47,4.47,0,0,1-.59,6.32h0a4.42,4.42,0,0,1-2.86,1.05h0A4.52,4.52,0,0,1,270.91,873.06Zm651.91.51a4.49,4.49,0,0,1-.59-6.33h0a4.49,4.49,0,0,1,6.33-.59h0a4.5,4.5,0,0,1,.6,6.34h0a4.53,4.53,0,0,1-3.48,1.61h0A4.43,4.43,0,0,1,922.82,873.57Zm-666-18.39a4.49,4.49,0,0,1,.91-6.3h0a4.52,4.52,0,0,1,6.3.93h0a4.52,4.52,0,0,1-.92,6.3h0a4.49,4.49,0,0,1-2.68.89h0A4.47,4.47,0,0,1,256.85,855.18Zm680.08.82a4.48,4.48,0,0,1-.92-6.28h0a4.49,4.49,0,0,1,6.29-.93h0a4.5,4.5,0,0,1,.93,6.3h0a4.5,4.5,0,0,1-3.61,1.81h0A4.51,4.51,0,0,1,936.93,856ZM243.75,836.59a4.49,4.49,0,0,1,1.24-6.24h0a4.5,4.5,0,0,1,6.24,1.25h0a4.48,4.48,0,0,1-1.26,6.24h0a4.42,4.42,0,0,1-2.47.75h0A4.49,4.49,0,0,1,243.75,836.59Zm706.35,1.13a4.51,4.51,0,0,1-1.26-6.24h0a4.5,4.5,0,0,1,6.24-1.26h0a4.5,4.5,0,0,1,1.26,6.24h0a4.5,4.5,0,0,1-3.75,2h0A4.5,4.5,0,0,1,950.1,837.72ZM231.66,817.33a4.49,4.49,0,0,1,1.57-6.16h0a4.5,4.5,0,0,1,6.17,1.58h0a4.5,4.5,0,0,1-1.58,6.16h0a4.45,4.45,0,0,1-2.29.63h0A4.5,4.5,0,0,1,231.66,817.33Zm730.62,1.42a4.5,4.5,0,0,1-1.59-6.17h0a4.5,4.5,0,0,1,6.16-1.58h0a4.48,4.48,0,0,1,1.59,6.15h0a4.5,4.5,0,0,1-3.88,2.23h0A4.61,4.61,0,0,1,962.28,818.75ZM220.6,797.46h0a4.54,4.54,0,0,1,1.92-6.08h0a4.5,4.5,0,0,1,6.06,1.93h0a4.48,4.48,0,0,1-1.9,6.06h0a4.56,4.56,0,0,1-2.08.51h0A4.51,4.51,0,0,1,220.6,797.46Zm752.84,1.69a4.52,4.52,0,0,1-1.92-6.07h0a4.52,4.52,0,0,1,6.07-1.92h0a4.51,4.51,0,0,1,1.91,6.08h0a4.48,4.48,0,0,1-4,2.41h0A4.39,4.39,0,0,1,973.44,799.15Zm-762.8-22.1a4.52,4.52,0,0,1,2.24-6h0a4.51,4.51,0,0,1,6,2.24h0a4.49,4.49,0,0,1-2.23,6h0a4.23,4.23,0,0,1-1.86.41h0A4.51,4.51,0,0,1,210.64,777.05ZM983.53,779a4.5,4.5,0,0,1-2.23-6h0a4.5,4.5,0,0,1,6-2.25h0a4.52,4.52,0,0,1,2.24,6h0a4.52,4.52,0,0,1-4.1,2.63h0A4.51,4.51,0,0,1,983.53,779ZM201.78,756.12a4.53,4.53,0,0,1,2.55-5.84h0a4.51,4.51,0,0,1,5.83,2.55h0a4.53,4.53,0,0,1-2.55,5.84h0A4.51,4.51,0,0,1,206,759h0A4.53,4.53,0,0,1,201.78,756.12Zm790.75,2.18a4.51,4.51,0,0,1-2.54-5.84h0a4.49,4.49,0,0,1,5.83-2.55h0a4.5,4.5,0,0,1,2.55,5.82h0a4.52,4.52,0,0,1-4.2,2.86h0A4.73,4.73,0,0,1,992.53,758.3ZM194,734.71a4.49,4.49,0,0,1,2.85-5.68h0a4.51,4.51,0,0,1,5.7,2.85h0a4.51,4.51,0,0,1-2.87,5.69h0a4.31,4.31,0,0,1-1.41.24h0A4.51,4.51,0,0,1,194,734.71Zm806.39,2.43a4.49,4.49,0,0,1-2.87-5.68h0a4.51,4.51,0,0,1,5.69-2.87h0a4.49,4.49,0,0,1,2.84,5.69h0a4.52,4.52,0,0,1-4.28,3.09h0A4.28,4.28,0,0,1,1000.43,737.14Zm-813-24.21h0a4.5,4.5,0,0,1,3.17-5.52h0a4.5,4.5,0,0,1,5.52,3.15h0a4.5,4.5,0,0,1-3.15,5.53h0a4.55,4.55,0,0,1-1.2.16h0A4.51,4.51,0,0,1,187.45,712.93Zm819.69,2.72a4.51,4.51,0,0,1-3.16-5.53h0a4.48,4.48,0,0,1,5.52-3.16h0a4.5,4.5,0,0,1,3.16,5.53h0a4.49,4.49,0,0,1-4.33,3.31h0A4.85,4.85,0,0,1,1007.14,715.65ZM182.05,690.81a4.49,4.49,0,0,1,3.45-5.34h0a4.5,4.5,0,0,1,5.35,3.45v0a4.51,4.51,0,0,1-3.46,5.36h0a4.31,4.31,0,0,1-.94.11h0A4.49,4.49,0,0,1,182.05,690.81Zm830.64,3a4.47,4.47,0,0,1-3.44-5.34h0a4.5,4.5,0,0,1,5.35-3.45h0a4.51,4.51,0,0,1,3.45,5.34h0a4.52,4.52,0,0,1-4.4,3.55h0A4.61,4.61,0,0,1,1012.69,693.81ZM177.84,668.46a4.52,4.52,0,0,1,3.72-5.18h0a4.5,4.5,0,0,1,5.16,3.74h0a4.5,4.5,0,0,1-3.72,5.16h0a4.37,4.37,0,0,1-.72.06h0A4.5,4.5,0,0,1,177.84,668.46Zm839.23,3.27a4.5,4.5,0,0,1-3.72-5.16h0a4.5,4.5,0,0,1,5.15-3.74h0a4.52,4.52,0,0,1,3.74,5.17h0a4.49,4.49,0,0,1-4.44,3.77h0A6.06,6.06,0,0,1,1017.07,671.73ZM174.82,645.9a4.52,4.52,0,0,1,4-5h0a4.5,4.5,0,0,1,4.95,4h0a4.49,4.49,0,0,1-4,4.95h0l-.49,0h0A4.48,4.48,0,0,1,174.82,645.9Zm845.46,3.54a4.5,4.5,0,0,1-4-5h0a4.47,4.47,0,0,1,5-4h0a4.48,4.48,0,0,1,4,4.94h0a4.48,4.48,0,0,1-4.47,4h-.47ZM173,623.2a4.5,4.5,0,0,1,4.24-4.72h0a4.49,4.49,0,0,1,4.74,4.24h0a4.5,4.5,0,0,1-4.26,4.74h-.24A4.49,4.49,0,0,1,173,623.2ZM1022.3,627a4.5,4.5,0,0,1-4.27-4.73h0a4.5,4.5,0,0,1,4.73-4.26h0a4.52,4.52,0,0,1,4.26,4.73h0a4.51,4.51,0,0,1-4.49,4.27h-.23ZM172.38,600.47v0h0a4.5,4.5,0,0,1,4.5-4.5h0a4.49,4.49,0,0,1,4.5,4.5h0a4.49,4.49,0,0,1-4.49,4.5h0A4.5,4.5,0,0,1,172.38,600.47Zm846.24-.47h0c0-.15,0-.31,0-.47h0c0-.15,0-.31,0-.48h0a4.49,4.49,0,0,1,4.48-4.51h0a4.49,4.49,0,0,1,4.5,4.5h0c0,.16,0,.33,0,.48h0c0,.17,0,.31,0,.48h0a4.51,4.51,0,0,1-4.5,4.5h0A4.49,4.49,0,0,1,1018.62,600Zm-837.24.45Zm-4.16-18a4.52,4.52,0,0,1-4.27-4.73h0a4.49,4.49,0,0,1,4.72-4.26h0a4.51,4.51,0,0,1,4.28,4.72h0a4.53,4.53,0,0,1-4.5,4.28h-.23ZM1018,576.78a4.51,4.51,0,0,1,4.27-4.74h0a4.51,4.51,0,0,1,4.73,4.24h0a4.49,4.49,0,0,1-4.26,4.74h-.24A4.51,4.51,0,0,1,1018,576.78ZM178.72,560a4.52,4.52,0,0,1-4-5h0v0h0a4.48,4.48,0,0,1,4.95-4h0a4.49,4.49,0,0,1,4,4.94h0a4.49,4.49,0,0,1-4.47,4h0Zm837.46-5.41h0a4.49,4.49,0,0,1,4-4.95h0a4.51,4.51,0,0,1,5,4h0a4.5,4.5,0,0,1-4,4.95h0a2.8,2.8,0,0,1-.5,0h0A4.49,4.49,0,0,1,1016.18,554.56Zm-834.76-17a4.5,4.5,0,0,1-3.73-5.15h0a4.49,4.49,0,0,1,5.14-3.73h0a4.51,4.51,0,0,1,3.75,5.14h0a4.5,4.5,0,0,1-4.44,3.8h0A4.37,4.37,0,0,1,181.42,537.6Zm831.78-5.12a4.5,4.5,0,0,1,3.73-5.16h0a4.52,4.52,0,0,1,5.15,3.72h0a4.5,4.5,0,0,1-3.71,5.16h0a3.82,3.82,0,0,1-.74.06h0A4.5,4.5,0,0,1,1013.2,532.48ZM185.31,515.43a4.5,4.5,0,0,1-3.45-5.34h0a4.49,4.49,0,0,1,5.34-3.47h0a4.52,4.52,0,0,1,3.46,5.35h0a4.51,4.51,0,0,1-4.41,3.55h0A5.07,5.07,0,0,1,185.31,515.43Zm823.74-4.83a4.5,4.5,0,0,1,3.44-5.36h0a4.51,4.51,0,0,1,5.35,3.45h0a4.48,4.48,0,0,1-3.44,5.34h0a4,4,0,0,1-1,.11h0A4.5,4.5,0,0,1,1009.05,510.6ZM190.38,493.48a4.5,4.5,0,0,1-3.16-5.51h0a4.5,4.5,0,0,1,5.51-3.19h0a4.51,4.51,0,0,1,3.17,5.52h0a4.5,4.5,0,0,1-4.34,3.33h0A4.34,4.34,0,0,1,190.38,493.48ZM1003.72,489a4.52,4.52,0,0,1,3.16-5.53h0a4.49,4.49,0,0,1,5.53,3.14h0a4.51,4.51,0,0,1-3.15,5.54h0a5,5,0,0,1-1.19.15h0A4.51,4.51,0,0,1,1003.72,489Zm-807.1-17.13a4.51,4.51,0,0,1-2.87-5.69h0a4.51,4.51,0,0,1,5.69-2.86h0A4.51,4.51,0,0,1,202.3,469h0a4.5,4.5,0,0,1-4.27,3.09h0A4.56,4.56,0,0,1,196.62,471.84Zm800.64-4.19a4.51,4.51,0,0,1,2.85-5.7h0a4.52,4.52,0,0,1,5.69,2.85h0a4.51,4.51,0,0,1-2.86,5.69h0a4.31,4.31,0,0,1-1.41.24h0A4.51,4.51,0,0,1,997.26,467.65ZM204,450.51a4.48,4.48,0,0,1-2.56-5.82h0a4.49,4.49,0,0,1,5.83-2.57h0a4.53,4.53,0,0,1,2.55,5.84h0a4.51,4.51,0,0,1-4.2,2.86h0A4.36,4.36,0,0,1,204,450.51Zm785.62-3.81a4.51,4.51,0,0,1,2.54-5.84h0A4.51,4.51,0,0,1,998,443.4h0a4.51,4.51,0,0,1-2.53,5.85h0a4.54,4.54,0,0,1-1.65.3h0A4.53,4.53,0,0,1,989.65,446.7ZM212.56,429.63a4.51,4.51,0,0,1-2.25-6h0a4.52,4.52,0,0,1,6-2.25h0a4.53,4.53,0,0,1,2.25,6h0a4.53,4.53,0,0,1-4.11,2.64h0A4.5,4.5,0,0,1,212.56,429.63ZM981,426.24a4.52,4.52,0,0,1,2.23-6h0a4.51,4.51,0,0,1,6,2.23h0a4.5,4.5,0,0,1-2.21,6h0a4.51,4.51,0,0,1-1.88.4h0A4.52,4.52,0,0,1,981,426.24Zm-758.76-17a4.5,4.5,0,0,1-1.92-6.06h0a4.53,4.53,0,0,1,6.08-1.92h0a4.51,4.51,0,0,1,1.92,6.07h0a4.53,4.53,0,0,1-4,2.42h0A4.62,4.62,0,0,1,222.19,409.23Zm749-3a4.49,4.49,0,0,1,1.9-6.07h0a4.48,4.48,0,0,1,6.07,1.9h0a4.49,4.49,0,0,1-1.9,6.07h0a4.45,4.45,0,0,1-2.09.51h0A4.51,4.51,0,0,1,971.18,406.26ZM232.92,389.4a4.51,4.51,0,0,1-1.61-6.17h0a4.52,4.52,0,0,1,6.17-1.59h0a4.51,4.51,0,0,1,1.59,6.17h0a4.51,4.51,0,0,1-3.87,2.2h0A4.43,4.43,0,0,1,232.92,389.4Zm727.42-2.58h0a4.5,4.5,0,0,1,1.58-6.17h0a4.51,4.51,0,0,1,6.16,1.58h0a4.47,4.47,0,0,1-1.57,6.16h0a4.36,4.36,0,0,1-2.3.63h0A4.49,4.49,0,0,1,960.34,386.82ZM244.66,370.15a4.5,4.5,0,0,1-1.26-6.24h0a4.51,4.51,0,0,1,6.24-1.26h0a4.49,4.49,0,0,1,1.26,6.24h0a4.48,4.48,0,0,1-3.75,2h0A4.5,4.5,0,0,1,244.66,370.15ZM948.48,368h0a4.48,4.48,0,0,1,1.24-6.24h0A4.5,4.5,0,0,1,956,363h0a4.52,4.52,0,0,1-1.26,6.24h0a4.48,4.48,0,0,1-2.49.77h0A4.5,4.5,0,0,1,948.48,368Zm-691-16.41a4.49,4.49,0,0,1-.93-6.29h0a4.49,4.49,0,0,1,6.28-.93h0a4.48,4.48,0,0,1,.94,6.29h0a4.46,4.46,0,0,1-3.62,1.83h0A4.47,4.47,0,0,1,257.43,351.57Zm678.21-1.77a4.49,4.49,0,0,1,.92-6.3h0a4.49,4.49,0,0,1,6.29.91h0a4.49,4.49,0,0,1-.91,6.29h0a4.46,4.46,0,0,1-2.69.9h0A4.52,4.52,0,0,1,935.64,349.8Zm-664.5-16.1a4.51,4.51,0,0,1-.59-6.34h0a4.5,4.5,0,0,1,6.33-.59h0a4.48,4.48,0,0,1,.6,6.33h0a4.43,4.43,0,0,1-3.46,1.64h0A4.55,4.55,0,0,1,271.14,333.7Zm650.71-1.39a4.49,4.49,0,0,1,.58-6.34h0a4.5,4.5,0,0,1,6.34.58h0a4.49,4.49,0,0,1-.59,6.33h0a4.48,4.48,0,0,1-2.87,1.05h0A4.47,4.47,0,0,1,921.85,332.31ZM285.79,316.57a4.49,4.49,0,0,1-.25-6.34h0a4.51,4.51,0,0,1,6.36-.26h0a4.5,4.5,0,0,1,.25,6.36h0a4.49,4.49,0,0,1-3.31,1.45h0A4.46,4.46,0,0,1,285.79,316.57Zm621.35-1a4.51,4.51,0,0,1,.25-6.36h0a4.48,4.48,0,0,1,6.35.24h0a4.49,4.49,0,0,1-.24,6.36h0a4.45,4.45,0,0,1-3.06,1.2h0A4.48,4.48,0,0,1,907.14,315.57Zm-605.82-15.3a4.5,4.5,0,0,1,.09-6.36h0a4.49,4.49,0,0,1,6.36.07h0a4.5,4.5,0,0,1-.08,6.37h0a4.49,4.49,0,0,1-3.15,1.27h0A4.51,4.51,0,0,1,301.32,300.27Zm590.25-.65a4.49,4.49,0,0,1-.09-6.36h0a4.5,4.5,0,0,1,6.36-.09h0a4.49,4.49,0,0,1,.09,6.36h0a4.42,4.42,0,0,1-3.23,1.37h0A4.45,4.45,0,0,1,891.57,299.62ZM317.7,284.8a4.51,4.51,0,0,1,.4-6.36h0a4.53,4.53,0,0,1,6.37.42h0a4.52,4.52,0,0,1-.43,6.35h0a4.49,4.49,0,0,1-3,1.12h0A4.47,4.47,0,0,1,317.7,284.8Zm557.48-.27h0a4.48,4.48,0,0,1-.44-6.34h0a4.51,4.51,0,0,1,6.36-.44h0a4.51,4.51,0,0,1,.42,6.35h0a4.47,4.47,0,0,1-3.39,1.54h0A4.48,4.48,0,0,1,875.18,284.53ZM334.85,270.22a4.5,4.5,0,0,1,.75-6.33h0a4.51,4.51,0,0,1,6.32.75h0a4.52,4.52,0,0,1-.75,6.33h0a4.49,4.49,0,0,1-2.79,1h0A4.49,4.49,0,0,1,334.85,270.22Zm523.15.09a4.49,4.49,0,0,1-.76-6.31h0a4.5,4.5,0,0,1,6.31-.77h0a4.51,4.51,0,0,1,.77,6.32h0a4.47,4.47,0,0,1-3.55,1.72h0A4.44,4.44,0,0,1,858,270.31ZM352.75,256.57a4.52,4.52,0,0,1,1.08-6.27h0a4.5,4.5,0,0,1,6.27,1.08h0a4.49,4.49,0,0,1-1.08,6.27h0a4.45,4.45,0,0,1-2.59.83h0A4.47,4.47,0,0,1,352.75,256.57Zm487.34.47a4.49,4.49,0,0,1-1.09-6.27h0a4.47,4.47,0,0,1,6.26-1.1h0a4.5,4.5,0,0,1,1.1,6.26h0a4.46,4.46,0,0,1-3.69,1.92h0A4.42,4.42,0,0,1,840.09,257ZM371.35,243.9a4.51,4.51,0,0,1,1.41-6.21h0a4.51,4.51,0,0,1,6.21,1.42h0a4.5,4.5,0,0,1-1.42,6.2h0a4.5,4.5,0,0,1-2.39.69h0A4.51,4.51,0,0,1,371.35,243.9Zm450.15.82a4.5,4.5,0,0,1-1.43-6.21h0a4.5,4.5,0,0,1,6.2-1.42h0a4.49,4.49,0,0,1,1.43,6.19h0a4.5,4.5,0,0,1-3.82,2.12h0A4.42,4.42,0,0,1,821.5,244.72ZM390.58,232.23a4.51,4.51,0,0,1,1.74-6.12h0a4.49,4.49,0,0,1,6.12,1.74h0A4.48,4.48,0,0,1,396.7,234h0a4.4,4.4,0,0,1-2.17.57h0A4.49,4.49,0,0,1,390.58,232.23Zm411.69,1.18h0a4.5,4.5,0,0,1-1.75-6.12h0a4.47,4.47,0,0,1,6.1-1.75h0a4.48,4.48,0,0,1,1.77,6.1h0a4.51,4.51,0,0,1-3.94,2.33h0A4.51,4.51,0,0,1,802.27,233.41Zm-391.86-11.8a4.48,4.48,0,0,1,2.06-6h0a4.51,4.51,0,0,1,6,2.05h0a4.51,4.51,0,0,1-2.07,6h0a4.54,4.54,0,0,1-2,.45h0A4.49,4.49,0,0,1,410.41,221.61Zm372.05,1.53a4.49,4.49,0,0,1-2.07-6h0a4.49,4.49,0,0,1,6-2.08h0a4.49,4.49,0,0,1,2.08,6h0a4.48,4.48,0,0,1-4,2.54h0A4.61,4.61,0,0,1,782.46,223.14ZM430.75,212.07a4.52,4.52,0,0,1,2.4-5.91h0a4.52,4.52,0,0,1,5.9,2.38h0a4.48,4.48,0,0,1-2.39,5.9h0a4.49,4.49,0,0,1-1.75.36h0A4.53,4.53,0,0,1,430.75,212.07Zm331.38,1.87h0a4.47,4.47,0,0,1-2.39-5.89h0a4.46,4.46,0,0,1,5.88-2.4h0a4.5,4.5,0,0,1,2.41,5.88h0a4.52,4.52,0,0,1-4.15,2.76h0A4.31,4.31,0,0,1,762.13,213.94ZM451.59,203.62a4.51,4.51,0,0,1,2.7-5.77h0a4.5,4.5,0,0,1,5.76,2.7h0a4.49,4.49,0,0,1-2.7,5.76h0a4.36,4.36,0,0,1-1.53.29h0A4.5,4.5,0,0,1,451.59,203.62Zm289.74,2.23a4.51,4.51,0,0,1-2.71-5.77h0a4.49,4.49,0,0,1,5.76-2.71h0a4.51,4.51,0,0,1,2.71,5.76h0a4.53,4.53,0,0,1-4.25,3h0A4.7,4.7,0,0,1,741.33,205.85Zm-268.44-9.56a4.48,4.48,0,0,1,3-5.61h0a4.49,4.49,0,0,1,5.61,3h0a4.5,4.5,0,0,1-3,5.61h0a4.56,4.56,0,0,1-1.31.19h0A4.5,4.5,0,0,1,472.89,196.29Zm247.27,2.59a4.5,4.5,0,0,1-3-5.59h0a4.52,4.52,0,0,1,5.62-3h0a4.51,4.51,0,0,1,3,5.61h0a4.5,4.5,0,0,1-4.31,3.21h0A4.18,4.18,0,0,1,720.16,198.88Zm-225.61-8.77a4.5,4.5,0,0,1,3.3-5.45h0a4.5,4.5,0,0,1,5.43,3.31h0a4.5,4.5,0,0,1-3.3,5.44h0a4.39,4.39,0,0,1-1.07.12h0A4.48,4.48,0,0,1,494.55,190.11Zm204.1,3h0a4.5,4.5,0,0,1-3.31-5.43h0a4.5,4.5,0,0,1,5.43-3.32h0a4.49,4.49,0,0,1,3.31,5.43h0a4.48,4.48,0,0,1-4.36,3.44h0A4.34,4.34,0,0,1,698.65,193.08Zm-182.16-8a4.53,4.53,0,0,1,3.59-5.27h0a4.54,4.54,0,0,1,5.27,3.59h0a4.52,4.52,0,0,1-3.59,5.27h0a6.2,6.2,0,0,1-.84.07h0A4.51,4.51,0,0,1,516.49,185.1Zm160.37,3.33h0a4.51,4.51,0,0,1-3.6-5.25h0a4.5,4.5,0,0,1,5.25-3.6h0a4.5,4.5,0,0,1,3.6,5.25h0a4.51,4.51,0,0,1-4.43,3.67h0A5.79,5.79,0,0,1,676.86,188.43Zm-138.17-7.16a4.51,4.51,0,0,1,3.86-5.07h0v0h0a4.51,4.51,0,0,1,5.07,3.85h0a4.52,4.52,0,0,1-3.87,5.06h0a4,4,0,0,1-.6,0h0A4.51,4.51,0,0,1,538.69,181.27ZM654.85,185a4.48,4.48,0,0,1-3.86-5h0a4.49,4.49,0,0,1,5-3.89h0a4.51,4.51,0,0,1,3.89,5h0a4.5,4.5,0,0,1-4.46,3.92h0A4.09,4.09,0,0,1,654.85,185Zm-93.79-6.32a4.51,4.51,0,0,1,4.13-4.86h0a4.51,4.51,0,0,1,4.84,4.14h0a4.52,4.52,0,0,1-4.13,4.85h-.36A4.49,4.49,0,0,1,561.06,178.63Zm71.64,4a4.51,4.51,0,0,1-4.14-4.83h0a4.49,4.49,0,0,1,4.83-4.14h0a4.49,4.49,0,0,1,4.14,4.83h0a4.49,4.49,0,0,1-4.48,4.15h-.35Zm-49.17-5.46a4.5,4.5,0,0,1,4.38-4.62h0a4.5,4.5,0,0,1,4.62,4.36h0a4.5,4.5,0,0,1-4.38,4.62H588A4.5,4.5,0,0,1,583.53,177.18Zm26.91,4.33h0a4.5,4.5,0,0,1-4.38-4.6h0a4.5,4.5,0,0,1,4.6-4.4h0a4.51,4.51,0,0,1,4.4,4.61h0a4.5,4.5,0,0,1-4.5,4.39h-.12Z"/><g class="cls-4"><circle class="cls-5" cx="599.74" cy="614.03" r="229.97" transform="translate(-258.52 603.92) rotate(-45)"/></g><circle class="cls-6" cx="599.74" cy="600.26" r="229.97" transform="translate(-248.79 599.89) rotate(-45)"/><g id="path3924" class="cls-4"><circle class="cls-5" cx="599.97" cy="611.85" r="148.86" transform="translate(-256.92 603.45) rotate(-45)"/></g><g id="path3924-2" data-name="path3924"><circle class="cls-7" cx="599.97" cy="600.38" r="148.86" transform="translate(-248.81 600.09) rotate(-45)"/></g><g id="path3089"><path class="cls-3" d="M599.72,451.28a150.48,150.48,0,0,0-17.73,1l1.66.22a27.8,27.8,0,0,1,4,2.09c.58.58.42,2.32.22,3.29s-.76,1.15-1.53,2.31,1.53.56,1.53.56l2.69,1.35a14.89,14.89,0,0,0-1.94.22c-1.16.19-2.69.56-2.69.56l-.19,2.13,3.85-.79-.37,1.35-2.69.59-2.73,3.26-.18,6.16.59,5.22,1.53,4.22,2.51.41,2.87,1.72L595,487l3.85-5.19,4-3.88,1.16-2.09,1.94-1.16,4.22-1,5.38-1.16,5.6-3.66c.57-.38,14.45-4.62,14.45-4.62l3.06.18s.8-3.83.22-4.22,2.29-2.69,2.29-2.69l.53-.25a149.21,149.21,0,0,0-42-6ZM555.15,458a148.16,148.16,0,0,0-20.86,8.32l-.22.5L532,468l-2.6,1.94-2.22.84-.16-.59a149.24,149.24,0,0,0-20.89,14.13c3.32-1.65,9-4.56,9-4.56l1.34-1.44,2.22-.22,4.82-2.19,3.66-2.5.38.19-2.79,2.59-.75,1-2.22,1.07,2,.28-.28,1.15,2.22-.4,2.22-1.82,1.72.6.78.84,2.41-.09-.09-1.82L529,474.26l-.88-.84-.38-1,1.63.19,1.35,1.15,1.43-1.43L535,472l2.88-2-.19-1.25,2.22-2.13L538.48,465l3.88-.1,3.35.1s1.65-.76,1.94-.28a23.44,23.44,0,0,0,2.78,2.31l-1,.84-3.94.5-1,1.91,2.91.41,2.19-2.32,2.41-.18.4,2.28s-2.71,1.56-3.09,1.66-2,.84-2,.84l-.13,1.75-2.59.29-2.69-.47-1.26.09-2,1.63,1.66,1.43a28.15,28.15,0,0,0,2.78-1.25c.39-.28,1.66-.86,1.94-.37a15.16,15.16,0,0,0,1.91,1.81l1.34,2.63,1.26.38,3.84,1.25a15.05,15.05,0,0,1,2.72.87c0,.2-.28-1.66-.28-1.66l-2-2.4s-.1-.66.56-.47a11.12,11.12,0,0,1,2.32,1.62c.28.1,2.22,1.25,2.22,1.25l.78-2.09,1.72-1.06-.66-1.26-1-1.06-1.06-1.25.09-1.44s.28-.22.57-.41,1.18-.84,1.37-.46,2.1,2.87,2.1,2.87l1.84.41.85-1.47A19.56,19.56,0,0,1,568,474c0,.1.18-1.16.18-1.16l2.22-.56-3.15-2.81-1.76-.85-1.34.38-1.25-1.44,1.34-1.25.6-1.75L563.25,463l-2.4-.47-.6-1.25a8.82,8.82,0,0,0-2.31-.09c-.29.2-1.72-1.75-1.72-1.75L555.15,458Zm79.16,14.33-3.47,1.93a24.33,24.33,0,0,1,2.32,1.13c.57.39,1.72-.37,1.72-.37v1.75s3.08,1.7,2.69,2.28,5-.56,5-.56l5.38-1.75,1.16-2.1L647,472.92l-9.82,1.16Zm52,6.59c-.87.28-1.79.6-1.79.6L682,482s-.65,1.21-.78,1.53a29.68,29.68,0,0,0,.18,3.72s1.55,0,1.1.47-.38,2.5-.38,2.5l1.79,1.19a17.27,17.27,0,0,0,2.72.72,10.53,10.53,0,0,0,1.65-1c.18-.12,1.59-1.53,2-1.47s1.62-1.21,1.75-.75a14.77,14.77,0,0,0,.62,2.44,9.92,9.92,0,0,1,1.57,2c.38.9.88,1.82.75,2s-1,1.07-1,1.07a8.18,8.18,0,0,0-2.16.53c-.26.25-.59.38-.78.25s.65-1,.84-1.28-.46-1.29-.72-1.22-.5-.56-.25-.75.19-1.44.19-1.44-.37-.2-.56-.13l-2.44,1a12.33,12.33,0,0,0-1.29,1.53,4.74,4.74,0,0,0-.28,2.57,25.13,25.13,0,0,0,1.1,2.53s.84.56.53.82a8.24,8.24,0,0,0-1,1.22l-1.53.06s-2.78.34-3,.47-2.93,1-2.81,1.22a17.66,17.66,0,0,1-.6,3,28.9,28.9,0,0,1-3.12,2c-.32,0-2.32.5-2.32.5a18.78,18.78,0,0,1-1,2.25,25.61,25.61,0,0,0-3,1.41s-2.25-.65-2.31-.91-.85-.82-.91-.62.78,2.18.78,2.56.13,1.16-.12.91a11,11,0,0,0-1.82-.78,16,16,0,0,0-2.44-.06H662s-1.1,1-1.16.78a7.68,7.68,0,0,0-.13.81l.66.66,2.31,1,2.19,1.34.82,2,1,1.94s-.64,4-.75,4.16a17.69,17.69,0,0,1-1.51,1.1l-4.16-.06s-2.06-.44-2.25-.5-3.1.38-3.16.12-1-.19-1-.19l-.43-.53H653.3l-1,1.1-1.41.06V529s.6,2.63.53,2.44-.28,3.09-.28,3.09-1.36,2.79-1.5,3c0,.09-.09,1.88-.09,1.88l.84,1.35.13,1.59s-.64,1.47-.38,1.35,2.29.06,2.35-.19,1.31-.82,1.5-.38.89,0,1.09.75a11.5,11.5,0,0,0,1,2.07c.07.2.57.37.57.37l.18.53-.37.32-1.6,3.59-3.56,2.51-2.1,1.34-.59,1.6-.88,1-.28,2a16.9,16.9,0,0,1,.13,2.63l-4.79,4.56-2.6.57-1.4,2.44a21.23,21.23,0,0,0-2,2.12,14.81,14.81,0,0,1-1.09,1.54s.06,2.57,0,2.18-2.78,2.13-2.78,2.13-.5,2.93-.63,3.07-1.4,2.38-1.6,2.31-.4,1.56-.4,1.81.66,1,.66,1,.9,1.75,1,1.56a3.67,3.67,0,0,1,.07.56l-.91.91a12.82,12.82,0,0,1,1,1.66v4l-1,2.19-.53,2.84-1.54,1.22.07.76,1.34,1.09.22,1.22-.41,1.34v1.35l1,2.25s1,.79,1.16.6,2.12,1.21,2.38,1.65,2.62,3.28,2.62,3.41a4,4,0,0,0,.38.75l1.16,3.94s5.59,4.6,5.72,4.41,6,4.19,6,4.19,4.7-2.32,4.63-2.12a28.27,28.27,0,0,0,4-.19l2.44.38,1.79.84,6.57-3,1.28-1,5.06-.19,2.44,1a17.59,17.59,0,0,1,1.6,2.75c0,.39,1,2.14,1.09,1.88s5.72-.5,5.91-.44,2.63,2.44,2.63,2.44l-.12,2.25-.38,4-.78,1.91-.75,1.75-.22,1.22s5.79,8.48,5.79,8.54S694.9,653,694.9,653l1.75,4.41,1,2.5-1,1.4,1.66,4.32-.57,4.22-2.5,5.48-1.09,4,.31,5.41,3,6.23,3.16,7.13.31,7.82,1.44,2.69A148.69,148.69,0,0,0,748.85,600.4a151.92,151.92,0,0,0-1.5-21.14l-2.13-3.88s-2.43-6-2.69-6.35-1.22-1.94-.91-1.88a23.11,23.11,0,0,0,2.63-.25l1.09,1.32q-1.23-5.65-2.87-11.14a1.68,1.68,0,0,1-.6.79c-.77.48-1.92,1.13-2.59.65s-3.4-.38-3.69-.28-3.56-.11-3.94.56-2.86.2-3.26,0-5.12-2.09-5.5-2.19a23.52,23.52,0,0,1-3.19-1.43c-.39-.3-2.79-.59-2.88-.88s.2-.69-.19-.59a24.39,24.39,0,0,0-3.56,1.25c-.39.3-1.25,1.06-1.25,1.06s-1.16,1.17-1.07,2,1.17,1.56.79,2a6.08,6.08,0,0,1-1.72,1,14.06,14.06,0,0,0-1.94-1.53c-.49-.2-5-.88-5-.88l-1.84-2.1s-2.87-1.93-3.16-2-3.49,0-4-.37-2-2.42-2.79-2.32-.47-1.15-.19-1.34a5.05,5.05,0,0,0,1.07-2.13c-.1-.29.49-1.93-.47-2.41s-.31-2.13-.31-2.13,1-.18.59-.18-1.83.1-2.22-.38-.5-.69-.88-.5a11.55,11.55,0,0,1-3.06.5c-.29-.09-2.62.19-3,.19s.1.1-.38,0a4.3,4.3,0,0,0-2.5,1.16c-.09.38-2-.09-2.32,0s-3.09.09-3.09.09l-4.6.78s-3.09,1.56-3.19,2-1.06,1.25-1.34,1.43-2,0-2.13-.31-3.19.13-3.19.13-1.24-.7-1.63-.41-.37-1.25-.37-1.25l.47-1.16,1.75-1.16,4.13-.75,2-1.34,1.25-.5.75-2s1.44-.3,1.34-.6-.46-1.62-.46-1.62l2.78-4.35,4-1.91.66-1.38s-.38-1.7-.1-2a15.48,15.48,0,0,1,2.88-.87l3.29,1.06s1.74-1.15,2.12-1.34S687,526,687,526s.18-.87.57-.78,2-.27,2.22.5a22.49,22.49,0,0,0,1.62,3.16l2.22,2.32,2.13,1.65,2.6.94a17.3,17.3,0,0,0,1.81,1.44A14.37,14.37,0,0,1,701.9,537l.75,1.35a9.3,9.3,0,0,1-.84,1.53c-.39.48-1.56,1.73-1.85,1.63s-2.5-.47-2.5-.47l-2.41.28a.76.76,0,0,0,.28,1.06c.68.48,1.46.4,2.13.78s2.41,1.16,2.41,1.16,1.16.18,1.16.47.37-.77.28-1.44-.18-1.52.5-1.72,1.72,0,1.72-.31a1.36,1.36,0,0,1,.31-.66l.85-1.06-.1-.66.88-.69s-.49-.57-.88-1.06-.78-.77-.5-1.25,1.26-1.17,1.75-.78,1.94.58,1.85,1.06,0,1.16.19.78A7.62,7.62,0,0,0,708,535s-.76-1.06-1.44-1.15a21.25,21.25,0,0,1-2.91-1.16c-.48-.19-1.34-.66-1.34-.66s.38-1.06-.19-1-2.31-.18-2.31-.47-1.73-1.65-1.82-1.94-1.66-2.4-1.66-2.4a6.51,6.51,0,0,1-.93-1.16c-.1-.29-.22-.77-.41-1.53s1.94-2.7,1.84-2.41.49.67.88,1.53,1.9,2.33,2.1,2.91a9.57,9.57,0,0,0,2.78,2.38c.49.19.78.77,1.75,1.15s.88.58,2.13,1.16,1.44.78,1.62,1.06,1,.21,1.25.69.69.59.69,1.07.39.47.19,1.43-.47,1.25-.37,1.44,1.82,3.76,2.5,3.76,2.66.78,2.37,1.94,1.26,2.69,1.26,2.69,1.29.07,2.18.21c0-.67-.1-1.75.63-2.15s2.1-1,1.91-1.44a3.81,3.81,0,0,0-1.16-1.91c-.76-.58-1.53-.89-1.72-1.85s-.49-2.23.38-1.84,1.64,2.23,2,1,1.33-2.11,2-1.82,1.94.78,1.85,1.16a22.15,22.15,0,0,0,.87,3.47s.37.28.56,1.72,1.44,1.84,1.26,2.32-.77.77.78,1,3,.46,3,.84,1.28.59,1.47.88,1.34.85,1.53.28.59-1.73.88-1.53,2.68.19,2.87,1c.15.57,1.1.72,1.57.84-1.71-4.41-3.65-8.72-5.76-12.92l-3.41-.84-2.12-1.06-1.16-1.26h1.06l-.37-1.53.19-1.06.93-.56.47-1.85a149.62,149.62,0,0,0-19.26-26c-.42.23-1.21.79-1.5.91s-1.28.51-1.47.06-.6-1.16-.6-1.16-.3-.63-.44-.44-.84.25-.84.25l-1.66.63-1.09.78c-.2.13-1.15.12-1.54.31s-1.55,1.17-1.87.72-.51.3-.91-.4-.23-1.48-.69-1.35-1.47.4-1.59.66-.29.24-.53.5a8.37,8.37,0,0,1-2.13.47v-.16l2.13-1.78.46-1.75s2,.33,2,.59.53-.58,1-.12,1.15.39,1.22.78.44.82.5.56a8.43,8.43,0,0,0,.06-1.09s-.55-.3-.87-.5a.61.61,0,0,1,.06-1c.32-.2,1.21-.73,1.47-.54s1.41-.25,1.41-.25a5.84,5.84,0,0,1,.31-.56c.13-.2.78-1.94.78-1.94a1.11,1.11,0,0,1-.59-.78,1,1,0,0,1,0-.44A150.5,150.5,0,0,0,686.29,479Zm-143.84,1.88-.88.88-6.35-.6L533,485l-.47,2s-3.48,3.49-3.91,3.76c.26-.08,1.88,1.53,1.88,1.53l-1.44,3.47-5.5,3.19-2.69.38s-1.63,6-1.54,6.34-2.22,1.44-2.22,1.44l-1.62,1.16-.69-2.09s-.74-1.63-1-2a13.92,13.92,0,0,0,2,.38l.28-1.35-1.53.1.65-2.22,1.47-2.41-5-.38-1.13-1.34-2.53-.38-.19-1.06-1.72-1.06-2.13-1-2.31.28-.09-2,.56-1.94-2-.35a148.77,148.77,0,0,0-49.45,108.31l2.34.57,3.79-1.16,2.41,1.16,3.66,4.22,3.75,1,3.85,1.34h1.81l.5,2.22a30.86,30.86,0,0,0,2.13,2.5c.38.29.09,2.79.09,2.79l1.63.87,1.91,2,1.25,1.15,1.37,1.54.85-.6,1.75.5,2.5,2.32,1.63-1-.47-1.85,1.53-1.53h1.35l1.43,1.16-.09,1.34,1.75,2.79.1,7.81-1.57,2.51-2.09,1.44-.1,2.31-2.22.88-.87,3.06-1.35,2.69.28,2.31,1.94,1.76-1.75,1.81-1.25,1.85,1.16,3.65a15.15,15.15,0,0,0,.56,1.63c0-.19,1.85,1.25,1.85,1.25l3.37,6.73,3.26,4.75s4.78,9.56,4.88,9.63c1.43,1.06,11.88,8.6,11.88,8.6l1.81,9.39.5,19.76,1.54,5.67-.16,2.59a148.92,148.92,0,0,0,25.93,14.33c.78,0,2.22.15,2.22.15l4.38-1.16s1.66-3,1.53-3.47a15.27,15.27,0,0,1-.12-2.19,1.29,1.29,0,0,0-1-1.28c-1-.12-1-.49-1.28-1.53a8.86,8.86,0,0,0-1-2.19l-1.28.25,1.15-1.13,2.57,1.91,3.85.66,3-3,2-5,.91-3.72h1.94l2-3.72.78-3.47-.66-4.26.91-1.53,6.69-4.47,5-1.69,1.66-1.28a33,33,0,0,0,2.56-3.85c0-.38,1-5.38,1-5.38s1.17-5.9,1-6.28.27-5.54,0-5.67.13-1.53.13-1.53l4.88-6.94,2.31-5.26s1.67-2.71,1.41-3.22-1.66-4.88-1.66-4.88-3.08-.64-3.22-1a48.09,48.09,0,0,0-5.5-4.88c-.14.13-2.18-2.06-2.44-1.41s-4.26.66-4.26.66l-4.22-1s-1.79,1.27-1.41.75.13-3.58,0-3.07-6.44-2.69-6.44-2.69l-2.19,1.91v-2.44l-3.31-2,.37-2.72-1.53-1.28s-.25.38-.38.12-1-5.38-1-5.38l-4.88-4-5.91-.28-5.41-2.94L535,618S532,616.58,532,616.2s-.89-.12-1.16-.26-.12-1.4-.12-1.4l-1.41-1.16-.53-.34-1.25-.38-.75-1.09s2.79-1.23,2.5-1.13-6.26.94-6.26.94l-.59,1.16-2.79-1.44-4.72-.28s-3.38-1.34-3.28-1.72-1.07-1.85-1.07-1.85a17.65,17.65,0,0,1-.93,2c-.19.19-2.6,2.19-2.6,2.19l.19,3.1-1.66-1.72,1.16-1.66v-2.31c0-.3,1.47-.94,1.47-.94l-.6-1.25s-1.72.46-1.72.75-2.31,1.66-2.31,1.66l-2.82,1h-1.22a12.63,12.63,0,0,1-1.56,2.12c-.29.1-.19,1.94-.19,1.94s-3.09,3.45-3.28,3.07a45,45,0,0,0-3.44-3.07l-3.88.47L485,615.82,482.25,614l-2.1-3.29.19-3.85,1.16-4.25.47-2.78-2.88-2.13s-5.88.48-5.88.19-3.2.11-3.1-.19a24.16,24.16,0,0,0,1.16-2.41c0-.29.78-2.5.78-2.5l1.25-2.5,1.63-4.79,1-1.65-4.82-.29-2.87,1.16-1.63,4.82-8.19,2.19-2-1.54s-.19.89-.09.41-2.5-3.88-2.5-3.88L452.51,582s3.29-9.74,3.19-9.54.09-3.56.09-3.56l10.29-6.76,3.94.6,1,.93,2.41-.37,2.41-2.41,3.09.38,3-.57,1.85,2,2.69-1.07,1.44,1.53.87,1v1.63L488,567.4l.68,3.44,1.91,2.73,1.25.46,1.53-4.22-.28-4-.65-3.16v-2.31l3.94-4.82,5.1-3.66,4-2.31,3.57-3.85-.19-3.66,1.56-.28,1.5-3.29,1.57.19,3-3.75,5-1.72,3.1-.6,1-1-1.16-1,2.41-3.56,7.6-3,4.63-1.35-3.75,2.41.75,1.84,2.81-.78,2-1.25,5.32-1.44s.84-1.41,1-1.66c-.18.48,2.72-.46,2.72-.46l-.59-1.16.22-1.53-1.57.56-2.31,2.5-3.75-.19L540.24,519l1.62-2.22,1.53-3.07a11.77,11.77,0,0,1-2.59-.78l-3.75,1.34c-.39,0-3.95,2.14-3.85,1.85s-1.82,1.06-1.82,1.06l4.88-3.94,2-.31,2.31-2.13h11.07l3.76-.75,5-2.69.41.47-2.13,2-2.6,2.69-2.5,2.69-1.25,1.63,3.94.19s3.09.08,3.38,0,.47,1.34.47,1.34l1.62-1.12.88,2.19,2.91-2.19-.88-2.51.79-2.34-3.38.12v-1.25s-1.25-1.44-1.35-1.25,1.91-1.63,1.82-1.44-.88-1-.88-1l2.32-2.91-1.13-3.25-.41-1.66-3-1.43-1.06-1.44-1.38-1.07,1.07-2.5-.47-1.81s-.88-6-1-5.79-4,3.29-4,3.29l-4,2-2.13-1.82.19-2.41,1.84-1.75-3-.93-.19-.79s-2.68-2.69-2.87-2.5Zm124.85,7.82-.91.38-.84,1.25a2.06,2.06,0,0,1-1.1,0c-.31-.2-1,0-1.21-.07s-.85.76-.85.76a6.25,6.25,0,0,1-1.13,1,3.72,3.72,0,0,0-1.09,1.15,4.73,4.73,0,0,1,.13.91.87.87,0,0,1-.51.38c-.31.06.25,1.15.25,1.15l.79.38s-.47.47-.72.41-.86.62-.41.81.66.47.6.66,1,.31,1,.31l.82-.19-.57.91a2.91,2.91,0,0,0,.32.81c.2.26.84,0,.84,0a12.34,12.34,0,0,1,1.72-.19c.19.06-.06.66-.06.66l.59.88s.32,1.3.38,1.69-.5.25-.5.25a9.13,9.13,0,0,1-1.5.12c-.26-.06-.74.46-1.19,1s.06.31.06.31h.94s.07.64.13.91-.75.5-1,.44a5.38,5.38,0,0,0-1.43.53l.06.94,1.44.15,1.4.19.25.44s-.9.19-1.15,0-1,1-1,1l-.68.75-1.5,1.16.84.41.5-.66,1.31.06,1.38-.19s.87-1,1.06-1l2.16-.06a7.42,7.42,0,0,1,1.82-.19,13.86,13.86,0,0,0,1.65.44A24.38,24.38,0,0,0,673,509s.53-.84.66-1.09-.72-.5-.91-.69.65-.47,1-.66.52-.9.71-1.22-.28-1-.34-1.15-1-.13-1.22-.19a7.22,7.22,0,0,0-1.34.06l.06-1.28s-3-4.13-2.94-4.32a2.85,2.85,0,0,0-1-1.47,2,2,0,0,1-1.1-.84c-.38-.51.53-1.16.53-1.16a16.4,16.4,0,0,0,1.19-1.41,1.24,1.24,0,0,0-.31-1.09c-.2-.06-2.44.06-2.44.06s-.62-.5-.56-.69.71-.25.9-.25,1.34-2.25,1.6-2.31-.19-.66-.19-.66ZM656.9,498l-1,.32-.56.84-.78.81c.2-.18.71-.16.59.16a1.86,1.86,0,0,1-.65.63h-.75l-.66-.38-1,.13-.31.56.37.91-.62.65.75.63.78.19-.13.9-.84.38-1.1.72-.31,1.22,1,.56,1.53.34,1.6-.4,1.38-.75.37-.38,2.25-.16L659,505l.5-1v-2.79l1.22-.68-.37-1.79-1.94-.47L656.9,498ZM484.56,579.54a37.27,37.27,0,0,0-3.28,2.6v.28s.3,1.33.41,1.62,2.21-1.54,2.4-2.31,1.72-1,2.1-1.16.58.78,1,.78a15.21,15.21,0,0,1,2.13.6l3.47,1.12,1.34,1.25s.57,3.08.57,3.48,2.62.18,2.62.18l5.1-.47s1.64-1,1.53-1.25a4.07,4.07,0,0,0-2.31-.75c-.77,0-3.57-2.7-3.75-3.28s-6.45-2.13-6.45-2.13-6.85-.37-6.85-.56Zm22,7.79c-.76,0,0,.87,0,.87l-.28,2.79h-3.19l-.1.28s-.87.3-.87.87,1.17.37,1.66.57,1.23-.1,1.62-.1a14.15,14.15,0,0,0,1.66-.28,5.36,5.36,0,0,1,.38,1.16c0,.28,2-.09,2-.38a3.62,3.62,0,0,1,.5-1.06l2.41-.5,3.56.09c.29,0,.49-.56-.09-1.62s-2.24-1.26-2.63-2-2.21-.27-2.69,0-3.17-.65-3.94-.65Z"/></g><path class="cls-8" d="M794.66,609.45H776.31a3.45,3.45,0,1,1,0-6.89h18.35a3.45,3.45,0,0,1,0,6.89Zm-32.12,0A3.45,3.45,0,1,1,766,606,3.45,3.45,0,0,1,762.54,609.45Zm-13.77,0H698.3a3.45,3.45,0,0,1,0-6.89h50.47a3.45,3.45,0,1,1,0,6.89Zm-64.24,0h-13a3.45,3.45,0,0,1,0-6.89h13a3.45,3.45,0,1,1,0,6.89Z"/><path class="cls-8" d="M512.78,622.44H501.31a3.44,3.44,0,1,1,0-6.88h11.47a3.44,3.44,0,0,1,0,6.88Zm-25.24,0H414a3.44,3.44,0,1,1,0-6.88h73.58a3.44,3.44,0,0,1,0,6.88Z"/><path class="cls-8" d="M760.32,586.51H742a3.45,3.45,0,0,1,0-6.89h18.36a3.45,3.45,0,0,1,0,6.89Zm-32.12,0a3.45,3.45,0,1,1,3.44-3.45A3.44,3.44,0,0,1,728.2,586.51Z"/><path class="cls-8" d="M733.14,648.46H721.67a3.45,3.45,0,0,1,0-6.89h11.47a3.45,3.45,0,0,1,0,6.89Zm-25.24,0H645.12a3.45,3.45,0,0,1,0-6.89H707.9a3.45,3.45,0,0,1,0,6.89Z"/><path class="cls-8" d="M476.47,655H458.11a3.45,3.45,0,0,1,0-6.89h18.36a3.45,3.45,0,0,1,0,6.89Zm-32.12,0a3.45,3.45,0,1,1,3.42-3.45A3.44,3.44,0,0,1,444.35,655Z"/><path class="cls-8" d="M528.84,587.15H510.49a3.44,3.44,0,0,1,0-6.88h18.35a3.44,3.44,0,1,1,0,6.88Zm-32.12,0a3.44,3.44,0,1,1,3.45-3.44A3.44,3.44,0,0,1,496.72,587.15Zm-13.76,0H440.81a3.44,3.44,0,0,1,0-6.88H483a3.44,3.44,0,0,1,0,6.88Z"/><path class="cls-9" d="M737.58,711.85l-17.53,42,20.42-12.07,16.1-38.61C752,701.32,741.46,702.55,737.58,711.85Z"/><path class="cls-10" d="M746.58,704.06l-18.45,44.23,20.43-12.08,17-40.8C761,693.52,750.46,694.75,746.58,704.06Z"/><path class="cls-8" d="M755.58,696.26l-16.77,40.22-75.07,44.39a5.7,5.7,0,0,1-7.78-2l-.29-.48a5.7,5.7,0,0,1,2-7.78l22-13,8-4.74c8.68-5.14,8.44-15.78,5.94-20l-21.19,12.53L625.71,773a8.91,8.91,0,0,0-4.32,8.57l-.09.06-.15,47.59a228.5,228.5,0,0,0,65.44-16l-5.23-19.37L743.75,757a8.9,8.9,0,0,0,4-5.06h0l26.83-64.32C770,685.72,759.46,687,755.58,696.26Z"/><path class="cls-9" d="M463.09,711.85l17.54,42-20.42-12.07L444.1,703.21C448.64,701.32,459.21,702.55,463.09,711.85Z"/><path class="cls-10" d="M454.1,704.06l18.44,44.23-20.42-12.08-17-40.8C439.64,693.52,450.22,694.75,454.1,704.06Z"/><path class="cls-8" d="M579.53,829.34l-.15-47.7-.09-.06A8.9,8.9,0,0,0,575,773l-46.72-27.63-21.19-12.53c-2.5,4.23-2.74,14.87,5.94,20l8,4.74,22,13a5.7,5.7,0,0,1,2,7.78l-.29.48a5.7,5.7,0,0,1-7.78,2l-75.07-44.39L445.1,696.26c-3.88-9.3-14.46-10.54-19-8.64l26.83,64.32h0a8.9,8.9,0,0,0,4,5.06l62.38,36.89L514,813.69A228.43,228.43,0,0,0,579.53,829.34Z"/><g class="cls-4"><path class="cls-5" d="M646.71,459.05a32.09,32.09,0,0,0-9.38,22.7,23,23,0,0,0-22.09,29.44H719.16A149.12,149.12,0,0,0,646.71,459.05Z"/></g><path class="cls-8" d="M756.29,503.54a16.84,16.84,0,0,0-22.38-15.3,23,23,0,0,0-21.24-14.15,22.51,22.51,0,0,0-3.31.27c0-.09,0-.18,0-.27a32.19,32.19,0,0,0-64.38,0,23,23,0,0,0-22.09,29.45Z"/><g class="cls-4"><path class="cls-5" d="M467.59,532.32h72.56c0-.25,0-.5,0-.76a16.81,16.81,0,0,0-15.7-16.77A24,24,0,0,0,504,486.66,149.42,149.42,0,0,0,467.59,532.32Z"/></g><path class="cls-8" d="M534.31,526.48c0-.26,0-.51,0-.77A16.81,16.81,0,0,0,518.65,509a24.08,24.08,0,1,0-47.66-6.7,21.31,21.31,0,0,0-5.09-.63,21.8,21.8,0,0,0-21.8,21.8,22,22,0,0,0,.24,3.06Z"/><path class="cls-8" d="M765.57,658.1a2.29,2.29,0,0,1-2.29-2.29v-13a2.3,2.3,0,0,1,4.59,0v13A2.3,2.3,0,0,1,765.57,658.1Z"/><path class="cls-8" d="M772.08,651.59h-13a2.29,2.29,0,1,1,0-4.58h13a2.29,2.29,0,0,1,0,4.58Z"/><path class="cls-8" d="M617.9,440.49a2.29,2.29,0,0,1-2.29-2.3V418.37a2.29,2.29,0,0,1,4.58,0v19.82A2.29,2.29,0,0,1,617.9,440.49Z"/><path class="cls-8" d="M627.81,430.58H608a2.3,2.3,0,1,1,0-4.59h19.82a2.3,2.3,0,0,1,0,4.59Z"/><path class="cls-8" d="M423.3,567.57a3.44,3.44,0,0,1-3.45-3.44V538.89a3.45,3.45,0,0,1,6.89,0v25.24A3.44,3.44,0,0,1,423.3,567.57Z"/><path class="cls-8" d="M435.92,555H410.67a3.44,3.44,0,1,1,0-6.88h25.25a3.44,3.44,0,1,1,0,6.88Z"/><g class="cls-4"><circle class="cls-5" cx="899.35" cy="906.08" r="112.5"/></g><circle class="cls-6" cx="899.35" cy="899.35" r="112.5"/><rect class="cls-7" x="829.43" y="945.68" width="139.87" height="5.02" rx="2.49"/><rect class="cls-7" x="976.54" y="945.68" width="5.09" height="5.02" rx="2.49"/><rect class="cls-7" x="810.09" y="945.68" width="15.19" height="5.02" rx="2.49"/><rect class="cls-7" x="928.14" y="965.88" width="38.76" height="5.02" rx="2.49"/><rect class="cls-7" x="941.61" y="983.84" width="7.34" height="5.02" rx="2.49"/><rect class="cls-7" x="827.32" y="965.88" width="7.34" height="5.02" rx="2.49"/><rect class="cls-7" x="849.04" y="983.84" width="87.02" height="5.02" rx="2.49"/><rect class="cls-7" x="838.94" y="965.88" width="82.53" height="5.02" rx="2.49"/><path class="cls-3" d="M856.24,888.91a29.64,29.64,0,1,0,29.64,29.64A29.67,29.67,0,0,0,856.24,888.91Zm0,56.4A26.76,26.76,0,1,1,883,918.55,26.78,26.78,0,0,1,856.24,945.31Z"/><path class="cls-3" d="M947.83,888.91a29.64,29.64,0,1,0,29.64,29.64A29.68,29.68,0,0,0,947.83,888.91Zm0,56.4a26.76,26.76,0,1,1,26.76-26.76A26.78,26.78,0,0,1,947.83,945.31Z"/><path class="cls-8" d="M948.94,917.42c-7.33-7.15-10.87-19-11.07-19.7l-8.27-36h8.12a1.59,1.59,0,0,0,0-3.17H927.61a1.59,1.59,0,0,0-1.55,1.94l2.48,10.78L886,876l-3.73-16.62a1.58,1.58,0,1,0-3.09.7L883,877.32l-28.07,40.33-.05.07-.08.14-.06.15s0,.09,0,.14a1,1,0,0,0,0,.17s0,0,0,.08v.23a.76.76,0,0,0,0,.15l0,.15a.83.83,0,0,1,0,.15l.06.14.07.13.09.13.09.12.1.1.13.12.05,0,.09.06.09.05.26.11h0a1.4,1.4,0,0,0,.28.06h0l38.46,3.77h.16a1.65,1.65,0,0,0,.31,0h0l.08,0,.18-.05,0,0,.09,0,.14-.08,0,0,.07-.07a.4.4,0,0,0,.12-.1l.06-.05h0l35.82-38.46,3.11,13.53s0,0,0,.08c.15.53,3.78,13.2,11.92,21.14a1.59,1.59,0,1,0,2.22-2.27Zm-65-35.87,8.74,39-33.59-3.29ZM895.59,919l-9-40,42.63-4.69,1.57,6.83Z"/><path class="cls-3" d="M943.86,877.32a24.3,24.3,0,0,1-3-.18,2,2,0,0,1,.54-3.93c1.81.24,7.06.42,9.5-1.71a4,4,0,0,0,1.33-3.24,5.15,5.15,0,0,0-1.52-3.93c-2.55-2.43-7.45-2.22-7.5-2.21h-5.45a2,2,0,0,1,0-4H943c.71,0,6.71-.16,10.36,3.3a9,9,0,0,1,2.77,6.81,8,8,0,0,1-2.7,6.23c-2.71,2.37-6.8,2.83-9.6,2.83Z"/><path class="cls-3" d="M877.78,861.59c-5.81,0-9.34-5.11-9.49-5.33a3.11,3.11,0,0,1,5.13-3.5s1.89,2.62,4.36,2.62h13.35a3.11,3.11,0,0,1,0,6.21Z"/><path class="cls-8" d="M897.07,918.64l3.14-10.25-2.27-.69L894.79,918h-.09a4.38,4.38,0,0,0-2.37,8.06l-3.15,10.25,2.28.69,3.14-10.25h.1a4.38,4.38,0,0,0,2.37-8.06Z"/><path class="cls-3" d="M903,909.43h-7.89a1.39,1.39,0,1,1,0-2.77H903a1.39,1.39,0,1,1,0,2.77Z"/><path class="cls-3" d="M894.27,938h-7.9a1.39,1.39,0,1,1,0-2.77h7.9a1.39,1.39,0,1,1,0,2.77Z"/><path class="cls-8" d="M867.68,880.61h-9a1.68,1.68,0,1,1,0-3.36h9a1.68,1.68,0,1,1,0,3.36Zm-15.72,0a1.68,1.68,0,1,1,1.69-1.68A1.68,1.68,0,0,1,852,880.61Zm-6.73,0H820.54a1.68,1.68,0,1,1,0-3.36h24.69a1.68,1.68,0,1,1,0,3.36Z"/><path class="cls-8" d="M845,920.24h-5.61a1.69,1.69,0,0,1,0-3.37H845a1.69,1.69,0,1,1,0,3.37Zm-12.34,0H815.41a1.69,1.69,0,1,1,0-3.37h17.25a1.69,1.69,0,0,1,0,3.37Z"/><path class="cls-8" d="M824.39,901.22h-9a1.69,1.69,0,0,1,0-3.37h9a1.69,1.69,0,0,1,0,3.37Zm-15.71,0a1.69,1.69,0,1,1,0-3.37,1.69,1.69,0,0,1,0,3.37Z"/><path class="cls-8" d="M816.51,933.83a2.9,2.9,0,1,1,2.9-2.9A2.91,2.91,0,0,1,816.51,933.83Zm0-4.68a1.78,1.78,0,1,0,1.78,1.78A1.78,1.78,0,0,0,816.51,929.15Z"/><path class="cls-8" d="M982.58,937.1a2.9,2.9,0,1,1,2.9-2.9A2.9,2.9,0,0,1,982.58,937.1Zm0-4.68a1.78,1.78,0,1,0,1.77,1.78A1.78,1.78,0,0,0,982.58,932.42Z"/><path class="cls-8" d="M978.48,893.75a1.15,1.15,0,1,1-2.3,0,1.15,1.15,0,0,1,2.3,0Z"/><path class="cls-8" d="M970.41,890.6a3.93,3.93,0,1,1,3.93-3.93A3.93,3.93,0,0,1,970.41,890.6Zm0-6.74a2.81,2.81,0,1,0,2.81,2.81A2.81,2.81,0,0,0,970.41,883.86Z"/><path class="cls-8" d="M827.05,893.15a3.46,3.46,0,1,1,3.46-3.46A3.46,3.46,0,0,1,827.05,893.15Zm0-5.79a2.34,2.34,0,1,0,2.33,2.33A2.33,2.33,0,0,0,827.05,887.36Z"/><path class="cls-7" d="M874.92,842.57c0-.13,0-.25,0-.38a8.23,8.23,0,0,0-7.68-8.2,11,11,0,0,0,.2-2.08A11.78,11.78,0,0,0,844,830.72a10.23,10.23,0,0,0-2.49-.31,10.66,10.66,0,0,0-10.66,10.66,12.31,12.31,0,0,0,.11,1.5Z"/><path class="cls-7" d="M965.85,832.48a8.26,8.26,0,0,0-8.25-7.94,8.1,8.1,0,0,0-2.7.46,11.25,11.25,0,0,0-10.39-6.92,10.84,10.84,0,0,0-1.62.13c0-.05,0-.09,0-.13a15.75,15.75,0,0,0-31.5,0,11.25,11.25,0,0,0-10.8,14.4Z"/><g class="cls-4"><circle class="cls-5" cx="600" cy="184.23" r="112.5"/></g><circle class="cls-6" cx="600" cy="177.5" r="112.5"/><path class="cls-7" d="M652,148a17.44,17.44,0,1,1-34.87,0c0-12.84,17.44-33.19,17.44-33.19S652,135.13,652,148Z"/><path class="cls-7" d="M582.46,182.33a21,21,0,1,1-42,0c0-15.47,21-40,21-40S582.46,166.86,582.46,182.33Z"/><path class="cls-3" d="M533.9,244.72a1.13,1.13,0,0,1-.83-.36A101,101,0,0,1,506,176.94a92,92,0,0,1,27.12-66.34,94.35,94.35,0,0,1,121.23-10.52,1.12,1.12,0,1,1-1.29,1.83,92.13,92.13,0,0,0-118.36,10.28c-35.06,35.06-35.05,92.45,0,130.65a1.13,1.13,0,0,1-.06,1.59A1.12,1.12,0,0,1,533.9,244.72Z"/><path class="cls-3" d="M600,272.17a94.2,94.2,0,0,1-54.34-17.25,1.12,1.12,0,1,1,1.29-1.83,92.13,92.13,0,0,0,118.36-10.28c36-36,36-93.38,0-130.63a1.12,1.12,0,0,1,1.62-1.56,96.63,96.63,0,0,1,27.46,67.11,93.16,93.16,0,0,1-27.48,66.66A94.4,94.4,0,0,1,600,272.17Z"/><path class="cls-3" d="M666.1,126.44a1.12,1.12,0,0,1-1.12-1.12V111.4a1.12,1.12,0,0,1,1.12-1.12H680a1.12,1.12,0,1,1,0,2.24h-12.8v12.8A1.12,1.12,0,0,1,666.1,126.44Z"/><path class="cls-3" d="M533.9,244.72H520a1.12,1.12,0,0,1,0-2.24h12.8v-12.8a1.12,1.12,0,0,1,2.24,0V243.6A1.12,1.12,0,0,1,533.9,244.72Z"/><path class="cls-6" d="M600,242.71a41.54,41.54,0,0,1-41.49-41.5c0-28.91,37.18-72.64,38.77-74.49l2.72-3.17,2.72,3.17c1.59,1.85,38.77,45.58,38.77,74.49A41.54,41.54,0,0,1,600,242.71Z"/><g class="cls-4"><path class="cls-5" d="M637.91,205.7a37.91,37.91,0,1,1-75.82,0c0-27.91,37.91-72.15,37.91-72.15S637.91,177.79,637.91,205.7Z"/></g><path class="cls-8" d="M637.91,201.21a37.91,37.91,0,1,1-75.82,0c0-27.91,37.91-72.15,37.91-72.15S637.91,173.3,637.91,201.21Z"/><path class="cls-7" d="M600,232.17a31,31,0,0,1-31-31,2.68,2.68,0,0,1,5.35,0,25.62,25.62,0,0,0,25.6,25.6,2.68,2.68,0,0,1,0,5.36Z"/><path class="cls-8" d="M559.21,160.46a13.39,13.39,0,1,1,9.47-3.92A13.3,13.3,0,0,1,559.21,160.46Zm0-24.54a11.15,11.15,0,1,0,7.88,3.27A11,11,0,0,0,559.21,135.92Z"/><path class="cls-8" d="M638.85,246.11a18.08,18.08,0,1,1,12.77-5.29A17.93,17.93,0,0,1,638.85,246.11Zm0-33.88A15.81,15.81,0,1,0,650,216.86,15.71,15.71,0,0,0,638.85,212.23Z"/><path class="cls-8" d="M581,124a7.89,7.89,0,1,1,5.58-2.31A7.84,7.84,0,0,1,581,124Zm0-14.67a6.76,6.76,0,1,0,4.79,2A6.77,6.77,0,0,0,581,109.37Z"/><path class="cls-8" d="M640.9,171.9a6.47,6.47,0,1,1,4.58-1.9A6.42,6.42,0,0,1,640.9,171.9Zm0-11.82a5.3,5.3,0,0,0-3.78,1.56,5.37,5.37,0,0,0,0,7.57,5.35,5.35,0,1,0,3.78-9.13Z"/><g class="cls-4"><circle class="cls-5" cx="300.86" cy="307.6" r="112.5" transform="translate(-129.38 302.84) rotate(-45)"/></g><circle class="cls-6" cx="300.86" cy="300.86" r="112.5"/><g class="cls-4"><circle class="cls-5" cx="300.86" cy="305.35" r="81.89" transform="translate(-105.51 441.82) rotate(-63.99)"/></g><circle class="cls-7" cx="300.86" cy="300.86" r="81.89" transform="translate(-75.8 498.76) rotate(-72.72)"/><g class="cls-4"><circle class="cls-5" cx="300.86" cy="304.23" r="68.96"/></g><circle class="cls-8" cx="300.86" cy="300.86" r="68.96" transform="translate(-70.03 509.37) rotate(-74.34)"/><polygon class="cls-3" points="297.94 325.38 304.14 339.66 335.13 339.66 318.64 311.11 304.14 311.11 297.94 325.38"/><polygon class="cls-6" points="289.95 325.38 296.15 311.11 283.09 311.11 250.12 311.11 266.6 339.66 296.15 339.66 289.95 325.38"/><polygon class="cls-3" points="281.07 286.04 265.61 284.27 250.12 311.11 283.09 311.11 290.34 298.55 281.07 286.04"/><polygon class="cls-6" points="285.07 279.13 294.33 291.63 300.86 280.32 317.35 251.77 284.38 251.77 269.6 277.36 285.07 279.13"/><polygon class="cls-3" points="323.58 291.11 332.84 278.6 317.35 251.77 300.86 280.32 308.12 292.88 323.58 291.11"/><polygon class="cls-6" points="327.57 298.02 312.11 299.79 318.64 311.11 335.13 339.66 351.61 311.11 336.84 285.52 327.57 298.02"/><g class="cls-4"><circle class="cls-5" cx="1023.11" cy="606.77" r="112.5"/></g><circle class="cls-6" cx="1023.11" cy="600.03" r="112.5"/><circle class="cls-7" cx="1023.11" cy="600.03" r="85.4"/><g class="cls-4"><path class="cls-5" d="M1135.61,600q0-4.34-.32-8.6l-51.79-51.79L962.73,660.42l51.78,51.79q4.26.31,8.6.32A112.5,112.5,0,0,0,1135.61,600Z"/></g><circle class="cls-8" cx="1023.11" cy="600.03" r="72.81" transform="translate(263.51 1510.97) rotate(-80.57)"/><path class="cls-6" d="M1023.11,587.12a2.8,2.8,0,0,1-2.8-2.8V543.73a2.81,2.81,0,1,1,5.61,0v40.59A2.8,2.8,0,0,1,1023.11,587.12Z"/><path class="cls-6" d="M1023.11,644.76a44.74,44.74,0,0,1-11.27-88,2.81,2.81,0,0,1,1.41,5.44,39.12,39.12,0,1,0,19.73,0,2.81,2.81,0,0,1,1.41-5.44,44.74,44.74,0,0,1-11.28,88Z"/><path class="cls-3" d="M1023.11,540.92a2.8,2.8,0,0,0-2.8,2.81V546a2.81,2.81,0,0,1,5.61,0v-2.24A2.81,2.81,0,0,0,1023.11,540.92Z"/><path class="cls-3" d="M1034.39,559a44.71,44.71,0,0,1,33.43,42.07c0-.34,0-.68,0-1a44.73,44.73,0,0,0-33.46-43.3,2.81,2.81,0,0,0-3.42,2,2.76,2.76,0,0,0,.15,1.82A2.81,2.81,0,0,1,1034.39,559Z"/><path class="cls-3" d="M1011.84,559a2.81,2.81,0,0,1,3.27,1.59,2.78,2.78,0,0,0,.15-1.83,2.81,2.81,0,0,0-3.42-2A44.74,44.74,0,0,0,978.38,600c0,.34,0,.68,0,1A44.71,44.71,0,0,1,1011.84,559Z"/><path class="cls-3" d="M984,601.05c0,.41,0,.82,0,1.23a39.12,39.12,0,0,0,78.24,0c0-.41,0-.82,0-1.23a39.11,39.11,0,0,1-78.19,0Z"/><g class="cls-4"><circle class="cls-5" cx="176.7" cy="606.73" r="112.5"/></g><circle class="cls-6" cx="176.7" cy="600" r="112.5"/><path class="cls-7" d="M196.11,621.89v-.06c0-.21-.06-.42-.1-.63a.34.34,0,0,1,0-.1c0-.13-.07-.26-.11-.4a7.29,7.29,0,0,0-1-2.18h0c-.09-.14-.19-.27-.29-.4a1.92,1.92,0,0,1-.13-.17l-.2-.22c-.09-.1-.18-.21-.28-.31l-.07-.06a7.29,7.29,0,0,0-1.8-1.29l-.46-.22h0q-.33-.14-.66-.24h0c-.23-.07-.46-.13-.7-.18h0l-36.84-7.27a7.3,7.3,0,1,0-2.82,14.32l31,6.1v10.28a7.3,7.3,0,0,0,14.59,0V622.56C196.14,622.34,196.13,622.11,196.11,621.89Z"/><path class="cls-7" d="M201.4,593.38a6.84,6.84,0,0,1-1.42-.14L150.6,583.5a7.29,7.29,0,1,1,2.82-14.31l49.38,9.74a7.29,7.29,0,0,1-1.4,14.45Z"/><path class="cls-7" d="M201.4,573.9a7.59,7.59,0,0,1-1.42-.14l-30.46-6a7.29,7.29,0,0,1,2.83-14.31l30.45,6a7.29,7.29,0,0,1-1.4,14.45Z"/><path class="cls-7" d="M201.4,612.87a7.59,7.59,0,0,1-1.42-.14L150.6,603a7.29,7.29,0,1,1,2.82-14.31l49.38,9.74a7.3,7.3,0,0,1-1.4,14.46Z"/><path class="cls-8" d="M152,583.64a7.29,7.29,0,0,1-1.4-14.45L200,559.45a7.29,7.29,0,1,1,2.82,14.31l-49.38,9.74A7.68,7.68,0,0,1,152,583.64Z"/><path class="cls-8" d="M152,603.12a7.29,7.29,0,0,1-1.41-14.45L200,578.93a7.29,7.29,0,1,1,2.82,14.31L153.42,603A6.91,6.91,0,0,1,152,603.12Z"/><path class="cls-8" d="M208.55,604.16a7.3,7.3,0,0,0-8.57-5.75l-49.38,9.74h0a6.25,6.25,0,0,0-.72.17h0c-.22.07-.43.15-.64.24h0l-.27.13a8,8,0,0,0-1.4.86l-.13.1-.3.27-.23.21-.16.18c-.11.12-.22.23-.32.35l0,.05a7.4,7.4,0,0,0-1.11,1.91c-.07.18-.13.35-.19.53a.31.31,0,0,1,0,.08c-.06.21-.11.42-.16.63v0s0,.07,0,.11c0,.2-.06.39-.08.59s0,.18,0,.28,0,.28,0,.43,0,.3,0,.44,0,.18,0,.27.05.4.08.6c0,0,0,.07,0,.1h0a7.27,7.27,0,0,0,.34,1.15s0,.1.05.15a8,8,0,0,0,.48,1l.12.2a7.47,7.47,0,0,0,.63.85l.13.14a6.38,6.38,0,0,0,.79.77l0,0a7.6,7.6,0,0,0,1,.65l.07,0a7,7,0,0,0,1,.46l.2.07a7.9,7.9,0,0,0,1,.27l.15,0h0l6.51,1.28v14.71a7.3,7.3,0,1,0,14.59,0V618.83l31-6.1A7.3,7.3,0,0,0,208.55,604.16Z"/><path class="cls-8" d="M153.31,634.5v16.19a2.88,2.88,0,0,0,.59,1.74l7.54,9.8a2.83,2.83,0,0,0,2.26,1.12h26a2.84,2.84,0,0,0,2.26-1.12l7.53-9.8a2.88,2.88,0,0,0,.59-1.74V634.5a2.86,2.86,0,0,0-2.85-2.86H156.17A2.86,2.86,0,0,0,153.31,634.5Z"/><rect class="cls-8" x="162.03" y="663.35" width="29.33" height="3.37" rx="1.67"/><rect class="cls-8" x="162.03" y="666.72" width="29.33" height="3.37" rx="1.67"/><rect class="cls-8" x="162.03" y="670.08" width="29.33" height="3.37" rx="1.67"/><rect class="cls-8" x="162.03" y="673.45" width="29.33" height="3.37" rx="1.67"/><path class="cls-3" d="M178.39,680.37H175a3.54,3.54,0,0,1-2.41-1l-2.81-2.6h13.84l-2.81,2.6A3.56,3.56,0,0,1,178.39,680.37Z"/><g class="cls-4"><path class="cls-8" d="M162,675.13v0a1.67,1.67,0,0,0,1.67,1.67h26a1.66,1.66,0,0,0,1.66-1.67v0Z"/></g><g class="cls-4"><path class="cls-8" d="M162,671.77h0a1.67,1.67,0,0,0,1.67,1.67h26a1.66,1.66,0,0,0,1.66-1.67H162Z"/></g><g class="cls-4"><path class="cls-8" d="M162,668.4v0a1.66,1.66,0,0,0,1.67,1.66h26a1.66,1.66,0,0,0,1.66-1.66v0Z"/></g><g class="cls-4"><path class="cls-8" d="M162,665v0a1.67,1.67,0,0,0,1.67,1.67h26a1.66,1.66,0,0,0,1.66-1.67v0Z"/></g><g class="cls-4"><path class="cls-8" d="M153.9,652.43l7.54,9.8a2.83,2.83,0,0,0,2.26,1.12h26a2.84,2.84,0,0,0,2.26-1.12l7.53-9.8a2.88,2.88,0,0,0,.59-1.74H153.31A2.88,2.88,0,0,0,153.9,652.43Z"/></g><path class="cls-8" d="M103.76,616.64a1.69,1.69,0,0,1-1.69-1.69v-12a1.69,1.69,0,0,1,3.37,0v12A1.69,1.69,0,0,1,103.76,616.64Z"/><path class="cls-8" d="M109.78,610.62h-12a1.69,1.69,0,0,1,0-3.37h12a1.69,1.69,0,0,1,0,3.37Z"/><path class="cls-8" d="M226.73,575.3a1.13,1.13,0,0,1-1.12-1.13v-10.7a1.12,1.12,0,1,1,2.24,0v10.7A1.13,1.13,0,0,1,226.73,575.3Z"/><path class="cls-8" d="M232.08,569.94h-10.7a1.12,1.12,0,1,1,0-2.24h10.7a1.12,1.12,0,0,1,0,2.24Z"/><path class="cls-8" d="M251.25,598a1.12,1.12,0,0,1-1.12-1.12v-6.37a1.13,1.13,0,0,1,2.25,0v6.37A1.13,1.13,0,0,1,251.25,598Z"/><path class="cls-8" d="M254.44,594.77h-6.37a1.13,1.13,0,0,1,0-2.25h6.37a1.13,1.13,0,0,1,0,2.25Z"/><path class="cls-8" d="M238.28,647.8a1.69,1.69,0,0,1-1.69-1.69V634.63a1.69,1.69,0,0,1,3.37,0v11.48A1.69,1.69,0,0,1,238.28,647.8Z"/><path class="cls-8" d="M244,642.05H232.53a1.68,1.68,0,0,1,0-3.36H244a1.68,1.68,0,1,1,0,3.36Z"/><path class="cls-8" d="M120.55,655.55a1.12,1.12,0,0,1-1.12-1.12v-6.36a1.12,1.12,0,1,1,2.24,0v6.36A1.12,1.12,0,0,1,120.55,655.55Z"/><path class="cls-8" d="M123.73,652.37h-6.36a1.12,1.12,0,1,1,0-2.24h6.36a1.12,1.12,0,0,1,0,2.24Z"/><path class="cls-8" d="M125.53,583.82a1.12,1.12,0,0,1-1.12-1.12v-10a1.12,1.12,0,0,1,2.24,0v10A1.12,1.12,0,0,1,125.53,583.82Z"/><path class="cls-8" d="M130.51,578.84h-10a1.12,1.12,0,1,1,0-2.24h10a1.12,1.12,0,1,1,0,2.24Z"/><rect class="cls-7" x="138.99" y="528.4" width="4.49" height="21.7" transform="translate(-339.94 257.81) rotate(-45)"/><rect class="cls-7" x="201.31" y="537.01" width="21.7" height="4.49" transform="translate(-319.13 307.88) rotate(-44.99)"/><rect class="cls-7" x="174.46" y="513.71" width="4.49" height="21.7"/><rect class="cls-7" x="155.26" y="517.53" width="4.49" height="21.69" transform="translate(-190.13 100.43) rotate(-22.49)"/><rect class="cls-7" x="185.05" y="526.13" width="21.69" height="4.49" transform="translate(-367.23 507.18) rotate(-67.5)"/><path class="cls-8" d="M136.65,623.89a2.43,2.43,0,1,1-2.43-2.42A2.43,2.43,0,0,1,136.65,623.89Z"/><path class="cls-8" d="M223.36,614.59a2.43,2.43,0,1,1-2.43-2.43A2.43,2.43,0,0,1,223.36,614.59Z"/><g class="cls-4"><circle class="cls-5" cx="303.15" cy="909.77" r="112.5"/></g><circle class="cls-6" cx="303.15" cy="903.04" r="112.5"/><circle class="cls-8" cx="248.82" cy="844.39" r="20.93" transform="translate(-132.04 50.76) rotate(-9.22)"/><rect class="cls-7" x="276.49" y="969.21" width="84.74" height="6.73" rx="3.33"/><rect class="cls-7" x="365.15" y="969.21" width="11.78" height="6.73" rx="3.33"/><rect class="cls-7" x="235.15" y="969.21" width="36.48" height="6.73" rx="3.33"/><rect class="cls-7" x="250.26" y="981.84" width="51.07" height="6.73" rx="3.33"/><rect class="cls-7" x="305.76" y="981.84" width="53.31" height="6.73" rx="3.33"/><polygon class="cls-8" points="364.87 949.23 279.62 949.23 301.09 898.91 386.34 898.91 364.87 949.23"/><polygon class="cls-3" points="293.62 922.57 327.67 901.16 318.54 922.57 293.62 922.57"/><polygon class="cls-3" points="321.16 922.57 355.21 901.16 346.08 922.57 321.16 922.57"/><polygon class="cls-3" points="283.2 946.97 317.26 925.57 308.13 946.97 283.2 946.97"/><polygon class="cls-3" points="310.75 946.97 344.8 925.57 335.67 946.97 310.75 946.97"/><polygon class="cls-3" points="348.7 922.57 382.76 901.16 373.63 922.57 348.7 922.57"/><polygon class="cls-3" points="338.29 946.97 372.34 925.57 363.21 946.97 338.29 946.97"/><polygon class="cls-8" points="324.52 972.58 335.89 972.58 335.89 960.59 324.52 949.23 324.52 972.58"/><path class="cls-7" d="M296.72,846.07h-21a1.69,1.69,0,1,1,0-3.37h21a1.69,1.69,0,0,1,0,3.37Z"/><path class="cls-7" d="M308.76,846.07h-5.08a1.69,1.69,0,1,1,0-3.37h5.08a1.69,1.69,0,0,1,0,3.37Z"/><path class="cls-7" d="M354.24,846.07H315.29a1.69,1.69,0,0,1,0-3.37h38.95a1.69,1.69,0,0,1,0,3.37Z"/><path class="cls-7" d="M322.24,815.66a1.68,1.68,0,0,1-.65-3.24l15.21-6.3a1.68,1.68,0,1,1,1.29,3.11l-15.21,6.3A1.63,1.63,0,0,1,322.24,815.66Z"/><path class="cls-7" d="M310.31,820.6a1.68,1.68,0,0,1-.65-3.24l3.93-1.62a1.68,1.68,0,1,1,1.29,3.11L311,820.48A1.81,1.81,0,0,1,310.31,820.6Z"/><path class="cls-7" d="M273.69,835.77a1.68,1.68,0,0,1-.65-3.24l28.1-11.64a1.68,1.68,0,1,1,1.29,3.11l-28.1,11.64A1.63,1.63,0,0,1,273.69,835.77Z"/><path class="cls-7" d="M361.15,846.07h-.53a1.69,1.69,0,0,1,0-3.37h.53a1.69,1.69,0,1,1,0,3.37Z"/><path class="cls-7" d="M248.82,894a1.69,1.69,0,0,1-1.68-1.69v-21a1.69,1.69,0,0,1,3.37,0v21A1.69,1.69,0,0,1,248.82,894Z"/><path class="cls-7" d="M248.82,904.35a1.69,1.69,0,0,1-1.68-1.69v-4.15a1.69,1.69,0,1,1,3.37,0v4.15A1.69,1.69,0,0,1,248.82,904.35Z"/><path class="cls-7" d="M248.82,948.3a1.68,1.68,0,0,1-1.68-1.68V909.05a1.69,1.69,0,1,1,3.37,0v37.57A1.69,1.69,0,0,1,248.82,948.3Z"/><path class="cls-7" d="M271.58,868.83a1.68,1.68,0,0,1-1.19-.5l-3.73-3.73a1.68,1.68,0,0,1,2.38-2.38l3.73,3.73a1.69,1.69,0,0,1-1.19,2.88Z"/><path class="cls-7" d="M288,885.27a1.66,1.66,0,0,1-1.19-.49l-11.53-11.53a1.68,1.68,0,1,1,2.38-2.38l11.53,11.53a1.7,1.7,0,0,1,0,2.38A1.67,1.67,0,0,1,288,885.27Z"/><path class="cls-7" d="M293.21,890.45A1.68,1.68,0,0,1,292,890l-.55-.56a1.68,1.68,0,0,1,2.38-2.38l.56.56a1.7,1.7,0,0,1,0,2.38A1.67,1.67,0,0,1,293.21,890.45Z"/><path class="cls-7" d="M268,826.82a1.69,1.69,0,0,1-1.19-2.88l3.74-3.73a1.68,1.68,0,0,1,2.38,0,1.7,1.7,0,0,1,0,2.38l-3.74,3.73A1.68,1.68,0,0,1,268,826.82Z"/><path class="cls-7" d="M276.7,818.16a1.68,1.68,0,0,1-1.19-2.87L287,803.76a1.68,1.68,0,0,1,2.38,2.38l-11.52,11.53A1.67,1.67,0,0,1,276.7,818.16Z"/><path class="cls-7" d="M292.84,802a1.69,1.69,0,0,1-1.19-2.88l.56-.56a1.7,1.7,0,0,1,2.38,0,1.68,1.68,0,0,1,0,2.38l-.56.56A1.67,1.67,0,0,1,292.84,802Z"/><path class="cls-7" d="M204.46,890.46a1.69,1.69,0,0,1-1.19-2.88l3.73-3.73a1.68,1.68,0,1,1,2.38,2.38L205.65,890A1.68,1.68,0,0,1,204.46,890.46Z"/><path class="cls-7" d="M213.11,881.8a1.68,1.68,0,0,1-1.19-2.87l11.53-11.53a1.68,1.68,0,1,1,2.38,2.38L214.3,881.31A1.67,1.67,0,0,1,213.11,881.8Z"/><path class="cls-7" d="M229.26,865.65a1.68,1.68,0,0,1-1.19-2.87l.56-.56A1.68,1.68,0,0,1,231,864.6l-.56.56A1.67,1.67,0,0,1,229.26,865.65Z"/><path class="cls-7" d="M347,886.72a1.63,1.63,0,0,1-.64-.13l-3-1.22a1.68,1.68,0,1,1,1.29-3.11l3,1.22a1.68,1.68,0,0,1-.65,3.24Z"/><path class="cls-7" d="M337.49,882.8a1.68,1.68,0,0,1-.65-.13l-23.11-9.58a1.68,1.68,0,0,1-.91-2.2A1.7,1.7,0,0,1,315,870l23.11,9.58a1.68,1.68,0,0,1-.64,3.24Z"/><path class="cls-7" d="M307.25,870.27a1.63,1.63,0,0,1-.64-.13l-23.23-9.61a1.69,1.69,0,0,1,1.29-3.12L307.9,867a1.68,1.68,0,0,1-.65,3.24Z"/><path class="cls-7" d="M278.89,858.53a1.63,1.63,0,0,1-.64-.13L273,856.24a1.68,1.68,0,0,1,1.29-3.11l5.21,2.16a1.69,1.69,0,0,1,.91,2.2A1.7,1.7,0,0,1,278.89,858.53Z"/><path class="cls-7" d="M261.27,876.12a1.7,1.7,0,0,1-1.56-1l-2.14-5.19a1.68,1.68,0,0,1,3.11-1.29l2.14,5.19a1.68,1.68,0,0,1-.91,2.2A1.83,1.83,0,0,1,261.27,876.12Z"/><path class="cls-7" d="M273.58,905.84a1.69,1.69,0,0,1-1.56-1l-.7-1.7a1.68,1.68,0,1,1,3.11-1.29l.71,1.7a1.69,1.69,0,0,1-.92,2.2A1.59,1.59,0,0,1,273.58,905.84Zm-3.52-8.5a1.68,1.68,0,0,1-1.55-1l-6-14.44a1.68,1.68,0,1,1,3.11-1.29l6,14.44a1.69,1.69,0,0,1-.91,2.2A1.82,1.82,0,0,1,270.06,897.34Z"/><path class="cls-7" d="M278.89,918.66a1.68,1.68,0,0,1-1.55-1l-2.15-5.18a1.68,1.68,0,1,1,3.11-1.29l2.15,5.19a1.69,1.69,0,0,1-.91,2.2A1.82,1.82,0,0,1,278.89,918.66Z"/><path class="cls-7" d="M210.74,938a1.59,1.59,0,0,1-.64-.13,1.69,1.69,0,0,1-.92-2.2l1.59-3.84a1.68,1.68,0,0,1,3.11,1.29L212.29,937A1.68,1.68,0,0,1,210.74,938Zm4.59-11.1a1.63,1.63,0,0,1-.64-.13,1.68,1.68,0,0,1-.91-2.2l11.6-28a1.67,1.67,0,0,1,2.19-.91,1.69,1.69,0,0,1,.92,2.2l-11.6,28A1.69,1.69,0,0,1,215.33,926.92Zm14.61-35.25a1.64,1.64,0,0,1-.65-.13,1.69,1.69,0,0,1-.91-2.2l1.72-4.15a1.68,1.68,0,0,1,3.11,1.29l-1.72,4.15A1.68,1.68,0,0,1,229.94,891.67Zm4.72-11.41a1.63,1.63,0,0,1-.64-.13,1.68,1.68,0,0,1-.91-2.2L237,868.6a1.68,1.68,0,1,1,3.11,1.29l-3.86,9.33A1.69,1.69,0,0,1,234.66,880.26Z"/><g class="cls-4"><circle class="cls-5" cx="600" cy="1029.85" r="112.5"/></g><circle class="cls-6" cx="600" cy="1023.11" r="112.5"/><path class="cls-3" d="M675.25,1022.5s-2.62-57.87.67-53.67c6.77,8.67,9.41,37.84,7.57,44.21a39,39,0,0,1-4.18,9.51l-2.25,2.83Z"/><path class="cls-3" d="M680.46,1025.26l-3.4.12,1.33,3.36a38.84,38.84,0,0,0,6.15,8.37c2.84,3,14.08,8.79,24.83,12.45q.93-3.87,1.59-7.83C697.5,1034.09,680.46,1025.26,680.46,1025.26Z"/><path class="cls-3" d="M675.47,1028.39s-48.8,31.2-46.81,26.26c4.12-10.21,28.06-27.07,34.51-28.66a38.73,38.73,0,0,1,10.32-1.14l3.57.53Z"/><path class="cls-3" d="M671.14,1025.38a5.92,5.92,0,1,0,5.92-5.92A5.92,5.92,0,0,0,671.14,1025.38Z"/><path class="cls-3" d="M683.2,1098.84,680,1035.06c-.17-.26-.33-.5-.47-.73a5.8,5.8,0,0,1-2.5.56,5.89,5.89,0,0,1-2.88-.76l-3.85,76.78A112.18,112.18,0,0,0,683.2,1098.84Z"/><path class="cls-7" d="M568.64,976.27c0-.13,0-.25,0-.38a8.23,8.23,0,0,0-7.68-8.2,11.92,11.92,0,0,0,.2-2.08,11.78,11.78,0,0,0-23.51-1.19,10.23,10.23,0,0,0-2.49-.31,10.63,10.63,0,0,0-10.55,12.16Z"/><path class="cls-7" d="M651.93,960.12a8.25,8.25,0,0,0-8.24-7.94,8.12,8.12,0,0,0-2.71.46,11.24,11.24,0,0,0-10.39-6.92,10.84,10.84,0,0,0-1.62.13c0-.05,0-.09,0-.13a15.75,15.75,0,1,0-31.49,0,11.25,11.25,0,0,0-10.81,14.4Z"/><path class="cls-8" d="M623.14,1018.26s-3.28-72.37.83-67.12c8.47,10.85,11.77,47.32,9.46,55.3a48.85,48.85,0,0,1-5.22,11.89l-2.81,3.54Z"/><path class="cls-8" d="M629.65,1021.71S694,1055.06,687.37,1056c-13.63,1.92-46.87-13.46-52.62-19.45a48.41,48.41,0,0,1-7.69-10.47l-1.66-4.2Z"/><path class="cls-8" d="M623.41,1025.63s-61,39-58.54,32.84c5.15-12.76,35.09-33.85,43.15-35.84a48.63,48.63,0,0,1,12.91-1.43l4.47.67Z"/><path class="cls-8" d="M618,1021.87a7.4,7.4,0,1,0,7.4-7.41A7.4,7.4,0,0,0,618,1021.87Z"/><path class="cls-8" d="M621.8,1032.82l-4.94,101.54a111.56,111.56,0,0,0,16.9-3.9c-.66-13.6-2-41-4.65-96.49l-.59-.9a7.38,7.38,0,0,1-6.72-.25Z"/><path class="cls-8" d="M547,1008h-.14a46,46,0,0,1-5.77-.85c-2.45-.53-4.83-1.2-7.13-1.86-4.82-1.35-9.36-2.63-14.43-2.63h-.06a30.71,30.71,0,0,0-8.34,1.18l-.07,0h0a1.7,1.7,0,0,1-2-1.18,1.64,1.64,0,0,1,.16-1.28,1.66,1.66,0,0,1,1-.8,33.81,33.81,0,0,1,9.25-1.3c5.71,0,10.69,1.44,15.52,2.81,2.32.66,4.53,1.28,6.8,1.76a40.14,40.14,0,0,0,5.33.78,1.69,1.69,0,0,1,1.55,1.68v.13A1.69,1.69,0,0,1,547,1008Zm6.71-.18a1.69,1.69,0,0,1-1.67-1.46,1.62,1.62,0,0,1,.33-1.24,1.68,1.68,0,0,1,1.11-.66,35.67,35.67,0,0,0,10.38-3.17,1.72,1.72,0,0,1,2.23.81,1.69,1.69,0,0,1-.81,2.24,38.39,38.39,0,0,1-11.35,3.46Zm-49.33-1.55a1.69,1.69,0,0,1-.72-3.21,1.74,1.74,0,0,1,2.25.81,1.69,1.69,0,0,1-.79,2.22l0,0A1.52,1.52,0,0,1,504.33,1006.24Z"/><path class="cls-8" d="M549.43,1023.41a34.75,34.75,0,0,1-3.78-.21,1.68,1.68,0,1,1,.35-3.34,30.56,30.56,0,0,0,5.32.12h0a33.94,33.94,0,0,0,12.47-3.39,1.68,1.68,0,0,1,1.43,3,37.2,37.2,0,0,1-13.7,3.7h0C550.82,1023.39,550.12,1023.41,549.43,1023.41ZM539.21,1022a2,2,0,0,1-.41,0c-1.62-.4-3.23-.86-4.8-1.3l-.66-.19a1.68,1.68,0,1,1,.92-3.24l.66.19c1.54.43,3.13.88,4.7,1.27a1.69,1.69,0,0,1-.41,3.32Zm-34.88-.41a1.68,1.68,0,0,1-.71-3.21,36.51,36.51,0,0,1,15.79-3.77,40.19,40.19,0,0,1,8.21.91,1.69,1.69,0,1,1-.69,3.3,36.36,36.36,0,0,0-7.52-.84,33.31,33.31,0,0,0-14.36,3.45A1.68,1.68,0,0,1,504.33,1021.58Z"/><path class="cls-8" d="M549.43,1038.73h0c-5.69,0-10.65-1.41-15.46-2.78-1.61-.45-3.27-.92-4.91-1.33a1.68,1.68,0,0,1-1.23-2,1.71,1.71,0,0,1,2-1.23c1.7.43,3.38.9,5,1.36,4.84,1.36,9.41,2.65,14.5,2.65h0a30.46,30.46,0,0,0,9.2-1.43,1.71,1.71,0,0,1,2.11,1.11,1.69,1.69,0,0,1-1.11,2.11A34,34,0,0,1,549.43,1038.73Zm-45.1-1.82a1.69,1.69,0,0,1-1.52-1,1.67,1.67,0,0,1,.8-2.23,38.11,38.11,0,0,1,12.34-3.6,1.68,1.68,0,0,1,.35,3.35,35,35,0,0,0-11.14,3.23l-.11.06A1.61,1.61,0,0,1,504.33,1036.91Zm18.51-3.43h-.17a1.7,1.7,0,0,1-1.5-1.85,1.68,1.68,0,1,1,1.67,1.86Z"/><path class="cls-7" d="M587.51,1077.19c-4.93,0-9.31-1.25-13.55-2.45-4.71-1.33-9.11-2.59-14.34-2.32a1.12,1.12,0,1,1-.11-2.24c5.55-.29,10.39,1.08,15.06,2.4,4.28,1.22,8.33,2.36,12.94,2.36a26.5,26.5,0,0,0,2.82-.15h0a27.3,27.3,0,0,0,5.23-1.07l.05,0a35.92,35.92,0,0,0,4.73-1.84,1.13,1.13,0,0,1,1,2,39.37,39.37,0,0,1-5,1.94h0a30.62,30.62,0,0,1-5.69,1.17h0A28.38,28.38,0,0,1,587.51,1077.19Zm-39.8-1.62a1.15,1.15,0,0,1-1-.64,1.13,1.13,0,0,1,.54-1.5,37.17,37.17,0,0,1,5.4-2.06,1.12,1.12,0,1,1,.63,2.15,35.44,35.44,0,0,0-5.07,1.94A1.05,1.05,0,0,1,547.71,1075.57Z"/><path class="cls-7" d="M589.33,1090.66a1.12,1.12,0,0,1-.07-2.24,27.41,27.41,0,0,0,5.31-.89h0a34.54,34.54,0,0,0,5.77-2.14,1.13,1.13,0,0,1,1,2,37.25,37.25,0,0,1-6.15,2.27h0a29.39,29.39,0,0,1-5.75,1Zm-6.71-.34h-.17a54.25,54.25,0,0,1-5.6-1.23,1.12,1.12,0,0,1,.58-2.17,49.87,49.87,0,0,0,5.37,1.18,1.12,1.12,0,0,1-.18,2.23Zm-34.91-1.22a1.15,1.15,0,0,1-1-.64,1.13,1.13,0,0,1,.54-1.5,32.07,32.07,0,0,1,13.79-3.29,39.91,39.91,0,0,1,9.92,1.44,1.13,1.13,0,0,1-.56,2.18,37.07,37.07,0,0,0-9.36-1.37,29.76,29.76,0,0,0-12.83,3.07A1.05,1.05,0,0,1,547.71,1089.1Z"/><path class="cls-7" d="M587.53,1104.24h0c-5,0-9.33-1.24-13.56-2.44-1.51-.43-3.1-.88-4.65-1.25l-.46-.11H569a1.14,1.14,0,0,1-.55-1.25,1.16,1.16,0,0,1,1.36-.83c1.61.4,3.2.84,4.74,1.28,4.28,1.21,8.34,2.36,12.9,2.36h0a28.59,28.59,0,0,0,11.17-2.35,1.16,1.16,0,0,1,1.47.62,1.14,1.14,0,0,1-.62,1.46A31,31,0,0,1,587.53,1104.24Zm-39.82-1.61a1.11,1.11,0,0,1-1.05-1.51,1.1,1.1,0,0,1,.57-.63,34.57,34.57,0,0,1,8.8-2.86,1.12,1.12,0,1,1,.38,2.21,32.13,32.13,0,0,0-8,2.6l-.18.09A1.29,1.29,0,0,1,547.71,1102.63Zm15.22-3.12h-.08a1.13,1.13,0,0,1,.15-2.25,1.14,1.14,0,0,1,.77.38,1.17,1.17,0,0,1,.28.82A1.13,1.13,0,0,1,562.93,1099.51Z"/><g class="cls-4"><circle class="cls-5" cx="900.93" cy="305.06" r="112.5"/></g><circle class="cls-6" cx="900.93" cy="298.33" r="112.5"/><circle class="cls-8" cx="900.93" cy="299.07" r="65.94" transform="translate(52.4 724.65) rotate(-45)"/><path class="cls-8" d="M895.79,389.72h0a2.23,2.23,0,0,1-2.11-2.37h0a2.23,2.23,0,0,1,2.36-2.11h0a2.23,2.23,0,0,1,2.11,2.37h0a2.23,2.23,0,0,1-2.24,2.11h-.12Zm8-2.12a2.23,2.23,0,0,1,2.1-2.37h0a2.25,2.25,0,0,1,2.37,2.11h0a2.25,2.25,0,0,1-2.11,2.37H906A2.24,2.24,0,0,1,903.8,387.6Zm-18.33.93a2.25,2.25,0,0,1-1.83-2.59h0a2.26,2.26,0,0,1,2.61-1.83h0a2.23,2.23,0,0,1,1.82,2.59h0a2.23,2.23,0,0,1-2.2,1.86h0A2.69,2.69,0,0,1,885.47,388.53Zm28.41-1.84a2.23,2.23,0,0,1,1.82-2.59h0a2.22,2.22,0,0,1,2.6,1.82h0a2.25,2.25,0,0,1-1.83,2.6h0a2.47,2.47,0,0,1-.39,0h0A2.24,2.24,0,0,1,913.88,386.69Zm-38.51-.54a2.25,2.25,0,0,1-1.51-2.79h0a2.24,2.24,0,0,1,2.79-1.51h0a2.25,2.25,0,0,1,1.51,2.79h0a2.24,2.24,0,0,1-2.15,1.6h0A2.06,2.06,0,0,1,875.37,386.15Zm48.41-1.54a2.25,2.25,0,0,1,1.51-2.79h0a2.26,2.26,0,0,1,2.8,1.51h0a2.27,2.27,0,0,1-1.51,2.8h0a2.3,2.3,0,0,1-.64.09h0A2.25,2.25,0,0,1,923.78,384.61Zm-58.17-2h0a2.24,2.24,0,0,1-1.18-3h0a2.24,2.24,0,0,1,3-1.16h0a2.24,2.24,0,0,1,1.17,2.94h0a2.23,2.23,0,0,1-2.06,1.35h0A2.1,2.1,0,0,1,865.61,382.6Zm67.78-1.2a2.24,2.24,0,0,1,1.16-2.95h0a2.23,2.23,0,0,1,3,1.17h0a2.24,2.24,0,0,1-1.16,2.95h0a2.37,2.37,0,0,1-.9.18h0A2.2,2.2,0,0,1,933.39,381.4Zm-77.06-3.46h0a2.25,2.25,0,0,1-.82-3.08h0a2.25,2.25,0,0,1,3.06-.82h0a2.25,2.25,0,0,1,.82,3.07h0a2.23,2.23,0,0,1-1.94,1.12h0A2.14,2.14,0,0,1,856.33,377.94Zm86.2-.86a2.24,2.24,0,0,1,.82-3.06h0a2.22,2.22,0,0,1,3.06.82h0a2.24,2.24,0,0,1-.8,3.06h0a2.32,2.32,0,0,1-1.13.31h0A2.27,2.27,0,0,1,942.53,377.08Zm-94.88-4.85a2.24,2.24,0,0,1-.46-3.14h0a2.25,2.25,0,0,1,3.14-.46h0a2.24,2.24,0,0,1,.46,3.14h0a2.23,2.23,0,0,1-1.8.91h0A2.19,2.19,0,0,1,847.65,372.23Zm103.48-.5a2.25,2.25,0,0,1,.45-3.14h0a2.24,2.24,0,0,1,3.14.46h0a2.25,2.25,0,0,1-.45,3.14h0a2.24,2.24,0,0,1-1.35.45h0A2.24,2.24,0,0,1,951.13,371.73Zm-111.44-6.16a2.26,2.26,0,0,1-.09-3.18h0a2.25,2.25,0,0,1,3.18-.1h0a2.26,2.26,0,0,1,.09,3.18h0a2.25,2.25,0,0,1-1.64.7h0A2.28,2.28,0,0,1,839.69,365.57ZM959,365.42a2.24,2.24,0,0,1,.09-3.17h0a2.25,2.25,0,0,1,3.18.09h0a2.25,2.25,0,0,1-.09,3.17h0a2.21,2.21,0,0,1-1.54.62h0A2.23,2.23,0,0,1,959,365.42ZM832.57,358a2.24,2.24,0,0,1,.27-3.16h0a2.24,2.24,0,0,1,3.16.28h0a2.26,2.26,0,0,1-.27,3.17h0a2.31,2.31,0,0,1-1.45.51h0A2.19,2.19,0,0,1,832.57,358Zm133.61.23a2.25,2.25,0,0,1-.28-3.17h0a2.26,2.26,0,0,1,3.16-.28h0a2.25,2.25,0,0,1,.27,3.17h0a2.21,2.21,0,0,1-1.72.81h0A2.23,2.23,0,0,1,966.18,358.24ZM826.36,349.7a2.23,2.23,0,0,1,.63-3.11h0a2.25,2.25,0,0,1,3.11.64h0a2.25,2.25,0,0,1-.63,3.11h0a2.17,2.17,0,0,1-1.24.37h0A2.22,2.22,0,0,1,826.36,349.7Zm146.07.58a2.25,2.25,0,0,1-.64-3.11h0a2.25,2.25,0,0,1,3.11-.64h0a2.25,2.25,0,0,1,.64,3.11h0a2.24,2.24,0,0,1-1.87,1h0A2.25,2.25,0,0,1,972.43,350.28Zm-151.28-9.56a2.24,2.24,0,0,1,1-3h0a2.25,2.25,0,0,1,3,1h0a2.25,2.25,0,0,1-1,3h0a2.19,2.19,0,0,1-1,.23h0A2.23,2.23,0,0,1,821.15,340.72Zm156.58.92a2.24,2.24,0,0,1-1-3h0a2.25,2.25,0,0,1,3-1h0a2.27,2.27,0,0,1,1,3h0a2.23,2.23,0,0,1-2,1.24h0A2.16,2.16,0,0,1,977.73,341.64ZM817,331.19h0a2.25,2.25,0,0,1,1.35-2.87h0a2.24,2.24,0,0,1,2.87,1.33h0a2.25,2.25,0,0,1-1.33,2.89h0a2.36,2.36,0,0,1-.78.13h0A2.24,2.24,0,0,1,817,331.19Zm165,1.27a2.24,2.24,0,0,1-1.33-2.89h0a2.22,2.22,0,0,1,2.87-1.33h0a2.22,2.22,0,0,1,1.33,2.87h0a2.27,2.27,0,0,1-2.11,1.48h0A2.36,2.36,0,0,1,982,332.46ZM814,321.25a2.26,2.26,0,0,1,1.67-2.71h0a2.25,2.25,0,0,1,2.7,1.67h0a2.26,2.26,0,0,1-1.67,2.71h0a3.07,3.07,0,0,1-.52.06h0A2.24,2.24,0,0,1,814,321.25Zm171.09,1.58a2.25,2.25,0,0,1-1.67-2.71h0a2.26,2.26,0,0,1,2.71-1.67h0a2.26,2.26,0,0,1,1.67,2.71h0a2.26,2.26,0,0,1-2.19,1.73h0A3.19,3.19,0,0,1,985.13,322.83ZM812.24,311a2.25,2.25,0,0,1,2-2.49h0a2.26,2.26,0,0,1,2.5,2h0a2.25,2.25,0,0,1-2,2.49h-.26A2.25,2.25,0,0,1,812.24,311Zm174.89,1.88a2.23,2.23,0,0,1-2-2.48h0a2.25,2.25,0,0,1,2.48-2h0a2.25,2.25,0,0,1,2,2.49h0a2.24,2.24,0,0,1-2.22,2h0Zm-175.5-12.24a2.24,2.24,0,0,1,2.25-2.24h0a2.24,2.24,0,0,1,2.24,2.24h0a2.24,2.24,0,0,1-2.24,2.25h0A2.25,2.25,0,0,1,811.63,300.66Zm174.1-.09v-.06h0v-.12h0a2.24,2.24,0,0,1,2.24-2.25h0a2.24,2.24,0,0,1,2.25,2.24h0v.1h0v.09h0a2.25,2.25,0,0,1-2.25,2.25h0A2.25,2.25,0,0,1,985.73,300.57ZM814.19,292.8a2.25,2.25,0,0,1-2-2.5h0a2.24,2.24,0,0,1,2.49-2h0a2.25,2.25,0,0,1,2,2.49h0a2.25,2.25,0,0,1-2.23,2h-.26Zm171-2.25a2.24,2.24,0,0,1,2-2.49h0a2.23,2.23,0,0,1,2.49,2h0a2.25,2.25,0,0,1-2,2.5h-.27A2.25,2.25,0,0,1,985.15,290.55Zm-169.49-7.78a2.23,2.23,0,0,1-1.66-2.69h0a2.23,2.23,0,0,1,2.7-1.67h0a2.24,2.24,0,0,1,1.67,2.69h0a2.26,2.26,0,0,1-2.19,1.73h0A1.89,1.89,0,0,1,815.66,282.77Zm167.77-1.93a2.23,2.23,0,0,1,1.66-2.7h0a2.26,2.26,0,0,1,2.71,1.66h0a2.26,2.26,0,0,1-1.68,2.7h0a1.82,1.82,0,0,1-.51.06h0A2.25,2.25,0,0,1,983.43,280.84ZM818.3,273a2.25,2.25,0,0,1-1.33-2.88h0a2.23,2.23,0,0,1,2.87-1.34h0a2.24,2.24,0,0,1,1.35,2.87h0a2.26,2.26,0,0,1-2.11,1.48h0A2.36,2.36,0,0,1,818.3,273Zm162.28-1.6a2.25,2.25,0,0,1,1.33-2.88h0a2.25,2.25,0,0,1,2.89,1.34h0a2.26,2.26,0,0,1-1.34,2.88h0a2.31,2.31,0,0,1-.77.13h0A2.26,2.26,0,0,1,980.58,271.4Zm-158.51-7.81a2.25,2.25,0,0,1-1-3h0a2.25,2.25,0,0,1,3-1h0a2.24,2.24,0,0,1,1,3h0a2.23,2.23,0,0,1-2,1.24h0A2.29,2.29,0,0,1,822.07,263.59Zm154.59-1.23h0a2.26,2.26,0,0,1,1-3h0a2.24,2.24,0,0,1,3,1h0a2.24,2.24,0,0,1-1,3h0a2.3,2.3,0,0,1-1,.24h0A2.24,2.24,0,0,1,976.66,262.36ZM826.9,254.69a2.24,2.24,0,0,1-.64-3.11h0a2.25,2.25,0,0,1,3.11-.64h0a2.25,2.25,0,0,1,.64,3.11h0a2.26,2.26,0,0,1-1.88,1h0A2.24,2.24,0,0,1,826.9,254.69Zm144.8-.85h0a2.25,2.25,0,0,1,.64-3.11h0a2.25,2.25,0,0,1,3.11.63h0a2.25,2.25,0,0,1-.64,3.11h0a2.16,2.16,0,0,1-1.23.37h0A2.26,2.26,0,0,1,971.7,253.84Zm-139-7.42a2.25,2.25,0,0,1-.28-3.16h0a2.24,2.24,0,0,1,3.17-.28h0a2.24,2.24,0,0,1,.28,3.16h0a2.26,2.26,0,0,1-1.73.8h0A2.26,2.26,0,0,1,832.73,246.42Zm133.07-.48a2.22,2.22,0,0,1,.27-3.15h0a2.23,2.23,0,0,1,3.16.26h0a2.25,2.25,0,0,1-.27,3.17h0a2.25,2.25,0,0,1-1.44.53h0A2.25,2.25,0,0,1,965.8,245.94Zm-126.32-7.07a2.26,2.26,0,0,1,.09-3.18h0a2.26,2.26,0,0,1,3.18.09h0a2.26,2.26,0,0,1-.09,3.18h0a2.29,2.29,0,0,1-1.54.62h0A2.26,2.26,0,0,1,839.48,238.87ZM959,238.79a2.24,2.24,0,0,1-.1-3.18h0a2.24,2.24,0,0,1,3.17-.1h0a2.27,2.27,0,0,1,.11,3.18h0a2.28,2.28,0,0,1-1.64.71h0A2.28,2.28,0,0,1,959,238.79Zm-112-6.63a2.25,2.25,0,0,1,.45-3.15h0a2.24,2.24,0,0,1,3.15.45h0a2.25,2.25,0,0,1-.46,3.15h0a2.26,2.26,0,0,1-1.34.44h0A2.26,2.26,0,0,1,847.06,232.16Zm104.39.29a2.24,2.24,0,0,1-.46-3.13h0a2.24,2.24,0,0,1,3.14-.46h0a2.25,2.25,0,0,1,.46,3.13h0a2.29,2.29,0,0,1-1.81.91h0A2.27,2.27,0,0,1,951.45,232.45Zm-96.09-6.1a2.23,2.23,0,0,1,.81-3.06h0a2.24,2.24,0,0,1,3.07.81h0a2.25,2.25,0,0,1-.82,3.07h0a2.18,2.18,0,0,1-1.12.31h0A2.25,2.25,0,0,1,855.36,226.35Zm87.85.69h0a2.24,2.24,0,0,1-.82-3.06h0a2.22,2.22,0,0,1,3.06-.82h0a2.22,2.22,0,0,1,.82,3.06h0a2.24,2.24,0,0,1-1.94,1.12h0A2.27,2.27,0,0,1,943.21,227Zm-79-5.48a2.25,2.25,0,0,1,1.18-2.95h0a2.25,2.25,0,0,1,3,1.17h0a2.25,2.25,0,0,1-1.17,2.95h0a2.33,2.33,0,0,1-.89.19h0A2.28,2.28,0,0,1,864.26,221.56Zm70.13,1.07a2.24,2.24,0,0,1-1.17-2.95h0a2.22,2.22,0,0,1,2.95-1.18h0a2.25,2.25,0,0,1,1.17,2.95h0a2.24,2.24,0,0,1-2.06,1.36h0A2.28,2.28,0,0,1,934.39,222.63Zm-60.7-4.79a2.25,2.25,0,0,1,1.49-2.8h0a2.27,2.27,0,0,1,2.8,1.51h0a2.26,2.26,0,0,1-1.51,2.79h0a2.1,2.1,0,0,1-.65.1h0A2.24,2.24,0,0,1,873.69,217.84Zm51.43,1.42a2.22,2.22,0,0,1-1.51-2.78h0a2.24,2.24,0,0,1,2.78-1.52h0a2.25,2.25,0,0,1,1.52,2.8h0a2.24,2.24,0,0,1-2.15,1.6h0A2.08,2.08,0,0,1,925.12,219.26Zm-41.66-4a2.26,2.26,0,0,1,1.83-2.6h0a2.26,2.26,0,0,1,2.6,1.83h0a2.24,2.24,0,0,1-1.82,2.59h0a2.71,2.71,0,0,1-.4,0h0A2.26,2.26,0,0,1,883.46,215.24ZM915.52,217h0a2.25,2.25,0,0,1-1.83-2.6h0a2.25,2.25,0,0,1,2.6-1.83h0a2.26,2.26,0,0,1,1.83,2.6h0a2.24,2.24,0,0,1-2.21,1.86h0Zm-22-3.21a2.24,2.24,0,0,1,2.11-2.37h0a2.22,2.22,0,0,1,2.36,2.11h0a2.24,2.24,0,0,1-2.1,2.37h-.13A2.24,2.24,0,0,1,893.49,213.81Zm12.23,2.08a2.23,2.23,0,0,1-2.11-2.35h0a2.24,2.24,0,0,1,2.37-2.12h0a2.24,2.24,0,0,1,2.11,2.36h0a2.26,2.26,0,0,1-2.24,2.13h0A.3.3,0,0,1,905.72,215.89Z"/><path class="cls-6" d="M923.33,279.62a25.3,25.3,0,0,0-25.3,25.3v39.72h5.53V312.91h17a25.3,25.3,0,0,0,25.3-25.3v-8Z"/><g class="cls-4"><path class="cls-5" d="M898,312.91v31.73h5.53V312.91h17a25.3,25.3,0,0,0,25.3-25.3v-8Z"/></g><path class="cls-6" d="M876.59,276.71H857.52v6.77A21.44,21.44,0,0,0,879,304.92H898v-6.77A21.44,21.44,0,0,0,876.59,276.71Z"/><g class="cls-4"><path class="cls-5" d="M857.52,283.48A21.44,21.44,0,0,0,879,304.92H898l-40.51-28.21Z"/></g><path class="cls-3" d="M829.46,385.21a112.5,112.5,0,0,0,142.94,0l-61.53-45.72a16.65,16.65,0,0,0-19.88,0Z"/></g></g></svg>