<svg xmlns="http://www.w3.org/2000/svg" viewBox="0 0 750 500"><defs><style>.cls-1{fill:#fff;}.cls-2{fill:#c7d3dd;}.cls-3{font-size:137.11px;font-family:Montserrat-Bold, Montserrat;font-weight:700;}.cls-10,.cls-3{fill:#465851;}.cls-4{letter-spacing:-0.01em;}.cls-5{fill:#daa520;}.cls-6{fill:#ffd255;}.cls-7{fill:#2f3044;}.cls-8{fill:#67859f;}.cls-9{fill:#aaaa6c;}.cls-11{fill:#3c3f50;}.cls-12{fill:#fefefe;}.cls-13{fill:#626a7c;}.cls-14{fill:#d8836c;}.cls-15{fill:#e89f82;}.cls-16{fill:#4c6f89;}.cls-17{fill:#ac5a56;}.cls-18{fill:#ea8f7d;}</style></defs><g id="Background"><rect class="cls-1" width="750" height="500"/></g><g id="Objects"><path class="cls-2" d="M668.46,231c-10.76-5.83-14.91-10.9-24.4-18.62-22.84-18.59-26.28-52.14-37.31-79.45-12.06-29.86-46.62-48.75-78.27-42.77-3.38.63-6.8,1.51-10.24,2.46a62,62,0,0,1-37.47-15c-12.18-10.72-20.15-26.3-34.35-34.16-12.2-6.75-27.56-6.53-40.4-1.08S382.76,58,375.32,69.82c-8.2,13-13.26,28.27-24.22,39.07-15.94,15.72-58,7.9-76.1-5.22l8.5,5.9c-.63-.32-1.25-.63-1.88-.93C234.71,85.8,171.71,105,145.52,150.13c-27.7,47.72-15.11,111.72-45.27,157.91C88.86,325.48,72.13,339,61.08,356.63c-17.85,28.51-18.17,66.95-1.26,95.95H710C704,415.91,711.55,366,712.2,331,712.91,292.67,702.14,249.21,668.46,231Z"/><polygon class="cls-1" points="158.92 311.8 129.64 307.92 132.89 314.62 23.42 367.69 31.12 383.57 140.59 330.5 143.83 337.2 158.92 311.8"/><polygon class="cls-1" points="195.6 332.12 156.95 327 161.24 335.84 16.76 405.88 26.92 426.85 171.4 356.8 175.69 365.64 195.6 332.12"/><text class="cls-3" transform="translate(74.7 222.79)"><tspan class="cls-4">C</tspan><tspan x="99.68" y="0">SR</tspan></text><path class="cls-1" d="M367.84,101.61c-1.83,7.74-2.94,15.8-1.64,23.64s5.27,15.51,11.88,19.92c3.9,2.6,8.86,4.3,10.91,8.51,2.15,4.44.12,9.71.56,14.62.72,7.8,7.95,13.84,15.63,15.33S420.81,183,428,180c6.82-2.84,13.46-6.53,18.42-12s8.08-13,7-20.27c-.56-3.9-2.26-7.72-1.75-11.62.4-3.05,2.1-5.74,3.62-8.4,7.81-13.74,11.73-30.15,8.46-45.61S449.32,52.45,434.17,48,401.75,49.16,390.05,60,371.5,86.08,367.84,101.61Z"/><path class="cls-5" d="M454.34,96.85a40.49,40.49,0,1,0-58.17,36.43,12.88,12.88,0,0,1,7.23,11.59v8h20.89v-8a12.8,12.8,0,0,1,7.16-11.55A40.5,40.5,0,0,0,454.34,96.85Z"/><path class="cls-6" d="M379.21,117.83a40.69,40.69,0,0,0,17,15.45,12.88,12.88,0,0,1,7.23,11.59v8h20.89v-8a12.8,12.8,0,0,1,7.16-11.55,40.71,40.71,0,0,0,17-15.49C423.79,97.81,400.81,99.18,379.21,117.83Z"/><path class="cls-1" d="M424,149.62h-.79v-7.49A12.37,12.37,0,0,1,430.08,131a37.58,37.58,0,0,0,21.11-33.63,37.35,37.35,0,0,0-38.8-37.31,37.35,37.35,0,0,0-33.1,51.48l-.73.3A38.13,38.13,0,1,1,452,97.38a38.36,38.36,0,0,1-21.56,34.34A11.6,11.6,0,0,0,424,142.13Z"/><path class="cls-7" d="M411.16,116.22a.29.29,0,0,1-.29-.3V90.52a.3.3,0,1,1,.59,0v25.4A.29.29,0,0,1,411.16,116.22Z"/><path class="cls-7" d="M417,116.22a.29.29,0,0,1-.3-.3V90.52a.3.3,0,1,1,.59,0v25.4A.29.29,0,0,1,417,116.22Z"/><path class="cls-7" d="M418.05,147.71a.31.31,0,0,1-.3-.3V118.54a3.25,3.25,0,0,0-.89-2.5,3.86,3.86,0,0,0-2.8-1.2H414a3.7,3.7,0,0,0-3.7,3.7v28.87a.3.3,0,1,1-.59,0V118.54a4.3,4.3,0,0,1,4.29-4.29h.08a4.43,4.43,0,0,1,3.23,1.38,3.87,3.87,0,0,1,1.06,2.93v28.85A.31.31,0,0,1,418.05,147.71Z"/><path class="cls-1" d="M411.91,120.89a1.73,1.73,0,0,0,1.58-.27,4.39,4.39,0,0,0,1.1-1.25,4.48,4.48,0,0,0,.85-2,1.59,1.59,0,0,0-2.61-1.53,4.76,4.76,0,0,0-1.1,1.3,4.57,4.57,0,0,0-.8,2A1.76,1.76,0,0,0,411.91,120.89Z"/><polygon class="cls-7" points="417.8 176.03 409.89 176.03 408.04 171.42 419.65 171.42 417.8 176.03"/><path class="cls-8" d="M421.07,173.2H406.63a4.55,4.55,0,0,1-4.55-4.55V145.89h23.54v22.76A4.55,4.55,0,0,1,421.07,173.2Z"/><path class="cls-7" d="M402,151.93a.29.29,0,0,1-.29-.27.29.29,0,0,1,.26-.32l23.74-2.64a.29.29,0,0,1,.33.26.3.3,0,0,1-.26.33l-23.74,2.64Z"/><path class="cls-7" d="M402,156a.3.3,0,0,1,0-.59l23.74-2.64a.29.29,0,0,1,.33.26.3.3,0,0,1-.26.33L402.08,156Z"/><path class="cls-7" d="M402,160.11a.29.29,0,0,1-.29-.27.3.3,0,0,1,.26-.33l23.74-2.63a.3.3,0,0,1,.33.26.3.3,0,0,1-.26.33l-23.74,2.63Z"/><path class="cls-7" d="M402,164.2a.29.29,0,0,1-.29-.27.3.3,0,0,1,.26-.33L425.75,161a.28.28,0,0,1,.33.26.3.3,0,0,1-.26.33l-23.74,2.63Z"/><rect class="cls-9" x="76" y="381.94" width="10.23" height="37.68"/><rect class="cls-9" x="88.88" y="393.39" width="10.23" height="26.23"/><rect class="cls-9" x="101.76" y="367.16" width="10.23" height="52.46"/><rect class="cls-9" x="114.63" y="381.94" width="10.23" height="37.68"/><rect class="cls-9" x="127.51" y="367.16" width="10.23" height="52.46"/><rect class="cls-9" x="140.39" y="371.32" width="10.23" height="48.29"/><rect class="cls-9" x="153.27" y="360.88" width="10.23" height="58.73"/><rect class="cls-10" x="76" y="415.85" width="10.23" height="3.77"/><rect class="cls-10" x="88.88" y="404.53" width="10.23" height="15.08"/><rect class="cls-10" x="101.76" y="412.08" width="10.23" height="7.54"/><rect class="cls-10" x="114.63" y="404.53" width="10.23" height="15.08"/><rect class="cls-10" x="127.51" y="395.47" width="10.23" height="24.15"/><rect class="cls-10" x="140.39" y="404.53" width="10.23" height="15.08"/><rect class="cls-10" x="153.27" y="381.94" width="10.23" height="37.68"/><rect class="cls-10" x="72.23" y="418.6" width="182.29" height="1.3"/><ellipse class="cls-1" cx="590.13" cy="321.58" rx="49.96" ry="35.95" transform="translate(-62.26 482.98) rotate(-42.48)"/><path class="cls-2" d="M549.26,333.73a32.62,32.62,0,0,0,32.2,25.52,24.64,24.64,0,0,1-31.77-22.06Z"/><ellipse class="cls-11" cx="591.52" cy="305.25" rx="36.79" ry="40.46" transform="translate(-74.02 316.76) rotate(-28.29)"/><ellipse class="cls-11" cx="590.1" cy="308.48" rx="36.79" ry="40.46" transform="translate(-75.72 316.47) rotate(-28.29)"/><ellipse class="cls-6" cx="591.52" cy="305.25" rx="34.95" ry="38.44" transform="translate(-74.02 316.75) rotate(-28.29)"/><path class="cls-5" d="M616.53,333l-24.2-26.89a255,255,0,0,0,21.25,29.35C614.58,334.65,615.56,333.82,616.53,333Z"/><path class="cls-5" d="M603.05,270.66a36,36,0,0,0-9.7-2.77,32.3,32.3,0,0,0-33.26,16.79c11.33,7.56,20.55,16.15,33,21.75C596.11,294.55,600.16,282.55,603.05,270.66Z"/><path class="cls-12" d="M598.85,339.68a21.74,21.74,0,0,0,21.72-16.83A46.45,46.45,0,0,1,598.85,339.68Z"/><path class="cls-12" d="M597.23,321.94a11.93,11.93,0,0,0,9.95-9.09C604.81,316.71,601,319.4,597.23,321.94Z"/><path class="cls-12" d="M597.06,307.23a11.33,11.33,0,0,1-3.65,3.95,4.34,4.34,0,0,0,3.12-1.71C597.26,308.49,597.32,308.43,597.06,307.23Z"/><path class="cls-8" d="M617.22,308.78c.73-14.85-10.18-28.47-24.38-30.42s-26.3,8.5-27,23.35S576,330.19,590.2,332.14,616.49,323.64,617.22,308.78Zm-26.67,16.15c-10.39-1.43-18.38-11.4-17.85-22.27s9.39-18.52,19.78-17.09,18.39,11.4,17.85,22.27S600.94,326.36,590.55,324.93Z"/><path class="cls-8" d="M605.32,307.15c.39-8-5.47-15.29-13.09-16.34s-14.12,4.56-14.52,12.54,5.47,15.29,13.1,16.34S604.93,315.12,605.32,307.15Zm-14.22,6.64a9.35,9.35,0,0,1-7.75-9.67,7.56,7.56,0,0,1,8.59-7.41,9.33,9.33,0,0,1,7.74,9.66A7.55,7.55,0,0,1,591.1,313.79Z"/><path class="cls-11" d="M633.93,273.34c-2.1,3.13-5.51,5.09-8.8,7a16.17,16.17,0,0,1-.17,7.29,50.76,50.76,0,0,1,8.59-4.47Q633.74,278.22,633.93,273.34Z"/><path class="cls-11" d="M633.75,284.78l7.61,5a72.65,72.65,0,0,0-12.14,3.87,19,19,0,0,0-4.67-4.41l7.08-4Z"/><path class="cls-8" d="M591.52,305.25l43-24c1.49.18,1.85,1.27,1.53,2.91l-43.71,23C591.26,306.77,590.88,306.19,591.52,305.25Z"/><path class="cls-11" d="M591.32,306.46a1.73,1.73,0,0,0,1,.64l43.71-23a4.43,4.43,0,0,0,.07-1.38Z"/><ellipse class="cls-1" cx="496.12" cy="354.58" rx="41.79" ry="30.07" transform="translate(-109.23 428.15) rotate(-42.48)"/><path class="cls-2" d="M483.51,329.17a30.28,30.28,0,0,1,27.55-6.09A58.43,58.43,0,0,0,483.51,329.17Z"/><path class="cls-6" d="M498.64,380.38a7.56,7.56,0,0,0,4.16,1.82,2.61,2.61,0,0,0,2.16-.54c.54-.55.43-1.7-.32-1.88a9.06,9.06,0,0,0,2.66.54,3.06,3.06,0,0,0,2.42-1,1.87,1.87,0,0,0-.05-2.47,10,10,0,0,0,2.61.23,3.24,3.24,0,0,0,2.28-1.14,2,2,0,0,0,0-2.42,3.59,3.59,0,0,0,2.27-.51,2.54,2.54,0,0,0,1.19-2,4.22,4.22,0,0,0-1.6-3,81.28,81.28,0,0,0-11.47-9,46.41,46.41,0,0,1-13.26,13.55l6.48,6Z"/><path class="cls-9" d="M527.1,358.44c2.47-7.52,3.72-13.91,1.56-21.22-3.57,2.91-9.91,6.66-14.46,6.14a38.52,38.52,0,0,0-9.94.33c-4.39.58-7.78,4-10.81,7.23-.56.61-1.17,1.36-1,2.17a6,6,0,0,0,.79,1.36c1,1.81-.79,3.84-2.39,5.13l-9.63,7.82a7.66,7.66,0,0,0-2,2.17,2.3,2.3,0,0,0,3.05,3.32,16.69,16.69,0,0,0,2.33-1.08c-1.19,1.17-2.34,3.35-1.54,4.35,1,1.21,3.84.79,4.88-.36-.58,1.21-1.05,3.2.18,3.74s5.18,0,5.67-1.27c-.58,1.44-.92,1.94.38,2.79a2.81,2.81,0,0,0,3.42.23c2.46-1.24,5.54-2.47,7.8-3.84,4.38-2.67,9.15-4.15,12.76-7.81C520.7,367,521.11,361.83,527.1,358.44Z"/><path class="cls-6" d="M461.66,355.71a75.9,75.9,0,0,0,9.6-14.77,27.46,27.46,0,0,0,21.37,4.33c2.18-.48,4.42-1.22,6.57-.64a11.14,11.14,0,0,1,4.59,3.12l8.65,8.3a1.68,1.68,0,0,1,.56.81c.15.82-.87,1.32-1.7,1.43a11.85,11.85,0,0,1-7-1.26c-2-1-3.81-2.7-6-2.61-2.05.08-3.7,1.64-5.13,3.1q-4.07,4.13-8.12,8.24c-1.61,1.63-3.54,3.38-5.81,3.17a7.84,7.84,0,0,1-4-2.13Z"/><path class="cls-5" d="M496.46,351.34a27.47,27.47,0,0,0-5.63,2.22,24,24,0,0,1-10.67,2.76c-2.12-.05-4.73-1.24-5.92,1.13-1.51,3,.09,4.41-1.44,7.4l2.37,1.95a7.84,7.84,0,0,0,4,2.13c2.27.21,4.2-1.54,5.81-3.17q4-4.12,8.12-8.24c1.43-1.46,3.08-3,5.13-3.1,2.22-.09,4.06,1.56,6,2.61a11.85,11.85,0,0,0,7,1.26c.8-.11,1.78-.58,1.7-1.35.09.86-3.77-.3-4.07-.45a30.16,30.16,0,0,1-4-2.85,12,12,0,0,0-4.3-2.35A9.07,9.07,0,0,0,496.46,351.34Z"/><path d="M478.46,370l-.31-.95c4.94-1.62,8.61-5.71,12.16-9.66.7-.79,1.4-1.57,2.11-2.33a9.54,9.54,0,0,1,3.67-2.76c1.71-.6,3.78-.34,6.14.76.61.29,1.21.61,1.81.92a18.22,18.22,0,0,0,3.51,1.58c1.59.47,3.77.49,5.09-.86l.72.7c-1.64,1.66-4.22,1.67-6.09,1.12a19.57,19.57,0,0,1-3.7-1.65c-.58-.31-1.17-.62-1.76-.9-2.12-1-3.93-1.24-5.39-.73a8.77,8.77,0,0,0-3.27,2.5l-2.1,2.31C487.42,364.06,483.66,368.25,478.46,370Z"/><ellipse class="cls-1" cx="648.6" cy="236.62" rx="42.01" ry="30.23" transform="translate(10.46 500.17) rotate(-42.48)"/><path class="cls-2" d="M615.92,244.91A17.52,17.52,0,0,0,624,265.67,31.66,31.66,0,0,1,615.92,244.91Z"/><path class="cls-9" d="M669.77,245.75,662.86,234l-4.44,3,7.29,11.73a2.23,2.23,0,0,1,.24,1.95,1.39,1.39,0,0,1-1.32,1l-6.76.18-.84-4-5,6.68,8,7.31-.82-3.84,6.22-.36a5.94,5.94,0,0,0,5.26-4.13A9.3,9.3,0,0,0,669.77,245.75Z"/><path class="cls-9" d="M635.37,252.5a2.77,2.77,0,0,1-2.22-1.08,2.36,2.36,0,0,1-.49-2.3l3.48-9.54,3.18,2.2-3.39-11.35-10.29,1.91,3.55,2.45-3.88,10.64c-1.14,3.12-.27,6.79,2.26,9.75a11.52,11.52,0,0,0,9.24,4.2l12.42-.72-1.14-6.48Z"/><path class="cls-9" d="M658.4,229l-.21-6.37-1.45,1-4.26-7.21c-2-3.41-5.15-5.85-8.43-6.44a6.08,6.08,0,0,0-7.27,4l-4.23,11.59,7.07,4.46,4.06-11.14a1.45,1.45,0,0,1,1.7-1,3,3,0,0,1,2.07,1.5l4.68,7.55-1.89,1.36Z"/><path class="cls-9" d="M695.66,451c-5.48-4.28-11.46-8.42-18-10.62-6-2-12.52.18-18.85.43-15.24.61-28.55-10-43.42-13.35a47.36,47.36,0,0,0-26.87,1.79c-7.38,2.76-14.09,7.37-21.79,9.07-13.34,2.95-27.05-3.29-40.7-2.67s-26,8-37.54,15.35Z"/><polygon class="cls-8" points="645.63 367.81 648.52 367.81 650.3 447.94 643.85 447.94 645.63 367.81"/><path class="cls-8" d="M649.87,373.12c0,2.19-1.31,4-2.93,4s-2.93-1.78-2.93-4,1.31-19.23,2.93-19.23S649.87,370.93,649.87,373.12Z"/><path class="cls-8" d="M638.9,379.71c1.87-1.53,4.31-2,5.43-1s.52,3-1.36,4.53-17.36,12.6-18.49,11.63S637,381.23,638.9,379.71Z"/><path class="cls-8" d="M654.64,379.71c-1.88-1.53-4.31-2-5.44-1s-.52,3,1.36,4.53,17.37,12.6,18.49,11.63S656.51,381.23,654.64,379.71Z"/><path class="cls-8" d="M685.5,389.17c0,1.89-1.13,3.42-2.52,3.42s-2.53-1.53-2.53-3.42,1.13-16.61,2.53-16.61S685.5,387.27,685.5,389.17Z"/><path class="cls-8" d="M676,394.86c1.62-1.32,3.72-1.71,4.69-.87s.45,2.59-1.17,3.91-15,10.88-16,10S674.41,396.17,676,394.86Z"/><path class="cls-8" d="M689.62,394.86c-1.62-1.32-3.72-1.71-4.69-.87s-.45,2.59,1.17,3.91,15,10.88,16,10S691.24,396.17,689.62,394.86Z"/><polygon class="cls-8" points="681.6 387.84 683.77 387.84 685.11 447.94 680.27 447.94 681.6 387.84"/><path class="cls-8" d="M702.9,451c-8.48-7.09-20.36-11.46-31.09-9.87-8.81,1.32-17.22,5.66-26.12,5.23-8.18-.39-15.67-4.78-23.78-5.91C604,438,593.43,445.88,569.13,451Z"/><ellipse class="cls-1" cx="675.89" cy="347.38" rx="25.98" ry="18.7" transform="translate(-57.17 547.67) rotate(-42.48)"/><path class="cls-2" d="M696,337.35a22.68,22.68,0,0,1-3.59,12.21,61.29,61.29,0,0,1-8.08,10,8.82,8.82,0,0,0,4.17-2.63C693.66,351.86,697.19,344.52,696,337.35Z"/><polygon class="cls-13" points="678.4 333.43 669.97 346.07 676.8 346.07 670.98 362.35 684.36 342.73 676.65 342.73 678.4 333.43"/><ellipse class="cls-1" cx="539.85" cy="400.8" rx="34.79" ry="25.04" transform="translate(-128.97 469.82) rotate(-42.48)"/><path class="cls-2" d="M562.44,408.32a80.33,80.33,0,0,1-17.8,13.08,50.76,50.76,0,0,1-21.14,6,33.57,33.57,0,0,0,22.27-3.58A47.33,47.33,0,0,0,562.44,408.32Z"/><path class="cls-11" d="M545.26,413.25a16.67,16.67,0,0,0-.57-4.24,8.8,8.8,0,0,0-2.21-3.93c-1.31-1.25-3-1.77-4.34-3a7.48,7.48,0,0,1-2-3.14,8.76,8.76,0,0,0,2.5-5.74,5,5,0,0,0-10,0,8.64,8.64,0,0,0,2.84,6,7.61,7.61,0,0,1-1.87,2.84c-1.34,1.21-3,1.73-4.34,3a8.8,8.8,0,0,0-2.21,3.93,16.67,16.67,0,0,0-.57,4.24Z"/><path class="cls-11" d="M527.31,399.33a12.14,12.14,0,0,0-.42-3.3,6.35,6.35,0,0,0-1.6-2.85c-.95-.9-2.18-1.28-3.14-2.16a5.49,5.49,0,0,1-1.43-2.29,6.34,6.34,0,0,0,1.8-4.14,3.63,3.63,0,1,0-7.26,0,6.27,6.27,0,0,0,2,4.36A5.32,5.32,0,0,1,516,391c-1,.88-2.2,1.26-3.14,2.16a6.37,6.37,0,0,0-1.61,2.85,12.55,12.55,0,0,0-.42,3.3Z"/><path class="cls-11" d="M562.52,402.75a15.93,15.93,0,0,0-.55-4.08,8.22,8.22,0,0,0-2.09-3.72c-1.24-1.18-2.84-1.67-4.1-2.82a7.07,7.07,0,0,1-1.88-3,8.32,8.32,0,0,0,2.37-5.43,4.74,4.74,0,0,0-9.48,0,8.15,8.15,0,0,0,2.69,5.71,6.86,6.86,0,0,1-1.78,2.69c-1.26,1.15-2.86,1.64-4.1,2.82a8.22,8.22,0,0,0-2.09,3.72,15.93,15.93,0,0,0-.55,4.08Z"/><ellipse class="cls-1" cx="598.17" cy="393.94" rx="28.34" ry="20.4" transform="translate(-109.02 507.41) rotate(-42.48)"/><path class="cls-2" d="M584,382.54a25,25,0,0,0-8.58,20.65A43.65,43.65,0,0,1,584,382.54Z"/><path class="cls-11" d="M588.74,396.33c-1.27,1.71-2.1,3.77-3.64,5.25-2.3,2.21-5.75,2.72-8.36,4.54a13,13,0,0,0-4.84,7.52,36.65,36.65,0,0,0-.85,9.06,34.2,34.2,0,0,1,18.75-11c4.54-1,9.34-1.1,13.57-3,3.69-1.66,6.92-3.67,8.28-7.48,2.18-6.13,3.94-7,6.43-11.21-4.77-.73-6.45,5.76-10.37,8.2a22.13,22.13,0,0,1-14.27,2.86,4.12,4.12,0,0,1,.84-4.24c.94-1.2,2.22-2.08,3.25-3.2A4.75,4.75,0,0,0,599,389.5C595.2,391.18,591.22,393,588.74,396.33Z"/><path class="cls-9" d="M614,377.38a20.31,20.31,0,0,0-6.24,8.82,11.28,11.28,0,0,0-2.07,3.2v-4.84c1.21-1.54,4.33-6,4.33-11.3,0-6.56-4.81-11.88-4.81-11.88s-4.82,5.32-4.82,11.88c0,5.23,3.05,9.66,4.3,11.25v5.36a11.7,11.7,0,0,0-1.45-2.65,20,20,0,0,0-18.11-14.31,15.74,15.74,0,0,0,17.35,15,11.79,11.79,0,0,1,2.11,7c0,.17,0,.34,0,.52h.12v.39h1v-2.57a11.15,11.15,0,0,1,2-5.36,15.76,15.76,0,0,0,17.82-14.92A20.35,20.35,0,0,0,614,377.38Z"/><path class="cls-12" d="M619.71,377.5a53.39,53.39,0,0,1-8.13,7.71A20.18,20.18,0,0,1,619.71,377.5Z"/><path class="cls-12" d="M605.59,377.46a23.34,23.34,0,0,0-.38-10.48A38.69,38.69,0,0,0,605.59,377.46Z"/><path class="cls-12" d="M596.22,382a68.8,68.8,0,0,0-6.34-5.48A12,12,0,0,1,598,383.7Z"/><path class="cls-1" d="M278.3,332.25q0-.57,0-1.14l4.89-1c-.06-.95-.15-1.89-.29-2.82h-5c-.13-.76-.28-1.51-.47-2.25l4.56-2c-.25-.92-.54-1.82-.86-2.7l-4.9,1q-.42-1.08-.93-2.1l4-2.93c-.44-.84-.91-1.66-1.42-2.46l-4.55,2c-.43-.64-.88-1.25-1.36-1.85l3.35-3.72c-.6-.73-1.24-1.42-1.9-2.1l-4,2.94c-.54-.53-1.11-1.05-1.7-1.54l2.5-4.32c-.74-.58-1.5-1.14-2.29-1.67l-3.34,3.72c-.64-.41-1.31-.79-2-1.15l1.54-4.75c-.84-.42-1.7-.8-2.58-1.15l-2.49,4.32c-.72-.26-1.45-.49-2.19-.7l.53-5c-.91-.23-1.84-.42-2.78-.58l-1.53,4.75c-.76-.1-1.52-.18-2.29-.23l-.51-5c-.47,0-.95,0-1.42,0s-1,0-1.42,0l-.51,5c-.77.05-1.54.13-2.29.23l-1.54-4.75c-.93.16-1.86.35-2.77.58l.53,5c-.74.21-1.47.44-2.19.7l-2.49-4.32c-.88.35-1.74.73-2.59,1.15l1.55,4.75c-.68.36-1.34.74-2,1.15l-3.34-3.72c-.79.53-1.55,1.09-2.29,1.67l2.5,4.32c-.59.49-1.16,1-1.71,1.54l-4-2.94c-.66.68-1.3,1.37-1.9,2.1l3.35,3.72c-.48.6-.93,1.21-1.36,1.85l-4.56-2c-.5.8-1,1.62-1.42,2.46l4,2.93c-.34.68-.65,1.38-.94,2.1l-4.89-1q-.48,1.32-.87,2.7l4.56,2c-.18.74-.34,1.49-.47,2.25h-5c-.14.93-.23,1.87-.29,2.82l4.88,1c0,.38,0,.76,0,1.14s0,.77,0,1.15l-4.88,1c.06.95.15,1.89.29,2.82h5c.13.76.29,1.51.47,2.25l-4.56,2q.39,1.37.87,2.7l4.89-1.05c.29.71.6,1.42.94,2.1l-4,2.93c.44.84.92,1.66,1.42,2.45l4.56-2c.43.63.88,1.25,1.36,1.85l-3.35,3.71c.6.73,1.24,1.43,1.9,2.11l4-2.94q.83.79,1.71,1.53l-2.5,4.32c.74.59,1.5,1.15,2.29,1.67l3.34-3.71c.64.4,1.3.79,2,1.15l-1.55,4.75c.85.42,1.71.8,2.59,1.15l2.49-4.32c.72.26,1.45.49,2.19.7l-.53,5c.91.24,1.84.42,2.77.58l1.54-4.75c.75.11,1.52.19,2.29.24l.51,5c.47,0,.94,0,1.42,0l1.42,0,.51-5c.77-.05,1.53-.13,2.29-.24l1.53,4.75c.94-.16,1.87-.34,2.78-.58l-.53-5c.74-.21,1.47-.44,2.19-.7l2.49,4.32c.88-.35,1.74-.73,2.58-1.15l-1.54-4.75c.67-.36,1.34-.75,2-1.15l3.34,3.71c.79-.52,1.55-1.08,2.29-1.67l-2.5-4.32c.59-.49,1.16-1,1.7-1.53l4,2.94c.66-.68,1.3-1.38,1.9-2.11L272,350.47c.48-.6.93-1.22,1.36-1.85l4.55,2c.51-.79,1-1.61,1.42-2.45l-4-2.93c.34-.68.65-1.39.93-2.1l4.9,1.05c.32-.89.61-1.79.86-2.7l-4.56-2c.19-.74.34-1.49.47-2.25h5c.14-.93.23-1.87.29-2.82l-4.89-1C278.29,333,278.3,332.64,278.3,332.25Zm-29.44,23.56a23.56,23.56,0,1,1,23.55-23.56A23.56,23.56,0,0,1,248.86,355.81Z"/><path class="cls-1" d="M232.75,393.82a29.66,29.66,0,0,0,.44-3.67l-3.47-1.1c0-.14,0-.27,0-.41a25.07,25.07,0,0,0-.46-4.78l3.18-1.8a26.84,26.84,0,0,0-1.07-3.47l-3.6.41a24.16,24.16,0,0,0-2.62-4.66l2.17-2.94a28.52,28.52,0,0,0-2.35-2.68l-3.13,1.84a24.81,24.81,0,0,0-4.38-3.24l.79-3.57A26.61,26.61,0,0,0,215,362.3l-2.11,3a24.63,24.63,0,0,0-5.39-1.17l-.72-3.56c-.58,0-1.17-.06-1.76-.06s-1.17,0-1.76.06l-.72,3.56a24.63,24.63,0,0,0-5.39,1.17l-2.11-3a25.79,25.79,0,0,0-3.21,1.45l.79,3.57a24.45,24.45,0,0,0-4.38,3.24l-3.13-1.84a28.62,28.62,0,0,0-2.36,2.68l2.18,2.94a23.65,23.65,0,0,0-2.62,4.66l-3.6-.41a28.53,28.53,0,0,0-1.08,3.47l3.19,1.8a24.29,24.29,0,0,0-.47,4.78c0,.14,0,.27,0,.41l-3.47,1.1a27.87,27.87,0,0,0,.45,3.67l3.64.35a24.48,24.48,0,0,0,1.64,4.8l-2.72,2.41a29.44,29.44,0,0,0,1.93,3.24l3.47-1.16a24.07,24.07,0,0,0,3.36,3.63l-1.51,3.32a29.51,29.51,0,0,0,3.1,2.21l2.7-2.47a25,25,0,0,0,4.46,2l0,3.64a27.69,27.69,0,0,0,3.77.78l1.45-3.34a24.46,24.46,0,0,0,4.84,0l1.46,3.34a27.55,27.55,0,0,0,3.76-.78l0-3.64a24.73,24.73,0,0,0,4.46-2l2.7,2.47a28.63,28.63,0,0,0,3.11-2.21l-1.51-3.32a25.15,25.15,0,0,0,3.36-3.63l3.47,1.16a29.36,29.36,0,0,0,1.92-3.24L227.46,399a23.84,23.84,0,0,0,1.64-4.8Zm-27.69,11a16.28,16.28,0,1,1,16.28-16.28A16.3,16.3,0,0,1,205.06,404.78Z"/><path class="cls-1" d="M260,280.47l2.16.72a16.35,16.35,0,0,0,1.21-2l-1.7-1.5a15.28,15.28,0,0,0,1-3l2.27-.22a17.26,17.26,0,0,0,.28-2.29l-2.16-.68c0-.09,0-.17,0-.26a15.36,15.36,0,0,0-.3-3l2-1.12a17.6,17.6,0,0,0-.67-2.17l-2.24.26a15.12,15.12,0,0,0-1.64-2.91l1.36-1.83a18.09,18.09,0,0,0-1.47-1.67L258.16,260a15.48,15.48,0,0,0-2.73-2l.49-2.22a18.17,18.17,0,0,0-2-.91l-1.31,1.85a15.72,15.72,0,0,0-3.36-.73l-.45-2.22c-.37,0-.73,0-1.1,0s-.73,0-1.1,0l-.45,2.22a15.58,15.58,0,0,0-3.36.73l-1.31-1.85a18.17,18.17,0,0,0-2,.91l.49,2.22a15.48,15.48,0,0,0-2.73,2l-1.95-1.15a18.09,18.09,0,0,0-1.47,1.67l1.36,1.83a15.12,15.12,0,0,0-1.64,2.91l-2.24-.26a17.6,17.6,0,0,0-.67,2.17l2,1.12a16.19,16.19,0,0,0-.29,3c0,.09,0,.17,0,.26l-2.16.68a19.1,19.1,0,0,0,.27,2.29l2.28.22a15.28,15.28,0,0,0,1,3l-1.7,1.5a17.62,17.62,0,0,0,1.2,2l2.17-.72a16,16,0,0,0,2.09,2.27l-.94,2.07a17.88,17.88,0,0,0,1.94,1.38l1.68-1.54a16.05,16.05,0,0,0,2.78,1.22l0,2.27a18.49,18.49,0,0,0,2.35.49l.91-2.09c.5,0,1,.07,1.51.07s1,0,1.51-.07l.91,2.09a18,18,0,0,0,2.34-.49l0-2.27a15.82,15.82,0,0,0,2.79-1.22l1.68,1.54a17.88,17.88,0,0,0,1.94-1.38l-.94-2.07A16,16,0,0,0,260,280.47Z"/><path class="cls-2" d="M248.36,280.47a7.76,7.76,0,0,0,7.42-10.76,9.4,9.4,0,0,1-10.51,9.58A4.43,4.43,0,0,0,248.36,280.47Z"/><path class="cls-1" d="M224.18,296.32a25.16,25.16,0,0,0,.37-3l-2.86-.9c0-.12,0-.23,0-.34a20.3,20.3,0,0,0-.38-3.93l2.62-1.49a25.39,25.39,0,0,0-.88-2.85l-3,.34a19.78,19.78,0,0,0-2.15-3.84l1.79-2.41a22.72,22.72,0,0,0-1.94-2.21l-2.58,1.52a19.65,19.65,0,0,0-3.6-2.67l.65-2.94a22.4,22.4,0,0,0-2.64-1.19l-1.74,2.43a20.92,20.92,0,0,0-4.43-1l-.6-2.93c-.48,0-1-.05-1.44-.05s-1,0-1.45.05l-.6,2.93a21.05,21.05,0,0,0-4.43,1l-1.73-2.43a22.54,22.54,0,0,0-2.65,1.19l.65,2.94a20,20,0,0,0-3.6,2.67L185,275.67a22.62,22.62,0,0,0-1.93,2.21l1.78,2.41a20.32,20.32,0,0,0-2.15,3.84l-3-.34a21.83,21.83,0,0,0-.88,2.85l2.61,1.49a20.3,20.3,0,0,0-.38,3.93c0,.11,0,.22,0,.34l-2.85.9a23.27,23.27,0,0,0,.36,3l3,.29a19.79,19.79,0,0,0,1.35,3.95l-2.24,2a24.51,24.51,0,0,0,1.58,2.66l2.86-.95a21.14,21.14,0,0,0,2.76,3L186.7,310a23.22,23.22,0,0,0,2.56,1.82l2.22-2a19.41,19.41,0,0,0,3.67,1.6l0,3a24.35,24.35,0,0,0,3.1.65l1.19-2.76a20,20,0,0,0,4,0l1.2,2.76a24.19,24.19,0,0,0,3.09-.65l0-3a20,20,0,0,0,3.67-1.6l2.22,2a22.81,22.81,0,0,0,2.55-1.83l-1.24-2.72a20.56,20.56,0,0,0,2.76-3l2.86.95a24.51,24.51,0,0,0,1.58-2.66l-2.24-2a19.79,19.79,0,0,0,1.35-3.95Zm-22.81,5.89A10.27,10.27,0,1,1,211.63,292,10.27,10.27,0,0,1,201.37,302.21Z"/><path class="cls-2" d="M196.62,304.38a14.2,14.2,0,0,0,12.63-2c3.64-2.76,6-8.32,4.62-12.4.56,4.36-1.81,8.78-5.36,11.37S201,304.56,196.62,304.38Z"/><ellipse class="cls-1" cx="305.92" cy="267.87" rx="41.79" ry="30.07" transform="translate(-100.6 276.93) rotate(-42.48)"/><path class="cls-13" d="M462.07,451c-3.13-21.15-8.79-42.16-11.93-63.76l-98.45.28c-4.59,20.89-8,42.11-10.55,63.48Z"/><path class="cls-11" d="M402.46,451C401,438.05,399.84,425,399,412a.37.37,0,0,0-.4-.35.38.38,0,0,0-.35.4c.89,13,2.08,26,3.51,39Z"/><path class="cls-11" d="M410.75,442.25c-.45,3-1.06,5.89-1.72,8.75h9.57c-2.86-10.47-5.79-23-7.47-44.16C409.12,418.06,412.89,430.5,410.75,442.25Z"/><rect class="cls-11" x="357.69" y="404.37" width="79.86" height="10.19"/><rect class="cls-13" x="388.03" y="403.18" width="2.26" height="12.58"/><rect class="cls-13" x="414.85" y="403.18" width="2.26" height="12.58"/><rect class="cls-2" x="396.75" y="400.29" width="12.5" height="14.53"/><path class="cls-14" d="M532.43,218.89c0-.92-.26-2.29.13-3.12s1-1.56,1.81-1.24c.55.2,2,2.66,2.23,3.2.9,2.09-.16,3.79.89,5.81,1.7,3.26,4.56,6.16,5,9.82-7.47,3.65-10.89,8.07-13.3,16-2.28-2.49-2.61-6.26-1.92-9.57s2.25-6.36,3.34-9.55A35.25,35.25,0,0,0,532.43,218.89Z"/><path class="cls-14" d="M566,216.61a1.07,1.07,0,0,0-1.2-.33,3,3,0,0,0-1.1.72c-3.53,3.16-7,6.57-11,9-.34-.17-.68-.33-1-.48a31.74,31.74,0,0,0,9.23-10.13,1.39,1.39,0,0,0,.2-.51c.05-.51-.53-.9-1-.85a2.47,2.47,0,0,0-1.32.7c-2.25,1.88-4.21,4.09-6.31,6.14a32.23,32.23,0,0,1-4.11,3.45l-.12,0-.48-.13a30.62,30.62,0,0,0,6.88-7.26,1.31,1.31,0,0,0,.3-.78.89.89,0,0,0-.65-.74,1.85,1.85,0,0,0-1,.07c-1.48.48-2.52,1.78-3.57,2.94a29.41,29.41,0,0,1-6.76,5.51c-.1,0-.21,0-.32.08a10.14,10.14,0,0,0-3.63,2.14A28.72,28.72,0,0,0,528.74,246l1.81-.25a50.52,50.52,0,0,0,8.39,2.11A65.08,65.08,0,0,1,557.54,229c-.57-.44-1.16-.85-1.77-1.24a34.51,34.51,0,0,0,9.86-9.44C566,217.78,566.32,217.11,566,216.61Z"/><path class="cls-15" d="M553.76,228c-5.21.85-10.77.64-15.44,3.09-3.42,1.79-5.18,6.42-6.8,9.93s-4,9.28-4.83,13.06a84,84,0,0,1,15,1.8c.38-12.42,4.33-12.21,7.7-15.53s7.39-5.9,11-8.91,7.7-7.31,9.16-11.81C567.21,217,564.86,226.24,553.76,228Z"/><path class="cls-1" d="M543,258.08c-.08-2.92.39-6.66.31-9.58-5.48-.2-11.52.32-17-.1a58.17,58.17,0,0,1-.75,7.91Q534.26,257.62,543,258.08Z"/><path class="cls-8" d="M544.64,255.16c-6.49.26-14.4-1.12-20.64-2.91l-.56,6.08c-2.3,14.81-5,20-12.58,34.92-.48.93-4.32,8.65-4.86,9.55-13-4.45-29.72-14.44-41.15-22.05-1.45-1-3.85-2.54-5.38-3.47,1.14,13.5.43,30.25-4.67,42.81,4,1.12,8.43,2.92,12.48,3.72,12.33,2.43,22.05,4.68,34.37,7.11a93.1,93.1,0,0,0,12.77,1.74c5.75.29,13-8.27,15.36-13.37,4.27-9.23,5.62-14.75,8.27-24.55C538.94,291.42,545.36,255.13,544.64,255.16Z"/><path class="cls-16" d="M542,255.2c-3.64,21.14-6,42.72-20.54,58.71a260.44,260.44,0,0,1-61.61-20.75c-.35,9.4-1.82,19-5,26.93,4,1.12,8.43,2.92,12.48,3.72,12.33,2.43,22.05,4.68,34.37,7.11a93.1,93.1,0,0,0,12.77,1.74c5.75.29,13-8.27,15.36-13.37,4.27-9.23,5.62-14.75,8.27-24.55.89-3.32,7.31-39.61,6.59-39.58C543.76,255.19,542.88,255.2,542,255.2Z"/><path class="cls-11" d="M512.07,328.49c-19.13-1.82-37.47-7.62-55-15.32a58.4,58.4,0,0,1-2.27,6.92c4,1.12,8.43,2.92,12.48,3.72,12.33,2.43,22.05,4.68,34.37,7.11a93.1,93.1,0,0,0,12.77,1.74c4,.2,8.66-3.83,12-8A19.34,19.34,0,0,1,512.07,328.49Z"/><path class="cls-8" d="M373.54,270.63a33.24,33.24,0,0,1,1.07-8.2,12.64,12.64,0,0,1,4.51-6.78,17.21,17.21,0,0,1,5.65-2.32A87.72,87.72,0,0,1,423.45,252c4.18.8,8.49,2,11.64,4.87a30.51,30.51,0,0,1,8.41,15c-4.41-4.18-11.92-7-17.82-8.46a83.13,83.13,0,0,0-18.09-1.82c-11.75-.17-23.91.53-34.4,5.83l.91-.42Z"/><path class="cls-1" d="M439.19,262.06a.39.39,0,0,1-.3-.14,38.51,38.51,0,0,0-4.33-4.77c-4.08-3.79-10.53-4.48-15.71-5-11.28-1.21-22.26-2.05-32.75,1-4.75,1.39-8.46,4-10.46,7.42a.4.4,0,0,1-.52.13.38.38,0,0,1-.13-.52c2.1-3.55,6-6.31,10.9-7.75,10.61-3.12,22.14-2.24,33-1.07,5.29.57,11.88,1.28,16.14,5.24a40,40,0,0,1,4.42,4.86.37.37,0,0,1-.3.6Z"/><path class="cls-1" d="M359.94,354.53c2,13.5-2.52,32.16-4.86,48.28h95.16c-3.13-25.09-4.66-54.25,4.29-76.85,2.6-6.58,5.45-13.13,6.89-20.07s1.35-14.46-1.75-20.82-9.05-11.1-15.28-14.59c-14.07-7.88-30.5-10.88-46.57-10.21-13.94.59-32.15,6.22-45.36,10.83-4.3,6.85-4.35,8.51-5.62,14.84-1.8,8.92-2.31,17.5-.33,26.25A150.79,150.79,0,0,1,359.94,354.53Z"/><path class="cls-11" d="M459.67,282.63c-3.14-5.82-9.05-10-15.28-13.16a79,79,0,0,0-8.92-3.82C438.9,297.29,424.89,327.18,422,358a95,95,0,0,0,2.59,30.81h25.65c-3.13-22.62-4.66-48.93,4.29-69.3,2.6-5.94,5.45-11.85,6.89-18.11S462.77,288.37,459.67,282.63Z"/><path class="cls-15" d="M421.6,262.3a102.33,102.33,0,0,1,.36-19.72c-7.2,1.09-23.78-.35-30.5-2.85L386.54,267l-.07,0c3.51,6.26,9.18,11.1,15.58,15.1C410,276.66,417.05,270.49,421.6,262.3Z"/><path class="cls-14" d="M421.6,262.3a102.33,102.33,0,0,1,.36-19.72c-7.17,1.09-23.64-.34-30.41-2.82-2.18,15.62,6.49,26.8,19.74,35.15A49.67,49.67,0,0,0,421.6,262.3Z"/><path class="cls-11" d="M422,242.58c-7.2,1.09-23.78-.35-30.5-2.85l-.75,4.15c7.25,18.65,16.66,18.84,28.33,18.88a8.6,8.6,0,0,0,2.55-.39A103.06,103.06,0,0,1,422,242.58Z"/><path class="cls-15" d="M432,231.32a2.05,2.05,0,0,1,3.85.86,4.18,4.18,0,0,1-1.18,2.63l-3.4,4.38c-1.11,1.43-2.07,3.41-3.85,3.75-1.59.3-3.74.54-5.06-.29Z"/><path class="cls-14" d="M433.8,232.12A1.46,1.46,0,0,1,434,234a5.31,5.31,0,0,1-1.46,1.41,3,3,0,0,0-1.22,1.59,5.06,5.06,0,0,1-.23,1.3,2.59,2.59,0,0,1-.89.78c-.73.52-1.29,1.24-2,1.83a3.17,3.17,0,0,1-2.43.93c2.73-2.2,3.42-6.08,5.6-8.82a3.1,3.1,0,0,1,1-.91A1.34,1.34,0,0,1,433.8,232.12Z"/><path class="cls-15" d="M391.37,213a1.68,1.68,0,0,0-1.17-2.25,2.51,2.51,0,0,0-2.51,1.13,5.12,5.12,0,0,0-.76,2.79c0,1,.05,2-.05,2.93-.17,1.62-.85,3.16-1,4.79a7.08,7.08,0,0,0,3.41,6.47c1.52-5.73,1.11-7.57,2.63-13.31Z"/><path class="cls-14" d="M388.22,214.15c-.45,2,1,4.22,0,6-.24.41-.6.75-.88,1.14a1.6,1.6,0,0,0-.34,1.35c.33,1,2.09,1.15,2.21,2.23l1.92-8.32a4.91,4.91,0,0,0,.13-2.49,1.68,1.68,0,0,0-1.9-1.25A1.77,1.77,0,0,0,388.22,214.15Z"/><path class="cls-15" d="M401.73,255.76c6.36,1.63,14.52-3.59,19.34-8,7.51-6.95,12.69-14.23,15.32-24.12s-.53-22-9.55-26.8c-6.84-3.67-12.91-5-20.38-2.86a16,16,0,0,0-10.08,7.37c-1.3,2-5.31,10.45-5.77,12.8-1.93,10-2.49,16.6-.13,26.51C392,247.06,395.32,254.12,401.73,255.76Z"/><path class="cls-14" d="M426.84,196.8c-.93-.5-1.84-1-2.74-1.35l-6.91,22.49-1.7.94-.43,3-2.68,10.74v3.5l-4.13,2.5-.94,4.32L404.94,249l-1.88,1.06-1.13,5.74c6.33,1.47,14.37-3.67,19.14-8.08,7.51-6.95,12.69-14.23,15.32-24.12S435.86,201.64,426.84,196.8Z"/><path class="cls-11" d="M407,247.07c-2,.72-4.38-.21-5.92-1.61a5.39,5.39,0,0,1-1.64-4.9,18.18,18.18,0,0,0,10.32,4.22A4.91,4.91,0,0,1,407,247.07Z"/><path class="cls-17" d="M408.53,217.33a32.62,32.62,0,0,0-10.69-.91l-.12-1.54a34.27,34.27,0,0,1,11.19,1Z"/><path class="cls-17" d="M427.81,228.32a36.11,36.11,0,0,0-6.3-5.93l.92-1.25a38,38,0,0,1,6.56,6.18Z"/><path class="cls-11" d="M419.78,228.41a1.24,1.24,0,0,0-.25.76c0,.81.82,1.33,1.54,1.69a1.7,1.7,0,0,0,1.57.23,1.32,1.32,0,0,0,.46-1.39,2.32,2.32,0,0,0-1.28-1.76A1.71,1.71,0,0,0,419.78,228.41Z"/><path class="cls-11" d="M404.13,221.78a1.22,1.22,0,0,1-.34.73c-.58.56-1.59.29-2.4,0-.57-.21-1.21-.5-1.39-1.07a1.25,1.25,0,0,1,.62-1.34,2.39,2.39,0,0,1,2.25-.25A2,2,0,0,1,404.13,221.78Z"/><path class="cls-11" d="M408.43,240.16a5,5,0,0,1-1.82-.32,5.28,5.28,0,0,1-2.41-2.13,12.53,12.53,0,0,1-1.23-2.86.39.39,0,0,1,.25-.48.38.38,0,0,1,.49.25,11.85,11.85,0,0,0,1.14,2.68,4.55,4.55,0,0,0,2,1.82,7.27,7.27,0,0,0,4-.07c.81-.17,1.6-.41,1.85-1a.39.39,0,1,1,.71.3c-.44,1.06-1.77,1.33-2.41,1.47A13,13,0,0,1,408.43,240.16Z"/><path class="cls-11" d="M394.74,284.36l4.59,6.56a12.81,12.81,0,0,1,1.9,3.4,40.93,40.93,0,0,1,5.75-.49c1.68-4.17,3.2-8.42,4.53-12.71a47,47,0,0,0-17.71.93Z"/><path class="cls-11" d="M406.83,386.2q3.9-5.77,7.79-11.57c-4-27.71-3.29-56-7.42-83.66a24.52,24.52,0,0,1-6.05-.2c1.44,29.09-3.31,58.14-3.17,87.26Z"/><path class="cls-2" d="M383,261a2.14,2.14,0,0,0-.72.86,2.23,2.23,0,0,0,0,1.2c2.16,10.27,4.91,18.79,11.16,27.22,2.83-3.75,9.62-6.49,12.75-10-5.94-4.83-12.93-10.58-16.26-17.47a13.21,13.21,0,0,1-1.7-6.29Z"/><path class="cls-2" d="M403.08,280.09c4.92,2.91,9.17,5.66,12.26,11.79A86.2,86.2,0,0,0,428,263.83a38.5,38.5,0,0,1-6.51-5.37c-1.63,5.54-5.56,10.09-9.6,14.23A45.89,45.89,0,0,1,403.08,280.09Z"/><path class="cls-2" d="M338.73,260.76a26,26,0,0,0,.07-10.55,13.87,13.87,0,0,0-5.74-8.63,26.92,26.92,0,0,1,3.09,12.47,79.92,79.92,0,0,1-1,12.92,21.48,21.48,0,0,1-1.69,6.83A30.83,30.83,0,0,0,338.73,260.76Z"/><path class="cls-11" d="M404.82,189a2.92,2.92,0,0,0-1.54.17c-3.78,1.21-5.17.43-7,3.94a68.4,68.4,0,0,0-5.21,15.3c-.28,1.77-1.57,8.35-1,10,1.15-.46,3.19-6.41,3.86-7.45,2.51-3.83,5.83-7.33,10.09-9,3.18-1.27,7-1.63,9.21-4.23-3.1-1.94-4.42-5.84-7.27-8.12A2.94,2.94,0,0,0,404.82,189Z"/><path class="cls-11" d="M435.44,208c-2.51,3.12-4.72,6.92-3.51,10.74,2.54,8-2.21,14.06-1,16.67.4.12,3.11-4.89,3.3-5.26,2.24-4.46,5.2-7.6,7.44-12.06.81-1.6,1.28-6.1,1.44-7.88.32-3.58-1.37-4.76-4.1-5.92a9.45,9.45,0,0,0-2.23-.55,1.42,1.42,0,0,0-1.57.84Z"/><path class="cls-11" d="M415.32,183.59a16.71,16.71,0,0,1-10.61-8.09,22.35,22.35,0,0,0,.16,8.85,8.06,8.06,0,0,1-2.35-2.41c-1.12,3.2-2,5.26-1.51,8.27.53,3.26,1.54,8,4.16,10s4,3.41,7,4.69c4.32,1.81,8.66,1.5,13.28,2.21,3.39.52,4,.86,5.86,2.34s2.55,6.73,2.74,9.12c3.28-5.31,7.51-15.8,4.42-21.22-3.29-5.79-9-6.54-14.32-10.55-3.19-2.41-6.92-4.85-7.73-8.77A12.25,12.25,0,0,0,415.32,183.59Z"/><path class="cls-2" d="M403.55,190.67a42.91,42.91,0,0,0-1.06-5.16,7.22,7.22,0,0,0,1.58,6.75A3.13,3.13,0,0,1,403.55,190.67Z"/><path class="cls-2" d="M419.39,199a8.4,8.4,0,0,0,3.4,1.67c-3.41-2.8-6.87-5.66-9.28-9.35A18,18,0,0,0,419.39,199Z"/><path class="cls-2" d="M438.73,203.2c0-2.42-.59-5-2.35-6.66a1,1,0,0,0-.53-.31c-.72-.09-.89,1.1-1.56,1.39s-1.29-.45-1.94-.77-1.63-.18-2.37-.49c-.3-.13-.57-.33-.86-.47-1.41-.65-3.25.19-4.52-.7-.47-.33-1-.9-1.48-.65-.23.11-.4.39-.66.4a.77.77,0,0,1-.35-.12l-3-1.64a12.18,12.18,0,0,0,7,6.91L424.82,197a4.56,4.56,0,0,0,3,1c.72-.11,1.44-.57,2.13-.32a3,3,0,0,1,1.05.94,1.26,1.26,0,0,0,1.24.49c.31-.11.58-.45.9-.37s.43.53.74.66.73-.23,1.13-.23c.94,0,.93,1.8,1.87,1.91.27,0,.57-.09.8.05a.78.78,0,0,1,.25.34Z"/><path class="cls-8" d="M384.53,282.94c-.73-8-9.1-14.95-4.54-21.39a292.23,292.23,0,0,0-31.28,7.88c-4.46,6.18-4.51,7.67-5.83,13.38-1.87,8-2.4,15.78-.35,23.67,6.46,11.26,12.22,39.77,11.22,62.52-.72,16.38-5.5,16.5-17.75,77.5,1.5-.07,20.39-5.09,22-5.17C388.33,420.67,402.77,337.65,384.53,282.94Z"/><path class="cls-11" d="M350.36,387.41a.54.54,0,0,1-.39-.2.46.46,0,0,1-.06-.5.63.63,0,0,1,.65-.34H371.5a.37.37,0,0,1,.38.37.38.38,0,0,1-.38.38H350.77a.48.48,0,0,1-.31.27Z"/><path class="cls-11" d="M337.17,444.71a.37.37,0,0,1-.08-.74c2.46-.51,4.79-.87,7-1.22,5.75-.88,10.72-1.64,14.65-4.55,18.37-13.64,25.73-46.33,21.88-97.16-.09-1.2-.16-2.16-.2-2.85-.15-2.46,3.59-5.31,7.54-8.34.82-.62,1.63-1.24,2.4-1.85-2-1.56-4.65-3.27-7.27-4.93a82.72,82.72,0,0,1-7.7-5.28.38.38,0,0,1-.12-.41c2.45-7.23,2.77-16.85.89-26.4l-.06-.27c-1.68-8.56-3.14-15.95-3.18-24.54a.37.37,0,0,1,.37-.38h0a.38.38,0,0,1,.38.38c0,8.52,1.49,15.87,3.17,24.39l.05.27c1.89,9.57,1.59,19.22-.83,26.54a86.33,86.33,0,0,0,7.43,5.06,83,83,0,0,1,7.71,5.28.37.37,0,0,1,.14.29.44.44,0,0,1-.14.29c-.88.71-1.83,1.43-2.78,2.16-3.63,2.77-7.37,5.63-7.25,7.7,0,.68.11,1.64.2,2.83,3.87,51.11-3.59,84-22.19,97.82-4.07,3-9.12,3.8-15,4.7-2.25.34-4.57.69-7,1.2Z"/><path class="cls-8" d="M360.3,273.65c-3.4-2.71-8.25-4.4-12.56-3.08-4.66,1.44-7.23,5.82-9.22,9.86a213.48,213.48,0,0,0-21.85,85.47c4.54,3.18,13.69,6.54,18.4,3.57s10.81-6.6,12.61-11.49,2.73-10,4.54-14.91c2.75-7.44,4.44-17.64,7.95-24.9,4.5-9.34,7.71-14.57,8.83-22.34A25,25,0,0,0,360.3,273.65Z"/><path class="cls-16" d="M367,282.46c.51,2.71.72,5.29-1,7.54-14,18-17,38-27,57-3,6-10,12-18,11a28.2,28.2,0,0,1-3.76-1.1c-.25,3-.45,6-.57,9,4.54,3.18,13.69,6.54,18.4,3.57s10.81-6.6,12.61-11.49,2.73-10,4.54-14.91c2.75-7.44,4.44-17.64,7.95-24.9,4.5-9.34,7.71-14.57,8.83-22.34A24.77,24.77,0,0,0,367,282.46Z"/><path class="cls-11" d="M355,336.59h-.07a.38.38,0,0,1-.3-.44,101.13,101.13,0,0,1,9.32-26.67l.53-1.05c.8-1.58,1.62-3.22,2.28-4.88,2.74-6.89,2.25-16.69-1.22-24.4a.37.37,0,0,1,.19-.49.38.38,0,0,1,.5.19c3.59,8,4.08,17.8,1.23,25-.67,1.69-1.5,3.34-2.31,4.93l-.53,1.06a100,100,0,0,0-9.25,26.47A.37.37,0,0,1,355,336.59Z"/><path class="cls-8" d="M460,329c3.12-6.18,5.05-14.05,6.77-20.57s2.33-19.72-1.38-25.7S454.55,272.31,447.1,269a101.59,101.59,0,0,0-11.69-4.26c5.48,3.89,6.35,28.3,4.44,36.28-6.4,27-14.43,48-15.49,72.92-.64,15.13,8.84,67,24,66.35,1.4-.06,13.35.56,14.67.5C458.55,415.78,448.15,352.5,460,329Z"/><path class="cls-16" d="M430.82,349.33c-2.08,11.45-5.86,28.5,1.43,38.92,3.08-28.42,8.74-34.87,13.87-49.37,5.21-14.71,7.92-29.62,10.74-43.72,1.34-8.66-1.18-16.89-5.6-24.15q-2-1-4.16-2c-1.34-.6-2.7-1.14-4.08-1.67C450.7,294.69,434.87,322,430.82,349.33Z"/><path class="cls-11" d="M455.75,387.38h-9.5a.38.38,0,0,1,0-.76h9.5a.38.38,0,0,1,0,.76Z"/><path class="cls-11" d="M463,322.91a.31.31,0,0,1-.13,0,.37.37,0,0,1-.22-.48c.5-1.29.89-2.65,1.26-4,2.07-7.26,4.2-14.77,3.92-22.44a36.44,36.44,0,0,0-1.86-10.19.37.37,0,0,1,.24-.47.37.37,0,0,1,.47.23,36.86,36.86,0,0,1,1.9,10.4c.29,7.8-1.86,15.36-3.95,22.68a40.67,40.67,0,0,1-1.28,4A.38.38,0,0,1,463,322.91Z"/><path class="cls-8" d="M444,267.89c2.67,8.21,3.38,16.92,4.07,25.53q.94,11.63,1.87,23.26a3.5,3.5,0,0,1-.12,1.64,3.67,3.67,0,0,1-1.56,1.51,91.08,91.08,0,0,0-8.57,6.29,1.84,1.84,0,0,0-.76,1,2,2,0,0,0,.23,1.13l3.9,9.18a5.05,5.05,0,0,1,.54,2,5.19,5.19,0,0,1-1,2.5,83.84,83.84,0,0,0-11.9,43.79,20.71,20.71,0,0,1-1.42-3.83c-2.35-8.31-2.28-17.15-1.05-25.69s3.58-16.89,5.8-25.24q2.7-10.21,5.12-20.5c1.79-7.62,3.47-15.33,3.83-23.16a69.26,69.26,0,0,0-2.48-21.72Z"/><path class="cls-11" d="M456.36,440.18a26.1,26.1,0,0,1-8.16-1c-4.83-1.79-8.42-7.63-13.22-21.56-5-14.39-4.65-31.76-4.64-31.94a83.47,83.47,0,0,1,12-44,5,5,0,0,0,.92-2.31,4.93,4.93,0,0,0-.51-1.84l-3.91-9.18a2.23,2.23,0,0,1-.24-1.36,2.15,2.15,0,0,1,.88-1.19,90.08,90.08,0,0,1,8.61-6.31,3.35,3.35,0,0,0,1.41-1.35,3.24,3.24,0,0,0,.1-1.46l-1.87-23.26C447,285,446.3,276.22,443.62,268a.38.38,0,0,1,.24-.47.36.36,0,0,1,.47.24c2.71,8.3,3.41,17.11,4.1,25.62l1.87,23.26a3.05,3.05,0,0,1-1.85,3.5,87.41,87.41,0,0,0-8.54,6.26,1.57,1.57,0,0,0-.63.76,1.63,1.63,0,0,0,.2.91l3.91,9.18a5.44,5.44,0,0,1,.57,2.15,5.55,5.55,0,0,1-1,2.67,82.82,82.82,0,0,0-11.85,43.61c0,.18-.32,17.42,4.6,31.69,4.72,13.68,8.18,19.4,12.77,21.1,4.37,1.62,14.07.66,14.17.65a.38.38,0,0,1,.41.33.37.37,0,0,1-.33.41C462.49,439.9,459.65,440.18,456.36,440.18Z"/><path class="cls-14" d="M292.31,280c1.92,2.29,5.08,2.22,7.86,2.26a44.59,44.59,0,0,1,10.39,1.35c2.9.72,6,1.71,8.7.24,3.18-1.74,4.57-6.42,7.85-7.86a2.84,2.84,0,0,1,2.51-.06,2.14,2.14,0,0,1,1,2.42,3.87,3.87,0,0,1-1,1.36c-2.19,2.33-2.85,6-2.76,9.39s.82,6.76.9,10.16-.58,7.07-2.78,9.38q-15.56-12.1-30.25-25.56Z"/><path class="cls-18" d="M292,274.34c5.83,5.67,13.43,8.3,20.79,10.79a45.84,45.84,0,0,1-8.34,1.4,15.39,15.39,0,0,1-8.22-1.75c-5-2.82-7.74-8.87-10.57-14.32C288.12,270.27,290.12,272.52,292,274.34Z"/><path class="cls-15" d="M323.63,294.85c-2.22-2.78-5.36-4.35-8.41-5.81a76.1,76.1,0,0,0-9.44-4c-4.39-1.42-9.19-2.21-12.64-5.61-1.79-1.77-3.06-4.1-4.55-6.19s-2.63-4.69-5.73-4.5a42.39,42.39,0,0,0,12.63,20c5.5,4.74,12.32,7.89,16.24,14.34a29.27,29.27,0,0,1,2.64,5.81c4.41-1.34,8.71-3,13-4.6A20.67,20.67,0,0,0,323.63,294.85Z"/><path class="cls-1" d="M333.46,310.5l-2-9.25q-11.7.25-23.39,1.19.86,6.09,1.72,12.16A183.86,183.86,0,0,0,333.46,310.5Z"/><path class="cls-11" d="M343.94,361.45a13.49,13.49,0,0,0,2.95-6.85,49.15,49.15,0,0,0-2.75-18.43c-4.84-12.74-6.06-16.35-8.86-29.69-6.86,1.9-20.74,4.16-27.86,4.17-.42,11.52,1.05,25,2.6,36.4.6,4.43,1.36,8.9,3.22,13s4.94,7.73,9.07,9.44a16.07,16.07,0,0,0,12.11-.25A23.24,23.24,0,0,0,343.94,361.45Z"/><path class="cls-16" d="M337.37,358.83c3.89-18.5-8.59-33.36-10.24-50.53a126.48,126.48,0,0,1-19.71,2.35c-.42,11.52,1.05,25,2.6,36.4.6,4.43,1.36,8.9,3.22,13s4.94,7.73,9.07,9.44a15.22,15.22,0,0,0,8.45.8A22,22,0,0,0,337.37,358.83Z"/><circle class="cls-6" cx="304.27" cy="240.66" r="17.25" transform="translate(0.56 482.02) rotate(-76.82)"/><circle class="cls-11" cx="304.27" cy="240.66" r="14.64" transform="translate(0.5 481.94) rotate(-76.8)"/><circle class="cls-5" cx="305.09" cy="241.48" r="13.82"/><path class="cls-1" d="M303.23,251.56v-2.08a12.44,12.44,0,0,1-7-3.11l2.09-2.48a9.92,9.92,0,0,0,4.93,2.48v-5.54a11.56,11.56,0,0,1-4.72-2,4.59,4.59,0,0,1-1.5-3.73,5.2,5.2,0,0,1,1.73-4,7,7,0,0,1,4.49-1.72v-1.42h1.83v1.45A12,12,0,0,1,311,231.5l-1.86,2.63a9.14,9.14,0,0,0-4.08-1.66v5.37h.09a11.64,11.64,0,0,1,4.82,2.08,4.73,4.73,0,0,1,1.54,3.81,5.19,5.19,0,0,1-1.77,4.07,7.43,7.43,0,0,1-4.68,1.71v2.05Zm-2-18.42a2.07,2.07,0,0,0-.73,1.6,2,2,0,0,0,.57,1.51,5.9,5.9,0,0,0,2.17,1.07v-4.93A3.45,3.45,0,0,0,301.22,233.14Zm6,12.52a2.2,2.2,0,0,0,.17-3.24,6.2,6.2,0,0,0-2.34-1.1v5.14A4.1,4.1,0,0,0,307.23,245.66Z"/><path class="cls-10" d="M295.54,277.53a21.5,21.5,0,0,1-5.77,5.67c3.64,2.21,8.44,2.95,13.07,3.44s9.45.81,14.07,1.62a34.77,34.77,0,0,1,12.78,4.5,23.2,23.2,0,0,1,6.93-7.16,46.68,46.68,0,0,0-14.74-3.81c-4.65-.36-9.37.15-14-.31A30.1,30.1,0,0,1,295.54,277.53Z"/><rect class="cls-9" x="284.98" y="258.77" width="38.17" height="13.09"/><rect class="cls-11" x="284.98" y="262.3" width="38.17" height="0.55"/><rect class="cls-11" x="284.98" y="269.08" width="38.17" height="1.39"/><rect class="cls-1" x="284.98" y="266.85" width="38.17" height="0.36"/><rect class="cls-10" x="284.98" y="258.77" width="38.17" height="2.52"/><rect class="cls-9" x="293.79" y="271.93" width="38.17" height="13.09"/><rect class="cls-1" x="293.79" y="271.93" width="38.17" height="0.82"/><rect class="cls-1" x="293.79" y="275.28" width="38.17" height="0.4"/><rect class="cls-11" x="293.79" y="278.35" width="38.17" height="0.4"/><rect class="cls-1" x="293.79" y="279.85" width="38.17" height="0.4"/><rect class="cls-11" x="293.79" y="283.84" width="38.17" height="0.4"/><path class="cls-10" d="M322.54,257.08a15.47,15.47,0,0,1-3.09-4.59,21.92,21.92,0,0,1-7.41,2.22,87.65,87.65,0,0,1-26.86.16,8.67,8.67,0,0,1-4.11,3.46c5,1.58,10.59,2,16.05,2C305.78,260.41,314.6,259.67,322.54,257.08Z"/><path class="cls-1" d="M603.27,172.57a70.48,70.48,0,0,0-141,0Z"/><path class="cls-10" d="M596,59.2c-8.6,2.28-17.5,3.89-25.47,7.85S555.44,77.9,553.9,86.67a5.83,5.83,0,0,0,0,2.2c-2.22,2.66-4.84,5.19-6.57,6.11V79.72c3.07-1.76,13.31-8.19,13.31-15.86,0-9-14.17-32-14.17-32s-14.17,22.93-14.17,32c0,7.45,9.67,13.74,13,15.7v14.6A20.87,20.87,0,0,1,539.2,89a5.8,5.8,0,0,0,0-2.31c-1.54-8.77-8.68-15.66-16.65-19.62s-16.86-5.57-25.47-7.85a31.41,31.41,0,0,0,39.43,32,5.8,5.8,0,0,0,1.47-.56,22.82,22.82,0,0,0,7.33,5.8v72.32h2V96.65a22.7,22.7,0,0,0,7.84-6,6,6,0,0,0,1.47.56A31.41,31.41,0,0,0,596,59.2Z"/><path class="cls-9" d="M559.51,86.52a.4.4,0,0,1-.29-.12.38.38,0,0,1,0-.53A189.25,189.25,0,0,1,587.51,65.4a.37.37,0,0,1,.38.64,189,189,0,0,0-28.14,20.39A.38.38,0,0,1,559.51,86.52Z"/><path class="cls-9" d="M533.87,86.52a.38.38,0,0,1-.25-.09A189,189,0,0,0,505.48,66a.37.37,0,0,1-.13-.51.37.37,0,0,1,.51-.13,189.25,189.25,0,0,1,28.25,20.47.38.38,0,0,1,0,.53A.39.39,0,0,1,533.87,86.52Z"/><path class="cls-9" d="M546.33,66.05a.38.38,0,0,1-.37-.38V38a.38.38,0,1,1,.75,0V65.67A.38.38,0,0,1,546.33,66.05Z"/><rect class="cls-11" x="492.93" y="145.7" width="4.45" height="14.05"/><rect class="cls-11" x="514.41" y="146.18" width="3.53" height="13.57"/><rect class="cls-11" x="518.7" y="133.27" width="3.22" height="26.48"/><rect class="cls-11" x="541.25" y="120.68" width="3.07" height="39.07"/><rect class="cls-11" x="554.19" y="137.41" width="9.13" height="22.34"/><rect class="cls-11" x="550" y="130.58" width="9.13" height="29.17"/><rect class="cls-11" x="478.2" y="150.49" width="3.99" height="9.26"/><rect class="cls-11" x="472.52" y="153.83" width="5.83" height="5.92"/><polygon class="cls-11" points="541.97 159.75 541.97 102.52 533.03 102.52 533.03 97.47 527.37 97.47 527.37 102.52 525.53 102.52 525.53 99.79 522.11 99.79 522.11 102.52 520.67 102.52 520.67 159.75 541.97 159.75"/><rect class="cls-2" x="526.68" y="105.54" width="1.99" height="0.72"/><rect class="cls-2" x="526.68" y="106.6" width="1.99" height="1.3"/><rect class="cls-2" x="530.64" y="105.54" width="1.99" height="0.72"/><rect class="cls-2" x="530.64" y="106.6" width="1.99" height="1.3"/><rect class="cls-2" x="534.61" y="105.54" width="1.99" height="0.72"/><rect class="cls-2" x="534.61" y="106.6" width="1.99" height="1.3"/><rect class="cls-2" x="538.57" y="105.54" width="1.99" height="0.72"/><rect class="cls-2" x="538.57" y="106.6" width="1.99" height="1.3"/><rect class="cls-2" x="526.68" y="112.19" width="1.99" height="0.72"/><rect class="cls-2" x="526.68" y="113.25" width="1.99" height="1.3"/><rect class="cls-2" x="530.64" y="112.19" width="1.99" height="0.72"/><rect class="cls-2" x="530.64" y="113.25" width="1.99" height="1.3"/><rect class="cls-2" x="534.61" y="112.19" width="1.99" height="0.72"/><rect class="cls-2" x="534.61" y="113.25" width="1.99" height="1.3"/><rect class="cls-2" x="538.57" y="112.19" width="1.99" height="0.72"/><rect class="cls-2" x="538.57" y="113.25" width="1.99" height="1.3"/><rect class="cls-2" x="526.68" y="118.85" width="1.99" height="0.72"/><rect class="cls-2" x="526.68" y="119.91" width="1.99" height="1.3"/><rect class="cls-2" x="530.64" y="118.85" width="1.99" height="0.72"/><rect class="cls-2" x="530.64" y="119.91" width="1.99" height="1.3"/><rect class="cls-2" x="534.61" y="118.85" width="1.99" height="0.72"/><rect class="cls-2" x="534.61" y="119.91" width="1.99" height="1.3"/><rect class="cls-2" x="538.57" y="118.85" width="1.99" height="0.72"/><rect class="cls-2" x="538.57" y="119.91" width="1.99" height="1.3"/><rect class="cls-2" x="526.68" y="125.5" width="1.99" height="0.72"/><rect class="cls-2" x="526.68" y="126.56" width="1.99" height="1.3"/><rect class="cls-2" x="530.64" y="125.5" width="1.99" height="0.72"/><rect class="cls-2" x="530.64" y="126.56" width="1.99" height="1.3"/><rect class="cls-2" x="534.61" y="125.5" width="1.99" height="0.72"/><rect class="cls-2" x="534.61" y="126.56" width="1.99" height="1.3"/><rect class="cls-2" x="538.57" y="125.5" width="1.99" height="0.72"/><rect class="cls-2" x="538.57" y="126.56" width="1.99" height="1.3"/><rect class="cls-2" x="526.68" y="132.15" width="1.99" height="0.72"/><rect class="cls-2" x="526.68" y="133.22" width="1.99" height="1.3"/><rect class="cls-2" x="530.64" y="132.15" width="1.99" height="0.72"/><rect class="cls-2" x="530.64" y="133.22" width="1.99" height="1.3"/><rect class="cls-2" x="534.61" y="132.15" width="1.99" height="0.72"/><rect class="cls-2" x="534.61" y="133.22" width="1.99" height="1.3"/><rect class="cls-2" x="538.57" y="132.15" width="1.99" height="0.72"/><rect class="cls-2" x="538.57" y="133.22" width="1.99" height="1.3"/><rect class="cls-2" x="526.68" y="138.81" width="1.99" height="0.72"/><rect class="cls-2" x="526.68" y="139.87" width="1.99" height="1.3"/><rect class="cls-2" x="530.64" y="138.81" width="1.99" height="0.72"/><rect class="cls-2" x="530.64" y="139.87" width="1.99" height="1.3"/><rect class="cls-2" x="534.61" y="138.81" width="1.99" height="0.72"/><rect class="cls-2" x="534.61" y="139.87" width="1.99" height="1.3"/><rect class="cls-2" x="538.57" y="138.81" width="1.99" height="0.72"/><rect class="cls-2" x="538.57" y="139.87" width="1.99" height="1.3"/><rect class="cls-2" x="526.68" y="145.46" width="1.99" height="0.72"/><rect class="cls-2" x="526.68" y="146.53" width="1.99" height="1.3"/><rect class="cls-2" x="530.64" y="145.46" width="1.99" height="0.72"/><rect class="cls-2" x="530.64" y="146.53" width="1.99" height="1.3"/><rect class="cls-2" x="534.61" y="145.46" width="1.99" height="0.72"/><rect class="cls-2" x="534.61" y="146.53" width="1.99" height="1.3"/><rect class="cls-2" x="538.57" y="145.46" width="1.99" height="0.72"/><rect class="cls-2" x="538.57" y="146.53" width="1.99" height="1.3"/><rect class="cls-2" x="526.68" y="152.12" width="1.99" height="0.72"/><rect class="cls-2" x="526.68" y="153.18" width="1.99" height="1.3"/><rect class="cls-2" x="530.64" y="152.12" width="1.99" height="0.72"/><rect class="cls-2" x="530.64" y="153.18" width="1.99" height="1.3"/><rect class="cls-2" x="534.61" y="152.12" width="1.99" height="0.72"/><rect class="cls-2" x="534.61" y="153.18" width="1.99" height="1.3"/><rect class="cls-2" x="538.57" y="152.12" width="1.99" height="0.72"/><rect class="cls-2" x="538.57" y="153.18" width="1.99" height="1.3"/><polygon class="cls-11" points="483.19 159.75 491.74 159.75 491.74 139.13 492.53 139.13 492.53 138.04 482.53 138.04 482.53 139.13 483.19 139.13 483.19 159.75"/><rect class="cls-2" x="485.05" y="139.91" width="1.02" height="2.02"/><rect class="cls-2" x="487.56" y="139.91" width="1.02" height="2.02"/><rect class="cls-2" x="490.06" y="139.91" width="1.02" height="2.02"/><rect class="cls-2" x="485.05" y="143.79" width="1.02" height="2.02"/><rect class="cls-2" x="487.56" y="143.79" width="1.02" height="2.02"/><rect class="cls-2" x="490.06" y="143.79" width="1.02" height="2.02"/><rect class="cls-2" x="485.05" y="147.67" width="1.02" height="2.02"/><rect class="cls-2" x="487.56" y="147.67" width="1.02" height="2.02"/><rect class="cls-2" x="485.05" y="151.55" width="1.02" height="2.02"/><rect class="cls-2" x="490.06" y="151.55" width="1.02" height="2.02"/><rect class="cls-2" x="487.56" y="155.43" width="1.02" height="2.02"/><polygon class="cls-11" points="515.14 159.75 515.14 126.84 508.57 126.84 508.57 124.79 502.52 124.79 502.52 126.84 500.68 126.84 500.68 124.92 497.79 124.92 497.79 126.84 496.21 126.84 496.21 159.75 515.14 159.75"/><rect class="cls-2" x="499.63" y="130.08" width="1.35" height="1.43"/><rect class="cls-2" x="499.63" y="132.02" width="1.35" height="1.43"/><rect class="cls-2" x="503.88" y="130.08" width="1.35" height="1.43"/><rect class="cls-2" x="503.88" y="132.02" width="1.35" height="1.43"/><rect class="cls-2" x="508.14" y="130.08" width="1.35" height="1.43"/><rect class="cls-2" x="508.14" y="132.02" width="1.35" height="1.43"/><rect class="cls-2" x="512.39" y="130.08" width="1.35" height="1.43"/><rect class="cls-2" x="512.39" y="132.02" width="1.35" height="1.43"/><rect class="cls-2" x="499.63" y="137.89" width="1.35" height="1.43"/><rect class="cls-2" x="499.63" y="139.83" width="1.35" height="1.43"/><rect class="cls-2" x="503.88" y="137.89" width="1.35" height="1.43"/><rect class="cls-2" x="503.88" y="139.83" width="1.35" height="1.43"/><rect class="cls-2" x="508.14" y="137.89" width="1.35" height="1.43"/><rect class="cls-2" x="508.14" y="139.83" width="1.35" height="1.43"/><rect class="cls-2" x="512.39" y="137.89" width="1.35" height="1.43"/><rect class="cls-2" x="512.39" y="139.83" width="1.35" height="1.43"/><rect class="cls-2" x="499.63" y="145.7" width="1.35" height="1.43"/><rect class="cls-2" x="499.63" y="147.64" width="1.35" height="1.43"/><rect class="cls-2" x="503.88" y="145.7" width="1.35" height="1.43"/><rect class="cls-2" x="503.88" y="147.64" width="1.35" height="1.43"/><rect class="cls-2" x="508.14" y="145.7" width="1.35" height="1.43"/><rect class="cls-2" x="508.14" y="147.64" width="1.35" height="1.43"/><rect class="cls-2" x="512.39" y="145.7" width="1.35" height="1.43"/><rect class="cls-2" x="512.39" y="147.64" width="1.35" height="1.43"/><rect class="cls-2" x="499.63" y="153.51" width="1.35" height="1.43"/><rect class="cls-2" x="499.63" y="155.45" width="1.35" height="1.43"/><rect class="cls-2" x="503.88" y="153.51" width="1.35" height="1.43"/><rect class="cls-2" x="503.88" y="155.45" width="1.35" height="1.43"/><rect class="cls-2" x="508.14" y="153.51" width="1.35" height="1.43"/><rect class="cls-2" x="508.14" y="155.45" width="1.35" height="1.43"/><rect class="cls-2" x="512.39" y="153.51" width="1.35" height="1.43"/><rect class="cls-2" x="512.39" y="155.45" width="1.35" height="1.43"/><polygon class="cls-11" points="578.64 159.75 578.64 118.37 573.12 118.37 573.12 116.45 566.02 116.45 566.02 118.37 562.6 118.37 562.6 159.75 578.64 159.75"/><rect class="cls-2" x="563.87" y="120.12" width="1.35" height="1.43"/><rect class="cls-2" x="563.87" y="122.06" width="1.35" height="1.43"/><rect class="cls-2" x="566.78" y="120.12" width="1.35" height="1.43"/><rect class="cls-2" x="566.78" y="122.06" width="1.35" height="1.43"/><rect class="cls-2" x="569.7" y="120.12" width="1.35" height="1.43"/><rect class="cls-2" x="569.7" y="122.06" width="1.35" height="1.43"/><rect class="cls-2" x="572.61" y="120.12" width="1.35" height="1.43"/><rect class="cls-2" x="572.61" y="122.06" width="1.35" height="1.43"/><rect class="cls-2" x="563.87" y="126.42" width="1.35" height="1.43"/><rect class="cls-2" x="563.87" y="128.36" width="1.35" height="1.43"/><rect class="cls-2" x="569.7" y="126.42" width="1.35" height="1.43"/><rect class="cls-2" x="569.7" y="128.36" width="1.35" height="1.43"/><rect class="cls-2" x="572.61" y="126.42" width="1.35" height="1.43"/><rect class="cls-2" x="572.61" y="128.36" width="1.35" height="1.43"/><rect class="cls-2" x="575.53" y="126.42" width="1.35" height="1.43"/><rect class="cls-2" x="575.53" y="128.36" width="1.35" height="1.43"/><rect class="cls-2" x="563.87" y="132.71" width="1.35" height="1.43"/><rect class="cls-2" x="563.87" y="134.65" width="1.35" height="1.43"/><rect class="cls-2" x="566.78" y="132.71" width="1.35" height="1.43"/><rect class="cls-2" x="566.78" y="134.65" width="1.35" height="1.43"/><rect class="cls-2" x="569.7" y="132.71" width="1.35" height="1.43"/><rect class="cls-2" x="569.7" y="134.65" width="1.35" height="1.43"/><rect class="cls-2" x="575.53" y="132.71" width="1.35" height="1.43"/><rect class="cls-2" x="575.53" y="134.65" width="1.35" height="1.43"/><rect class="cls-2" x="563.87" y="139.01" width="1.35" height="1.43"/><rect class="cls-2" x="563.87" y="140.95" width="1.35" height="1.43"/><rect class="cls-2" x="566.78" y="139.01" width="1.35" height="1.43"/><rect class="cls-2" x="566.78" y="140.95" width="1.35" height="1.43"/><rect class="cls-2" x="569.7" y="139.01" width="1.35" height="1.43"/><rect class="cls-2" x="569.7" y="140.95" width="1.35" height="1.43"/><rect class="cls-2" x="572.61" y="139.01" width="1.35" height="1.43"/><rect class="cls-2" x="572.61" y="140.95" width="1.35" height="1.43"/><rect class="cls-2" x="563.87" y="145.3" width="1.35" height="1.43"/><rect class="cls-2" x="563.87" y="147.24" width="1.35" height="1.43"/><rect class="cls-2" x="566.78" y="145.3" width="1.35" height="1.43"/><rect class="cls-2" x="566.78" y="147.24" width="1.35" height="1.43"/><rect class="cls-2" x="569.7" y="145.3" width="1.35" height="1.43"/><rect class="cls-2" x="569.7" y="147.24" width="1.35" height="1.43"/><path class="cls-2" d="M609.61,160.42c-8.27-2-16.68-4-25.24-3.78-5,.13-10.41,1-14.84-1.14-1.48-.71-2.86-1.75-4.54-1.87s-3.3.74-4.86,1.39a20.74,20.74,0,0,1-12.44,1,31.76,31.76,0,0,0-5.35-1.18c-3.52-.22-6.77,1.53-10.22,2.16-7.35,1.33-14.74-2.53-22.22-2.1-5.14.29-10,2.61-15.16,2.4-3.65-.14-7.2-1.55-10.82-1.18-2.88.29-5.52,1.67-8.4,1.9-2.59.19-5.16-.56-7.75-.49-3.77.12-7.16,1.95-10.36,3.72l31-.61H605.09Z"/><path class="cls-13" d="M455.73,158.5a78.21,78.21,0,0,0,156.41,0Z"/><path class="cls-16" d="M455.73,158.5c.26,40.3,32,72.89,71.23,72.89s71-32.59,71.23-72.89Z"/><path class="cls-8" d="M458.06,158.5c.23,36.25,28.3,65.56,62.9,65.56s62.66-29.31,62.89-65.56Z"/><path class="cls-2" d="M475.12,160.42H462c1,21.72,16.08,44.87,36.94,49.87C479.23,200.11,474.93,180.31,475.12,160.42Z"/><path class="cls-9" d="M537.7,158.34a7.76,7.76,0,0,0,1.92,3c-1.91,5.83,4.46,11.72,3.31,17.75,3,.22,5.54-2.47,8.56-2.91a7.62,7.62,0,0,1,6,2.08,15.45,15.45,0,0,1,3.64,5.45,6.41,6.41,0,0,0,1.62,2.57c1.14.9,2.73.83,4.16,1,6,.8,10,6.46,13.47,11.41a11.12,11.12,0,0,0,3.61,3.64,4,4,0,0,0,4.76-.56,2.94,2.94,0,0,0,.7-1.95c0-.49-.15-1-.18-1.47-.21-3.8,5.38-5.24,6.67-8.83.51-1.42.26-3,.75-4.46,1.2-3.49,6.11-4.48,7.48-7.91.82-2,.16-4.38.83-6.45a13.53,13.53,0,0,1,2.7-4,23.21,23.21,0,0,0,4.22-8.35Z"/><path class="cls-9" d="M548,212.42a2.17,2.17,0,0,0,1.79.52,5.88,5.88,0,0,0,3.76-2.59,15.66,15.66,0,0,1,3.06-3.52c.95-.67,2.28-1.28,2.28-2.45a5.3,5.3,0,0,0-.37-1.39c-.49-1.86.94-3.6,1.82-5.3a7.73,7.73,0,0,0-.07-7.61c-1.74-2.66-5.15-3.55-8.22-4.39a6.93,6.93,0,0,1-3.19-1.53c-.56-.57-.92-1.31-1.45-1.91a4.58,4.58,0,0,0-6.46-.11,7.11,7.11,0,0,0-1.57,4.7,34,34,0,0,1-.19,5c-.15.82-.42,1.62-.52,2.44a7,7,0,0,0,2.61,6,26.18,26.18,0,0,1,2.13,1.64,10.37,10.37,0,0,1,1.61,2.36,16.1,16.1,0,0,1,2.26,5.66A3.93,3.93,0,0,0,548,212.42Z"/><path class="cls-9" d="M491,162.83a45.34,45.34,0,0,0-4.4,1.46,1.89,1.89,0,0,0-.71.42,2.36,2.36,0,0,0-.37,1.35c-.34,2.76-3.27,4.54-4,7.23-.36,1.28-.19,2.72-.87,3.87s-1.93,1.94-1.62,3.12c.2.73,1,1.13,1.49,1.69a6.68,6.68,0,0,1,1.14,2.14,18.81,18.81,0,0,0,7.79,9,16,16,0,0,1,2.32,1.48c2.66,2.25,2.88,6.59,5.69,8.64A17.43,17.43,0,0,1,500,205c1.26,1.34,1.17,3.45.74,5.23s-1.11,3.61-.76,5.42a1.15,1.15,0,0,0,.33.68c.54.47,1.33-.18,1.75-.76a4.27,4.27,0,0,0,1.11-2.81,9.5,9.5,0,0,1-.29-1.56,3,3,0,0,1,1-1.77,22,22,0,0,0,3.87-5,7.61,7.61,0,0,0,.55-6.14c-.35-.86-.9-1.63-1.23-2.49-1.1-2.88.43-6,1.53-8.88a1.82,1.82,0,0,0,.14-1.31c-.12-.27-.36-.47-.47-.75a1.48,1.48,0,0,1,.45-1.52,14.57,14.57,0,0,0,1.21-1.15,4.3,4.3,0,0,0,.35-3.51c-.34-1.68-.95-3.53-2.47-4.33a11.3,11.3,0,0,0-2.85-.68,7.61,7.61,0,0,1-5.81-6.82,3.75,3.75,0,0,0-.28-1.67,2.88,2.88,0,0,0-.9-.87c-1.3-.95-2.83-1.95-4.4-1.59Z"/><path class="cls-9" d="M535.26,182.75a.86.86,0,0,0,.81.34,3.15,3.15,0,0,0,2.41-1.59,9.66,9.66,0,0,0,1-2.83,1.61,1.61,0,0,0-.87-2.11,1.14,1.14,0,0,0-.78-.31c-.34.05-.56.37-.72.66a16.8,16.8,0,0,0-1.89,5.18A.94.94,0,0,0,535.26,182.75Z"/><path class="cls-9" d="M539,173a.67.67,0,0,0-.73.23,1.31,1.31,0,0,0-.41,1.16.82.82,0,0,0,1,.64c.56-.17.65-.93.51-1.5A.74.74,0,0,0,539,173Z"/><path class="cls-9" d="M580.2,206.09c.4.35,1,.62,1.44.29a1.17,1.17,0,0,0,.36-.82,4.37,4.37,0,0,0-2.22-4.23c0,.27-.47.17-.72.3a.72.72,0,0,0-.27.51A4.39,4.39,0,0,0,580.2,206.09Z"/><path class="cls-9" d="M584.13,205.07c-.89,2.76.13,6-1.1,8.58a7.77,7.77,0,0,0-.61,1.35,1.38,1.38,0,0,0,.31,1.37,1.55,1.55,0,0,0,1,.3c2,0,3.55-1.54,4.88-3a4.5,4.5,0,0,0,1-1.37c.31-.79.16-1.71.47-2.5a2.57,2.57,0,0,0,.31-.92,1.57,1.57,0,0,0-.53-1c-.43-.5-.87-1-1.3-1.48a3,3,0,0,0-1-.84C586.45,205.1,585,205.89,584.13,205.07Z"/><path class="cls-9" d="M593.33,205.2a4.52,4.52,0,0,0,1.82-1.29,1.59,1.59,0,0,0-.07-2.06,1.72,1.72,0,0,0-2.06.64,4,4,0,0,0-.63,2.23.65.65,0,0,0,.12.51C592.71,205.45,593.07,205.33,593.33,205.2Z"/><path class="cls-9" d="M506.17,214.56a1,1,0,0,0-.52-.68.32.32,0,0,0-.28,0,.38.38,0,0,0-.19.14,4,4,0,0,0-.89,1.83c-.08.4,0,.93.37,1.05s.65-.18.87-.45A2.21,2.21,0,0,0,506.17,214.56Z"/><path class="cls-9" d="M503.56,168a8.16,8.16,0,0,0-.34-3,3.79,3.79,0,0,0-.73-1.41,3.74,3.74,0,0,0-1-.75,2.19,2.19,0,0,0-1.16-.3.94.94,0,0,0-.88.71,3.22,3.22,0,0,1,1.1,2,10.39,10.39,0,0,0,.6,2.22,2,2,0,0,0,1.79,1.23.7.7,0,0,0,.53-.24A.92.92,0,0,0,503.56,168Z"/><path class="cls-9" d="M483.76,163.74a2,2,0,0,0,.44-.58.88.88,0,0,0-.45-1,2.45,2.45,0,0,0-1.17-.23,29.09,29.09,0,0,0-7.14.76l.1,3.72a4.92,4.92,0,0,0,.24,1.71,3,3,0,0,0,2.77,1.74,4.2,4.2,0,0,0,3-1.49,7.53,7.53,0,0,0,1.54-3.08A3.81,3.81,0,0,1,483.76,163.74Z"/><path class="cls-9" d="M469.76,163.83a1.63,1.63,0,0,0,1.84.26,1.34,1.34,0,0,0,.3-1.78,2.13,2.13,0,0,0-1.72-.89,1.48,1.48,0,0,0-.59.08,1.11,1.11,0,0,0-.58,1.18A1.89,1.89,0,0,0,469.76,163.83Z"/><path class="cls-11" d="M270.86,448.52c-3.48-.79-6.39,0-5.8-2.79s-2.33-4.39-3.68-4.19-7.55-1.2-6.39-4.59,7.35-1,5.22-7-6.58-9-7.55-33.12c-.76-19.08-2.49-46.74-3.19-57.52h-3.35c-.7,10.78-2.43,38.44-3.19,57.52C242,421,237.5,424,235.37,430s4.07,3.59,5.23,7-5,4.79-6.39,4.59-4.26,1.4-3.68,4.19-2.32,2-5.8,2.79-2.91,3.4-2.91,3.4h51.95S274.35,449.32,270.86,448.52Z"/><path class="cls-11" d="M299.64,351.12c-1.05-.55-2,.8-3,1.56-2,1.62-4.72.73-7-.29-7.17-3.24-14.07-7.17-21.26-10.34a61.12,61.12,0,0,0-19-5.37v-.16c-.58,0-1.16,0-1.74.06s-1.17-.06-1.75-.06v.16a61,61,0,0,0-19,5.37c-7.2,3.17-14.1,7.1-21.26,10.34-2.26,1-5,1.91-7,.29-.93-.76-1.91-2.11-3-1.56-.86.44-.85,1.95-.19,2.71a3.76,3.76,0,0,0,2.61,1c8.91.87,17.43-3.73,25.56-7.92,7-3.59,14.58-7,22.12-6.5,0,.19,0,.38,0,.57a17.47,17.47,0,0,1,1.86-.37,17.8,17.8,0,0,1,1.85.37c0-.19,0-.38,0-.57,7.53-.51,15.12,2.91,22.11,6.5,8.14,4.19,16.65,8.79,25.56,7.92a3.76,3.76,0,0,0,2.61-1C300.48,353.07,300.49,351.56,299.64,351.12Z"/><path class="cls-11" d="M252.28,339.1c-.2-1.16-.63-2.48-1.62-2.8a1.41,1.41,0,0,0,.44-1.69,7.22,7.22,0,0,0-1-1.58,2.17,2.17,0,0,1-.41-1.8,10,10,0,0,1-1.52-.45v-.12a1.51,1.51,0,0,0-.28,0,1.26,1.26,0,0,0-.28,0v.12a9.94,9.94,0,0,1-1.51.45,2.18,2.18,0,0,1-.42,1.8,7.62,7.62,0,0,0-1,1.58c-.2.61-.08,1.44.44,1.69-1,.32-1.41,1.64-1.62,2.8a5,5,0,0,0,.08,2.71,2.85,2.85,0,0,0,2,1.65,45.27,45.27,0,0,0,4.66,0,2.87,2.87,0,0,0,2-1.65A5,5,0,0,0,252.28,339.1Z"/><path class="cls-11" d="M191.44,404.09a20.17,20.17,0,0,0,30.19,0Z"/><path class="cls-11" d="M194.55,404.5l11.78-49.05,11.78,49.05h1l-12.32-51.31a.52.52,0,0,0-1,0L193.52,404.5Z"/><path class="cls-11" d="M273.65,404.09a20.17,20.17,0,0,0,30.19,0Z"/><path class="cls-11" d="M276.76,404.5l11.78-49.05,11.78,49.05h1L289,353.19a.52.52,0,0,0-1,0L275.73,404.5Z"/><rect class="cls-1" x="210.89" y="378.24" width="70.32" height="1" transform="translate(-142.89 608.32) rotate(-87.54)"/><path class="cls-1" d="M240.13,433.14a4.55,4.55,0,0,1-1.25-4,10.23,10.23,0,0,1,1.47-3.73l.65-1.06a24.83,24.83,0,0,0,1.5-2.66,6.44,6.44,0,0,0,.62-3.93l1-.2a7.41,7.41,0,0,1-.69,4.54,24.23,24.23,0,0,1-1.56,2.78c-.21.34-.43.69-.63,1a9,9,0,0,0-1.35,3.35,3.59,3.59,0,0,0,.94,3.09Z"/><path class="cls-1" d="M243.74,438.67l-.94-.34a2.9,2.9,0,0,0,0-2l.92-.37A3.81,3.81,0,0,1,243.74,438.67Z"/><rect class="cls-1" x="232.75" y="443.97" width="24.81" height="1"/><rect class="cls-1" x="232.56" y="447.05" width="8.87" height="1"/></g></svg>