<svg xmlns="http://www.w3.org/2000/svg" viewBox="0 0 425.2 425.2"><defs><style>.cls-1{isolation:isolate;}.cls-12,.cls-2,.cls-4,.cls-9{fill:#fff;}.cls-21,.cls-3,.cls-6{mix-blend-mode:multiply;}.cls-10,.cls-11,.cls-12,.cls-13,.cls-14,.cls-15,.cls-16,.cls-17,.cls-18,.cls-19,.cls-4,.cls-7,.cls-8,.cls-9{stroke:#4dad33;}.cls-10,.cls-11,.cls-13,.cls-14,.cls-16,.cls-17,.cls-18,.cls-19,.cls-4,.cls-7,.cls-8{stroke-miterlimit:10;}.cls-12,.cls-15,.cls-4,.cls-7,.cls-9{stroke-width:0.94px;}.cls-5,.cls-6{fill:#4dad33;}.cls-10,.cls-11,.cls-13,.cls-14,.cls-15,.cls-16,.cls-17,.cls-18,.cls-19,.cls-7,.cls-8{fill:none;}.cls-10,.cls-11,.cls-13,.cls-14,.cls-16,.cls-17,.cls-18,.cls-8{stroke-width:2.26px;}.cls-8{stroke-dasharray:4.46 4.46;}.cls-12,.cls-15,.cls-9{stroke-linejoin:round;}.cls-10{stroke-dasharray:4.46 4.46;}.cls-11{stroke-dasharray:4.46 4.46;}.cls-12,.cls-15{stroke-linecap:round;}.cls-13{stroke-dasharray:4.46 4.46;}.cls-14{stroke-dasharray:4.46 4.46;}.cls-16{stroke-dasharray:4.46 4.46;}.cls-17{stroke-dasharray:4.46 4.46;}.cls-18{stroke-dasharray:4.46 4.46;}.cls-19{stroke-width:2.09px;}.cls-20{fill:#f9bb8d;}.cls-21{fill:#e4dad4;}.cls-22{fill:#95a63a;}.cls-23{fill:#a9b135;}.cls-24{fill:#8a9335;}.cls-25{fill:#708a34;}</style></defs><g class="cls-1"><g id="Capa_1" data-name="Capa 1"><rect class="cls-2" width="425.2" height="425.2"/><g class="cls-3"><path class="cls-4" d="M207.19,34.07h-1c-.78,0-1.41.45-1.41,1V52.94c0,.55.63,1,1.41,1a5.34,5.34,0,0,0,1-.12Z"/><path class="cls-4" d="M217.77,34.07h1c.79,0,1.42.45,1.42,1V52.94c0,.55-.63,1-1.42,1a5.15,5.15,0,0,1-1-.12Z"/><path class="cls-4" d="M226.41,59.62V47h-27V59.62a5.27,5.27,0,0,0,4,5.79s3,.9,2.8,5.25h13.51c-.23-4.35,2.8-5.25,2.8-5.25A5.27,5.27,0,0,0,226.41,59.62Z"/><rect class="cls-4" x="199.38" y="47.04" width="27.03" height="2.8"/><path class="cls-2" d="M224.55,49.83c0,1.45,0,2.89,0,4.33a54.27,54.27,0,0,1,0,5.56,4,4,0,0,1-1.32,2.66c-.93.79-2.22.84-3.27,1.4-1.8.94-2.27,3.66-2.27,5.49"/><path class="cls-5" d="M224.55,49.83s0,.36.09,1,.12,1.51.17,2.57.16,2.3.21,3.64c0,.67,0,1.37,0,2.08v.54a2.68,2.68,0,0,1-.08.56,5.27,5.27,0,0,1-.34,1.13,5.33,5.33,0,0,1-.31.51,1.51,1.51,0,0,1-.36.47c-.15.16-.25.27-.44.45a4.39,4.39,0,0,1-.45.3,9,9,0,0,1-2,.74c-.29.08-.63.23-.81.29a3.71,3.71,0,0,0-.74.53,3.21,3.21,0,0,0-.49.6,2.91,2.91,0,0,0-.39.68,7.41,7.41,0,0,0-.49,1.32,9.12,9.12,0,0,0-.24,1.08c-.1.61-.14,1-.14,1s0-.09,0-.26a4.67,4.67,0,0,1,0-.72,8.41,8.41,0,0,1,.08-1.14,6.4,6.4,0,0,1,.33-1.46,4.23,4.23,0,0,1,.35-.8,3.48,3.48,0,0,1,.58-.81,5.29,5.29,0,0,1,.74-.62,5.57,5.57,0,0,1,1-.44,11.26,11.26,0,0,0,1.8-.71,4,4,0,0,0,.41-.29l.29-.32a1.29,1.29,0,0,0,.28-.37c.07-.13.17-.26.23-.4A3.81,3.81,0,0,0,224,60a2.41,2.41,0,0,0,.07-.48l0-.51c0-.69.07-1.36.1-2,0-1.33,0-2.57.08-3.64s.14-2,.18-2.57S224.55,49.83,224.55,49.83Z"/><path class="cls-4" d="M207.58,53.5a1.44,1.44,0,1,1-1.44-1.44A1.44,1.44,0,0,1,207.58,53.5Z"/><path class="cls-6" d="M207,53.34h-.73v-.72a.16.16,0,0,0-.32,0v.72h-.73a.16.16,0,0,0-.16.16.16.16,0,0,0,.16.16H206v.73a.16.16,0,0,0,.32,0v-.73H207a.16.16,0,0,0,.16-.16A.16.16,0,0,0,207,53.34Z"/><path class="cls-4" d="M220.41,53.5A1.44,1.44,0,1,1,219,52.06,1.44,1.44,0,0,1,220.41,53.5Z"/><path class="cls-6" d="M219.86,53.34h-.73v-.72a.16.16,0,0,0-.32,0v.72h-.73a.16.16,0,0,0-.16.16.16.16,0,0,0,.16.16h.73v.73a.16.16,0,0,0,.32,0v-.73h.73a.16.16,0,0,0,.16-.16A.16.16,0,0,0,219.86,53.34Z"/><rect class="cls-4" x="206.14" y="70.66" width="13.54" height="4.02"/><polygon class="cls-4" points="208.35 74.68 209.06 78.69 216.58 78.69 217.47 74.68 208.35 74.68"/><path class="cls-7" d="M212.91,78.69v9.84s-.64,5.38,4.86,5.22c0,0,6,.75,5.82-5V71s-.24-5.29,5-5.25c0,0,4.41,0,4.41,5.25V85.88"/><path class="cls-8" d="M251.67,61.75a35.48,35.48,0,1,1-35.48-35.48A35.47,35.47,0,0,1,251.67,61.75Z"/></g><g class="cls-3"><path class="cls-9" d="M56,245.11s-32,29.36,0,51.09C56,296.2,89.5,278.29,56,245.11Z"/><line class="cls-9" x1="56.36" y1="252.16" x2="56.36" y2="296.2"/><line class="cls-9" x1="51.63" y1="254.65" x2="56.36" y2="259.21"/><line class="cls-9" x1="49.43" y1="258.03" x2="56.36" y2="264.46"/><line class="cls-9" x1="47.37" y1="261.99" x2="56.36" y2="270.66"/><line class="cls-9" x1="46.29" y1="267.57" x2="56.36" y2="277.39"/><line class="cls-9" x1="44.13" y1="272.48" x2="56.36" y2="284.73"/><line class="cls-9" x1="46.29" y1="281.28" x2="56.36" y2="291.1"/><line class="cls-9" x1="61.09" y1="255.38" x2="56.36" y2="259.93"/><line class="cls-9" x1="63.29" y1="258.75" x2="56.36" y2="265.19"/><line class="cls-9" x1="65.35" y1="262.72" x2="56.36" y2="271.38"/><line class="cls-9" x1="66.43" y1="268.3" x2="56.36" y2="278.11"/><line class="cls-9" x1="68.59" y1="273.21" x2="56.36" y2="285.46"/><line class="cls-9" x1="66.43" y1="282.01" x2="56.36" y2="291.82"/><circle class="cls-10" cx="56.36" cy="270.66" r="35.48"/></g><g class="cls-3"><path class="cls-9" d="M388.75,270.66a19.86,19.86,0,1,1-19.86-19.86A19.87,19.87,0,0,1,388.75,270.66Z"/><path class="cls-9" d="M386.11,270.66a17.23,17.23,0,1,1-17.22-17.23A17.22,17.22,0,0,1,386.11,270.66Z"/><polygon class="cls-9" points="366.9 248.78 359.31 273.19 367.25 273.19 359.31 292.53 383.25 264.82 369.8 264.82 379.29 248.78 366.9 248.78"/><path class="cls-11" d="M404.37,270.66a35.49,35.49,0,1,1-35.48-35.49A35.49,35.49,0,0,1,404.37,270.66Z"/></g><g class="cls-3"><polygon class="cls-12" points="350.37 371.85 358.04 371.85 352.58 361.24 345.36 363.3 350.37 371.85"/><polygon class="cls-12" points="339.75 373.33 339.75 370.53 332.67 377.46 339.75 384.39 339.75 381.59 354.8 381.59 358.04 373.33 339.75 373.33"/><polygon class="cls-12" points="333.68 350.09 328.39 343.44 321.37 352.15 327.17 358.57 333.68 350.09"/><polygon class="cls-12" points="340.8 356.96 338.59 358.69 348.4 360.01 349.52 350.17 347.31 351.89 340 342.51 329.56 342.54 340.8 356.96"/><polygon class="cls-12" points="329.92 373.77 312.81 373.77 316.06 382.03 329.92 382.03 329.92 373.77"/><polygon class="cls-12" points="318.12 362.57 312.81 372.3 320.48 372.3 325.32 364.68 327.64 365.38 323.29 357.1 315.1 361.62 318.12 362.57"/><circle class="cls-13" cx="335.43" cy="363.45" r="35.48"/><rect class="cls-9" x="81.56" y="343.53" width="30.79" height="40.54"/><rect class="cls-9" x="79.62" y="339.01" width="34.66" height="4.53"/><rect class="cls-9" x="80.58" y="383.37" width="32.74" height="4.53"/><rect class="cls-9" x="79.34" y="349.66" width="35.22" height="2.37"/><rect class="cls-9" x="79.34" y="374.8" width="35.22" height="2.37"/><path class="cls-9" d="M105.76,363.8A8.81,8.81,0,1,1,97,355,8.81,8.81,0,0,1,105.76,363.8Z"/><path class="cls-9" d="M100.25,364.73,97,357.68l-3.3,7.05a3.65,3.65,0,1,0,6.6,0Z"/><path class="cls-14" d="M132.44,363.45A35.49,35.49,0,1,1,97,328,35.48,35.48,0,0,1,132.44,363.45Z"/></g><g class="cls-3"><polygon class="cls-9" points="110.47 99.48 123.28 99.48 126.06 102.66 107.82 102.66 110.47 99.48"/><path class="cls-9" d="M92.36,62.27v32h49.41v-32Zm45.76,15.11h-8.41V65.65h8.41Zm-21.93,1.81V90.92h-10V79.19Zm-10-1.81V65.65h10V77.38Zm11.77,1.81h10V90.92h-10Zm0-1.81V65.65h10V77.38ZM104.42,65.65V77.38H96V65.65ZM96,79.19h8.41V90.92H96Zm33.7,11.73V79.19h8.41V90.92Z"/><rect class="cls-9" x="113.62" y="94.3" width="6.89" height="6.76"/><rect class="cls-9" x="107.82" y="102.66" width="18.24" height="1.49"/><path class="cls-13" d="M152.55,83.21a35.49,35.49,0,1,1-35.49-35.48A35.49,35.49,0,0,1,152.55,83.21Z"/></g><g class="cls-3"><path class="cls-12" d="M327.16,84.68a16.43,16.43,0,0,0,3.68-10.4c0-8.9-6.95-16.12-15.53-16.12s-15.52,7.22-15.52,16.12a16.42,16.42,0,0,0,3.67,10.4h0a17.91,17.91,0,0,1,3.81,8.61s-.06,3.56,2.62,3.56h10.55c2.67,0,2.62-3.56,2.62-3.56A16.65,16.65,0,0,1,326,86a16.48,16.48,0,0,0,1.2-1.31Z"/><path class="cls-5" d="M321.5,98.85a.55.55,0,0,1-.52.56l-12.21-.83a.55.55,0,0,1-.52-.56h0a.55.55,0,0,1,.52-.57l12.21.83a.55.55,0,0,1,.52.57Z"/><path class="cls-5" d="M321.5,100.65a.55.55,0,0,1-.52.57l-12.21-.83a.55.55,0,0,1-.52-.57h0a.55.55,0,0,1,.52-.56l12.21.83a.55.55,0,0,1,.52.56Z"/><path class="cls-5" d="M321.5,102.46a.55.55,0,0,1-.52.56l-12.21-.83a.55.55,0,0,1-.52-.56h0a.55.55,0,0,1,.52-.56l12.21.83a.55.55,0,0,1,.52.56Z"/><polygon class="cls-12" points="308.69 103.49 321.06 104.43 318.04 108.27 311.58 108.27 308.69 103.49"/><path class="cls-15" d="M312.46,96.85c-.82-5.83-1.34-11.73-2.52-17.5-.14-.71-.21-2.29-.79-2.78s-1.16.12-1.51.46a1.71,1.71,0,0,0-.16,2.31A5.19,5.19,0,0,0,311.64,81a6.12,6.12,0,0,0,4.42-2.75c.24-.38.67-1.12.3-1.54s-1.95-.23-2.33.15a1.71,1.71,0,0,0-.1,2c.72,1.33,2.79,1.58,4.15,1.62a6.5,6.5,0,0,0,2.72-.52c4-1.64.46-4.81-.77-1.23-.71,2-.88,6.84-1.76,17.76"/><path class="cls-16" d="M350.8,83.21a35.49,35.49,0,1,1-35.49-35.48A35.49,35.49,0,0,1,350.8,83.21Z"/></g><g class="cls-3"><path class="cls-9" d="M75.39,166.43A12.2,12.2,0,1,1,63.2,154.24,12.2,12.2,0,0,1,75.39,166.43Z"/><path class="cls-9" d="M72.81,166.43a9.62,9.62,0,1,1-9.61-9.61A9.62,9.62,0,0,1,72.81,166.43Z"/><polygon class="cls-9" points="61.31 151.98 66.1 151.98 63.7 137.18 61.31 151.98"/><polygon class="cls-9" points="66.1 181.41 61.31 181.41 63.7 196.22 66.1 181.41"/><polygon class="cls-9" points="78.41 164.3 78.41 169.09 93.22 166.69 78.41 164.3"/><polygon class="cls-9" points="48.99 169.09 48.99 164.3 34.18 166.69 48.99 169.09"/><polygon class="cls-9" points="69.2 152.84 73.31 155.3 78.86 141.36 69.2 152.84"/><polygon class="cls-9" points="58.21 180.55 54.1 178.09 48.55 192.03 58.21 180.55"/><polygon class="cls-9" points="74.94 156.9 77.47 160.97 88.79 151.13 74.94 156.9"/><polygon class="cls-9" points="52.47 176.49 49.94 172.42 38.62 182.27 52.47 176.49"/><polygon class="cls-9" points="77.65 171.96 75.26 176.1 89.29 181.42 77.65 171.96"/><polygon class="cls-9" points="49.76 161.43 52.15 157.29 38.11 151.98 49.76 161.43"/><polygon class="cls-9" points="73.04 178.31 68.88 180.67 78.26 192.38 73.04 178.31"/><polygon class="cls-9" points="54.37 155.08 58.53 152.72 49.15 141.01 54.37 155.08"/><path class="cls-17" d="M99.19,166.7a35.49,35.49,0,1,1-35.48-35.49A35.49,35.49,0,0,1,99.19,166.7Z"/></g><g class="cls-3"><path class="cls-12" d="M377.35,146.26h-3.7v-4.8a1.45,1.45,0,0,0-1.44-1.44h-7.07a1.45,1.45,0,0,0-1.44,1.44v4.8H360a6.56,6.56,0,0,0-6.56,6.56v34a6.56,6.56,0,0,0,6.56,6.56h17.35a6.56,6.56,0,0,0,6.56-6.56v-34A6.56,6.56,0,0,0,377.35,146.26Z"/><path class="cls-12" d="M380.6,162.2v-6.64H356.76s0,0,0,.06v6.58Z"/><path class="cls-12" d="M380.6,172.44V165.8H356.76s0,0,0,.06v6.58Z"/><path class="cls-12" d="M380.6,182.45V175.8H356.76s0,0,0,.06v6.59Z"/><path class="cls-12" d="M356.75,184.62v.1a5.71,5.71,0,0,0,5.71,5.71h12.43a5.71,5.71,0,0,0,5.71-5.71v-.1Z"/><path class="cls-18" d="M404.16,166.7a35.49,35.49,0,1,1-35.48-35.49A35.49,35.49,0,0,1,404.16,166.7Z"/></g><path class="cls-19" d="M313,135.91a5.86,5.86,0,1,1-5.86-5.86A5.86,5.86,0,0,1,313,135.91Z"/><path class="cls-19" d="M414.73,313.18a5.86,5.86,0,1,1-5.85-5.86A5.86,5.86,0,0,1,414.73,313.18Z"/><path class="cls-19" d="M48.72,368.06a5.86,5.86,0,1,1-5.86-5.86A5.85,5.85,0,0,1,48.72,368.06Z"/><path class="cls-19" d="M33.21,204.37a5.86,5.86,0,1,1-5.86-5.86A5.86,5.86,0,0,1,33.21,204.37Z"/><path class="cls-19" d="M58.75,93.78a5.86,5.86,0,1,1-5.86-5.86A5.86,5.86,0,0,1,58.75,93.78Z"/><path class="cls-19" d="M374.84,94.3a3.93,3.93,0,1,1-3.93-3.94A3.93,3.93,0,0,1,374.84,94.3Z"/><path class="cls-19" d="M32.15,122.71a3.93,3.93,0,1,1-3.93-3.93A3.93,3.93,0,0,1,32.15,122.71Z"/><path class="cls-19" d="M81.42,221.46a3.94,3.94,0,1,1-3.94-3.93A3.94,3.94,0,0,1,81.42,221.46Z"/><path class="cls-19" d="M130,300.13a3.93,3.93,0,1,1-3.93-3.93A3.93,3.93,0,0,1,130,300.13Z"/><path class="cls-19" d="M396.52,369.24a3.93,3.93,0,1,1-3.93-3.93A3.93,3.93,0,0,1,396.52,369.24Z"/><path class="cls-19" d="M168.51,55.22a3.93,3.93,0,1,1-3.93-3.93A3.93,3.93,0,0,1,168.51,55.22Z"/><path class="cls-19" d="M412.81,122.71a2,2,0,1,1-2-2A2,2,0,0,1,412.81,122.71Z"/><path class="cls-19" d="M107.73,137.88a2,2,0,1,1-2-2A2,2,0,0,1,107.73,137.88Z"/><path class="cls-19" d="M14.4,305.36a2,2,0,1,1-2-2A2,2,0,0,1,14.4,305.36Z"/><path class="cls-19" d="M50.52,328a2,2,0,1,1-2-2A2,2,0,0,1,50.52,328Z"/><path class="cls-19" d="M325,217.53a2,2,0,1,1-2-2A2,2,0,0,1,325,217.53Z"/><path class="cls-19" d="M323,307.32a2,2,0,1,1-2-2A2,2,0,0,1,323,307.32Z"/><path class="cls-19" d="M122.47,241.16a2,2,0,1,1-2-2A2,2,0,0,1,122.47,241.16Z"/><path class="cls-19" d="M189,112.09a2,2,0,1,1-2-2A2,2,0,0,1,189,112.09Z"/><path class="cls-20" d="M239.47,237.85c-12.32,3.39-29.87-5.5-38.57-8.48C189.87,225.6,166,238,162,245.91c-5.41,10.72-54.66,47.57-54.66,47.57s9,15.12,21.16,27.26A134.23,134.23,0,0,0,153,340.32s23.12-36.72,32.65-39.44c8.89-2.54,52.33,5.38,86.06-15.23C271.66,285.65,251.78,234.47,239.47,237.85Z"/><path class="cls-20" d="M237.93,238.93s17.7-8.08,20.78-10.77,12.69-20.4,16.92-28.48,17.32-5.77,14.62,6.93-9.52,26.92-15.39,34.19c-4.12,5.11-28.47,14.67-28.47,14.67Z"/><path class="cls-21" d="M267.12,228.49c6.3-7.36,4.47-17.61,10.29-25a27.71,27.71,0,0,1,9.32-7.61,8.22,8.22,0,0,0-11.1,3.8c-4.23,8.08-13.85,25.78-16.92,28.48s-20.78,10.77-20.78,10.77l.89,1.75C249.29,239.93,260.13,236.67,267.12,228.49Z"/><path class="cls-20" d="M238.75,250.69s34.52-21.76,38.12-24.9S291.7,202,296.64,192.53s20.22-6.74,17.08,8.09-11.16,31.43-18,39.93c-9.66,12.06-45.45,29.76-45.45,29.76Z"/><path class="cls-21" d="M278,232.22c12.09-8.55,18-17.54,21.78-31.54a35.66,35.66,0,0,1,6.44-13.59,9.86,9.86,0,0,0-9.58,5.44c-4.94,9.44-16.18,30.11-19.77,33.26-3.09,2.7-29,19.15-36.24,23.71C254.06,249,267.09,239.93,278,232.22Z"/><path class="cls-20" d="M245,259.26s34.52-21.76,38.11-24.9,14.83-23.82,19.77-33.26,20.23-6.74,17.08,8.09-11.15,31.42-18,39.93c-9.67,12.06-45.45,29.76-45.45,29.76Z"/><path class="cls-21" d="M284.24,240.79c12.09-8.55,18-17.54,21.78-31.54a35.81,35.81,0,0,1,6.44-13.59,9.85,9.85,0,0,0-9.58,5.44c-4.94,9.44-16.17,30.11-19.77,33.26-3.09,2.7-29,19.15-36.24,23.71C260.3,257.56,273.33,248.5,284.24,240.79Z"/><path class="cls-20" d="M253.08,269.68s34.52-21.76,38.11-24.91S306,221,311,211.52s20.22-6.74,17.07,8.09-11.15,31.42-18,39.93c-9.67,12.06-45.45,29.76-45.45,29.76Z"/><path class="cls-21" d="M292.32,251.21c12.09-8.55,18-17.54,21.78-31.54a35.81,35.81,0,0,1,6.44-13.59,9.82,9.82,0,0,0-9.57,5.44c-5,9.44-16.18,30.11-19.78,33.25-3.09,2.71-29,19.16-36.24,23.72C268.38,268,281.41,258.92,292.32,251.21Z"/><path class="cls-22" d="M242.1,165.05c19.17,23.75,16.58,63.54-7.48,73.91-13.92,24.81-59.23,9.79-73.83-8.3-28.7-35.57-28.65-104.91-28.65-104.91S213.39,129.48,242.1,165.05Z"/><path class="cls-23" d="M236.79,159.43c-23.09-21.71-66.72-29.6-89.67-32.32,16,10.44,37.29,8.72,54.4,18.11C209.88,149.81,226.18,161.16,236.79,159.43Z"/><path class="cls-24" d="M243.6,194c-1.2,9-3.45,19-10.51,25.38-13.56,12.32-30.84,10.74-46.27,2.87-14.41-7.35-28.52-20.46-35.53-35.21-5.74-12.06-7.9-25.36-13-37.65-1.7-4.11-3.53-8.72-5.78-13.12,1.23,20.75,6.42,67.32,28.26,94.38,14.6,18.09,59.91,33.11,73.83,8.3,23-9.92,26.37-46.8,9.8-70.78C243.12,176.6,244.55,186.89,243.6,194Z"/><path class="cls-25" d="M234.62,239s-.6-11.56-12.4-28.45c-25.05-35.83-72.54-71.2-72.54-71.2s52.14,28.64,79.75,66.13C240.39,220.31,234.62,239,234.62,239Z"/><path class="cls-22" d="M233.28,182.27c-15.62,19.35-13.51,51.76,6.09,60.21,11.34,20.21,48.25,8,60.14-6.76,23.38-29,23.34-85.46,23.34-85.46S256.66,153.29,233.28,182.27Z"/><path class="cls-23" d="M237.6,177.69c18.81-17.69,54.35-24.11,73-26.33-13,8.5-30.38,7.1-44.32,14.76C259.52,169.86,246.25,179.1,237.6,177.69Z"/><path class="cls-24" d="M232.05,205.86c1,7.36,2.82,15.45,8.56,20.68,11,10,25.12,8.75,37.7,2.34,11.74-6,23.23-16.67,28.95-28.68,4.67-9.83,6.43-20.66,10.57-30.68,1.38-3.34,2.87-7.1,4.7-10.69-1,16.9-5.23,54.84-23,76.89-11.89,14.73-48.8,27-60.14,6.76-18.77-8.08-21.49-38.13-8-57.65C232.45,191.68,231.28,200.07,232.05,205.86Z"/><path class="cls-25" d="M239.37,242.48s.48-9.42,10.1-23.18c20.4-29.19,59.09-58,59.09-58s-42.47,23.33-65,53.87C234.66,227.29,239.37,242.48,239.37,242.48Z"/><path class="cls-20" d="M160.21,273.2s6.32-19.17,32.22-23.79,32.22,1.54,41.55,0,24.43-9,36.25-13.18c13.48-4.7,24.58,4.45,24.55,12.32,0,3.19-17.73,3.89-23.12,9.81S251.77,271,249,279.43s-18.81,18.75-23.81,17.21"/><path class="cls-21" d="M210.51,252.68c8.58.69,17.62,3.65,26.15,1.66,9.65-2.25,18.8-6.55,27.71-10.79,5.16-2.45,12.11-6,17.95-3.74,2.84,1.11,9,3.77,12.49,7.27-.48-7.73-11.35-16.35-24.5-11.76-11.83,4.13-26.92,11.64-36.25,13.18-7.35,1.21-12.83-2.34-27.46-1.66-4,.18-15.18,4.93-18.94,10.94C194.78,251.67,202.93,252.07,210.51,252.68Z"/></g></g></svg>