<svg xmlns="http://www.w3.org/2000/svg" xmlns:xlink="http://www.w3.org/1999/xlink" viewBox="0 0 700 500"><defs><style>.cls-1,.cls-11,.cls-14,.cls-15,.cls-16,.cls-20,.cls-22,.cls-23,.cls-24,.cls-27,.cls-28,.cls-29,.cls-31,.cls-32,.cls-33,.cls-36,.cls-38,.cls-39,.cls-4,.cls-42,.cls-43,.cls-44,.cls-45,.cls-46,.cls-47,.cls-49,.cls-50,.cls-51,.cls-6,.cls-7,.cls-8,.cls-9{fill:none;}.cls-2{fill:#fff;}.cls-3{fill:#9e9c4d;}.cls-32,.cls-4,.cls-8{stroke:#666537;}.cls-11,.cls-14,.cls-15,.cls-16,.cls-20,.cls-22,.cls-23,.cls-24,.cls-25,.cls-27,.cls-28,.cls-29,.cls-31,.cls-32,.cls-33,.cls-36,.cls-38,.cls-39,.cls-4,.cls-42,.cls-43,.cls-44,.cls-45,.cls-46,.cls-47,.cls-49,.cls-50,.cls-51,.cls-6,.cls-7,.cls-8,.cls-9{stroke-linecap:round;}.cls-11,.cls-14,.cls-15,.cls-16,.cls-20,.cls-23,.cls-24,.cls-25,.cls-27,.cls-28,.cls-29,.cls-31,.cls-32,.cls-33,.cls-36,.cls-38,.cls-39,.cls-4,.cls-42,.cls-43,.cls-44,.cls-45,.cls-46,.cls-47,.cls-49,.cls-50,.cls-51,.cls-6,.cls-7,.cls-8,.cls-9{stroke-linejoin:round;}.cls-4,.cls-6,.cls-7{stroke-width:2.68px;}.cls-5{fill:#666537;}.cls-6,.cls-9{stroke:#4f5130;}.cls-22,.cls-38,.cls-46,.cls-7{stroke:#9e9c4d;}.cls-8,.cls-9{stroke-width:2.64px;}.cls-10{fill:#f6e0c5;}.cls-11,.cls-28,.cls-43{stroke:#f1f1f4;}.cls-11,.cls-14,.cls-15,.cls-16{stroke-width:1.37px;}.cls-12{fill:#5683a0;}.cls-13{fill:#ba9487;}.cls-14{stroke:#88625d;}.cls-15,.cls-27{stroke:#325889;}.cls-16,.cls-24{stroke:#f6e0c5;}.cls-17{fill:#325889;}.cls-18{clip-path:url(#clip-path);}.cls-19,.cls-25{fill:#edba94;}.cls-20,.cls-25{stroke:#d78a4b;}.cls-20,.cls-22,.cls-23,.cls-24,.cls-25{stroke-width:3px;}.cls-21{fill:#7eb0bf;}.cls-22{stroke-miterlimit:10;}.cls-23,.cls-29{stroke:#5683a0;}.cls-26{fill:#37304f;}.cls-27,.cls-28,.cls-29,.cls-31,.cls-32,.cls-33,.cls-36,.cls-38,.cls-39,.cls-42{stroke-width:1.5px;}.cls-30{fill:#5f5680;}.cls-31,.cls-47{stroke:#37304f;}.cls-33{stroke:#a29cbb;}.cls-34{fill:#4f5130;}.cls-35{fill:#567f6e;}.cls-36,.cls-45,.cls-51{stroke:#244039;}.cls-37{fill:#eaa94e;}.cls-39{stroke:#efc380;}.cls-40{fill:#244039;}.cls-41{fill:#efc380;}.cls-42,.cls-44{stroke:#eaa94e;}.cls-43,.cls-44,.cls-45,.cls-46,.cls-47{stroke-width:1.09px;}.cls-48{fill:#3c6256;}.cls-49{stroke:#567f6e;}.cls-49,.cls-50,.cls-51{stroke-width:1.33px;}.cls-50{stroke:#3c6256;}</style><clipPath id="clip-path"><rect class="cls-1" x="97.15" y="0.02" width="505.7" height="500"/></clipPath></defs><g id="BACKGROUND"><rect class="cls-2" y="0.02" width="700" height="500"/></g><g id="OBJECTS"><path class="cls-3" d="M593.1,148.46a40.49,40.49,0,0,1,2-28.21c.72-1.56,1.91-3.31,3.62-3.2a3.07,3.07,0,0,1,2.53,2.29,8.44,8.44,0,0,1,.06,3.61C600.1,131.75,597.78,140.4,593.1,148.46Z"/><path class="cls-3" d="M592.27,148.47a45.76,45.76,0,0,1,27.33-10.79,10,10,0,0,1,4.48.55,4,4,0,0,1,2.56,3.46c0,2.38-2.66,3.76-4.92,4.49A59.21,59.21,0,0,1,592.27,148.47Z"/><path class="cls-3" d="M609.45,134.62A44.79,44.79,0,0,1,628,115.55c3.22-1.75,6.81-3.11,10.46-2.86,1.44.1,3.17.8,3.24,2.24a3.32,3.32,0,0,1-1,2.08C632.75,126.78,620.33,131.57,609.45,134.62Z"/><path class="cls-3" d="M574,171a73.08,73.08,0,0,1,14.21-10.14,32.94,32.94,0,0,1,16.81-4,6.1,6.1,0,0,1,2.71.63,2.47,2.47,0,0,1,1.33,2.29c-.14,1.11-1.2,1.84-2.17,2.39C596.85,167.92,585.45,171.32,574,171Z"/><path class="cls-3" d="M557.85,197.3a107.79,107.79,0,0,1,28.32-19.38c4.43-2.1,9.34-3.95,14.25-3.19,1.17.18,2.47.64,2.83,1.68.46,1.34-1,2.57-2.21,3.38A128.68,128.68,0,0,1,557.85,197.3Z"/><path class="cls-3" d="M551.93,223.36a79.61,79.61,0,0,1,43.69-21.7c1.76-.24,4-.17,4.73,1.45.65,1.45-.45,3.08-1.62,4.16a33.52,33.52,0,0,1-8.18,5.15C578.14,218.5,564.85,222.8,551.93,223.36Z"/><path class="cls-3" d="M573.27,169.62a43,43,0,0,1-6.52-33.1c.3-1.36.94-3,2.32-3.14,1.69-.2,2.63,1.86,3,3.52A85.93,85.93,0,0,1,573.27,169.62Z"/><path class="cls-3" d="M559.72,197.91a39.84,39.84,0,0,1-15.82-36.5c.14-1.08.43-2.31,1.41-2.79,1.6-.78,3.16,1.1,3.93,2.71A108.66,108.66,0,0,1,559.72,197.91Z"/><path class="cls-3" d="M551.09,223.94c-4.87-.72-8.7-4.43-12.09-8a93.35,93.35,0,0,1-11.15-13.57,36.91,36.91,0,0,1-6-16.34,8,8,0,0,1,.35-3.75A3.36,3.36,0,0,1,525,180c1.68-.06,2.94,1.47,3.9,2.85A202.26,202.26,0,0,1,551.09,223.94Z"/><path class="cls-4" d="M624.94,124a147.42,147.42,0,0,0-77.45,132.42"/><path class="cls-4" d="M594.93,179.12a207.19,207.19,0,0,0-36.19,19.62Q554,182.87,549.31,167"/><path class="cls-4" d="M588.89,208.82a197,197,0,0,0-39.3,16.23l-22.77-34.32"/><path class="cls-4" d="M594,146.83a105.88,105.88,0,0,1,21.52-2.39"/><path class="cls-4" d="M597.58,126.7a126.81,126.81,0,0,0-2.87,19.47"/><path class="cls-4" d="M572.72,171.56a134.88,134.88,0,0,1,26.66-8.16"/><path class="cls-4" d="M569.5,142.5A201.55,201.55,0,0,0,573,170.84"/><path class="cls-3" d="M80.25,286.63A40.56,40.56,0,0,0,52,285.51c-1.63.54-3.49,1.54-3.57,3.26a3.06,3.06,0,0,0,2,2.76A8.49,8.49,0,0,0,54,292C62.88,291.77,71.73,290.41,80.25,286.63Z"/><path class="cls-3" d="M80.35,285.81a45.8,45.8,0,0,0-13.71,26,10,10,0,0,0,.06,4.52,4,4,0,0,0,3.16,2.91c2.37.23,4-2.22,5-4.39A59.25,59.25,0,0,0,80.35,285.81Z"/><path class="cls-3" d="M64.71,301.38a44.81,44.81,0,0,0-21,16.36c-2.09,3-3.84,6.42-4,10.08-.06,1.44.44,3.24,1.87,3.46a3.24,3.24,0,0,0,2.17-.73C54.38,323.68,60.49,311.86,64.71,301.38Z"/><path class="cls-3" d="M104.77,270.14a73.34,73.34,0,0,0-11.63,13,33,33,0,0,0-5.82,16.27,6,6,0,0,0,.33,2.77,2.44,2.44,0,0,0,2.13,1.56c1.12,0,2-1,2.61-1.89C99.19,292.48,103.81,281.53,104.77,270.14Z"/><path class="cls-3" d="M132.64,256.93a107.81,107.81,0,0,0-22.35,26c-2.56,4.16-5,8.85-4.73,13.81.06,1.18.38,2.53,1.37,3,1.28.61,2.66-.66,3.6-1.82A128.45,128.45,0,0,0,132.64,256.93Z"/><path class="cls-3" d="M159.2,253.88A79.7,79.7,0,0,0,132.86,295c-.43,1.72-.61,4,.92,4.86,1.38.8,3.11-.12,4.31-1.16a33.46,33.46,0,0,0,6-7.56C151.51,279.41,157.23,266.67,159.2,253.88Z"/><path class="cls-3" d="M103.45,269.23a43,43,0,0,0-32.19-10.09c-1.39.14-3.06.61-3.37,2-.38,1.65,1.56,2.81,3.17,3.36A86,86,0,0,0,103.45,269.23Z"/><path class="cls-3" d="M133.05,258.85a39.82,39.82,0,0,0-34.56-19.71c-1.08,0-2.34.18-2.92,1.1-.95,1.5.75,3.26,2.26,4.2A108.69,108.69,0,0,0,133.05,258.85Z"/><path class="cls-3" d="M159.87,253.12c-.19-4.93-3.46-9.13-6.64-12.89A92.88,92.88,0,0,0,141,227.66a36.76,36.76,0,0,0-15.59-7.77,8,8,0,0,0-3.77-.07,3.38,3.38,0,0,0-2.52,2.56c-.24,1.67,1.14,3.08,2.41,4.18A202.3,202.3,0,0,0,159.87,253.12Z"/><path class="cls-4" d="M52.51,315.62a147.41,147.41,0,0,1,140.08-62.53"/><path class="cls-4" d="M110.53,291.8A207.19,207.19,0,0,1,134,258l-30.53-12.84"/><path class="cls-4" d="M140.71,289a196.6,196.6,0,0,1,20.42-37.29l-31.62-26.38"/><path class="cls-4" d="M78.54,287.32a105.51,105.51,0,0,0-4.72,21.13"/><path class="cls-4" d="M58.14,288.72A125.36,125.36,0,0,1,77.8,288"/><path class="cls-4" d="M105.44,268.9a135.43,135.43,0,0,0-11,25.6"/><path class="cls-4" d="M76.9,262.53a200.85,200.85,0,0,1,27.79,6.61"/><path class="cls-5" d="M560.48,251.33c-.87-6.47,2.35-12.79,6.18-18.08a72.47,72.47,0,0,1,71.25-28.83c-1.49,1.49-3,3-4.46,4.46a84.56,84.56,0,0,1,33.24,7.7A54.65,54.65,0,0,1,647,238.52a38.71,38.71,0,0,1,7.8,2.26,58.35,58.35,0,0,1-94.31,10.55Z"/><path class="cls-6" d="M606.46,210.55q-7.55,13.13-15.11,26.25"/><path class="cls-6" d="M578.19,245.65l28.14,10.28"/><path class="cls-6" d="M608.44,232.71l25.28,9.38"/><path class="cls-6" d="M636,203.85a70.07,70.07,0,0,0-41,6.47c-12.58,6.22-25.77,17.79-32.58,30.06"/><path class="cls-7" d="M666.49,216.55a49.56,49.56,0,0,1-20.17,21.23"/><path class="cls-7" d="M654.42,241c-7.45,10.73-16.49,21-28.47,26.18-11,4.8-23.66,4.9-35.38,2.26s-22.16-9.83-29.19-17.12"/><path class="cls-6" d="M634.29,224.13c-17.95,5.31-36,10.63-53.12,18.13s-33.54,17.27-46.77,30.51"/><path class="cls-5" d="M132.94,223.63c-4,5.19-10.7,7.38-17.15,8.4A72.43,72.43,0,0,1,45.05,202h6.3a84.5,84.5,0,0,1-18-29,54.59,54.59,0,0,1,29.44-1.57,38.49,38.49,0,0,1-3.9-7.11,58.34,58.34,0,0,1,74.09,59.28Z"/><path class="cls-6" d="M71.6,219.9l29.25-7.85"/><path class="cls-6" d="M116.42,215.11q-6.32-13.59-12.61-27.17"/><path class="cls-6" d="M85.88,202.85,74.66,178.34"/><path class="cls-6" d="M46,203.78a70.18,70.18,0,0,0,33.51,24.4c13.29,4.5,30.8,5.66,44.3,1.81"/><path class="cls-7" d="M33.43,173.19a49.48,49.48,0,0,1,29.28-.72"/><path class="cls-7" d="M59.23,164.49c12.85-2.32,26.48-3.14,38.63,1.65,11.19,4.4,20.19,13.27,26.6,23.44s8.71,22.63,8.52,32.75"/><path class="cls-6" d="M61.54,190.62c16.45,9,32.94,17.93,50.37,24.78s35.92,11.53,54.64,11.54"/><path class="cls-3" d="M165.89,345.91a62.43,62.43,0,0,1-17.71-8.22,38.79,38.79,0,0,1-12.86-14.51c-.5-1-.93-2.31-.28-3.25s2.11-1,3.28-.76A23.32,23.32,0,0,1,149,324a43.88,43.88,0,0,1-15.24-19.53,16.19,16.19,0,0,1-1.53-7.24,6.89,6.89,0,0,1,3.88-5.93,7,7,0,0,1,5.81.58,18.62,18.62,0,0,1,4.58,3.87,80.75,80.75,0,0,1,14.52,20.53,9.17,9.17,0,0,1,.82-9.22,3.86,3.86,0,0,1,2.86-1.83c1.39,0,2.52,1.13,3.27,2.31a18.12,18.12,0,0,1,2.49,9.37,54.32,54.32,0,0,1-1,9.76C168.41,333.16,167.33,339.63,165.89,345.91Z"/><path class="cls-3" d="M139.1,346.29a43.39,43.39,0,0,1-4.89,12.27,23.93,23.93,0,0,1-9.49,9,6.56,6.56,0,0,1-2.9.84,2.89,2.89,0,0,1-2.56-1.38,4.08,4.08,0,0,1,0-2.9,23.06,23.06,0,0,1,5.92-10.24c-5.53,4.89-12.92,7.05-20.14,8.6-8.55,1.83-17.7,3-25.85-.19-2.82-1.09-5.78-3.23-5.78-6.26,0-2.3,1.75-4.21,3.55-5.63,5.52-4.37,12.5-6.56,19.49-7.37s14-.31,21.07.18a14.08,14.08,0,0,1-8.81-2.91c-1.34-1-2.58-2.61-2.23-4.27a3.68,3.68,0,0,1,3-2.59,9.82,9.82,0,0,1,4.16.38A65.1,65.1,0,0,1,139.1,346.29Z"/><path class="cls-3" d="M191.91,352.93a27.23,27.23,0,0,1-4.08,18c-.78,1.21-1.84,2.47-3.28,2.59-1.67.15-3.11-1.39-3.46-3a10.55,10.55,0,0,1,.56-5,59.23,59.23,0,0,1-10.1,17.39A36.49,36.49,0,0,1,155,394.11a13,13,0,0,1-5.82.67,6.11,6.11,0,0,1-4.65-3.25c-1.21-2.7.31-5.81,2-8.23,6.39-9.07,15.69-15.6,24.8-21.94a12,12,0,0,1-3.94,2.81,4.08,4.08,0,0,1-4.48-.9,3.94,3.94,0,0,1,0-4.48,9.16,9.16,0,0,1,3.66-3C173.72,352.1,182,351.57,191.91,352.93Z"/><path class="cls-8" d="M105.8,352.28c16.36-4.55,33.32-7.48,50.29-6.8s34,5.1,48.25,14.35"/><path class="cls-8" d="M166.7,345.91a151.54,151.54,0,0,1-18-40"/><path class="cls-8" d="M191.68,354.07a104.9,104.9,0,0,0-31.5,26.57"/><path class="cls-9" d="M74,358.15c1.81,3.25,5.79,4.56,9.46,5.23a56.59,56.59,0,0,0,32.69-3.93"/><path class="cls-9" d="M121.1,367.74a18.63,18.63,0,0,0,15.35-12.1"/><path class="cls-9" d="M135.82,320.09c-.46,2.47.84,4.92,2.3,7a36.49,36.49,0,0,0,11.33,10.3"/><path class="cls-9" d="M147.13,322.17a45.32,45.32,0,0,1-9.15-9.51,25.72,25.72,0,0,1-4.64-12.25c-.25-3,.38-6.38,2.89-8a6.92,6.92,0,0,1,6.3-.18,20.33,20.33,0,0,1,5.33,3.77"/><path class="cls-9" d="M163.75,363.17a4.46,4.46,0,0,1,.59-4.87,10.25,10.25,0,0,1,4.27-2.88c7.38-3.08,15.65-3.21,23.62-2.59"/><path class="cls-9" d="M151.73,394c-1.95,1-4.64-.09-5.94-2a6.72,6.72,0,0,1-.71-6.34c2.41-5.5,10.38-14,16.69-17.46"/><path class="cls-10" d="M241.41,66c1.38-3.52,4.29-10.77,7.93-11.8a12.48,12.48,0,0,1,10.75,2,10.47,10.47,0,0,1-.79-9.74,8.74,8.74,0,0,1,8.13-5.08,7.51,7.51,0,0,1,6.93,6.29,18.36,18.36,0,0,1,1.44-8.93c1.35-2.73,4-5,7-5.16a8.8,8.8,0,0,1,7.23,3.72c1.71,2.25,2.55,5,3.51,8.58a6.79,6.79,0,0,1,12.68,3.77,13.38,13.38,0,0,1,13.83,2.23A14,14,0,0,1,323.93,66C322.37,65.57,242.81,66.12,241.41,66Z"/><path class="cls-11" d="M266.46,44.2A7.06,7.06,0,0,0,261,52.76"/><path class="cls-11" d="M269,44.83a2.8,2.8,0,0,1,2.29.84"/><path class="cls-11" d="M252,56.37a8.3,8.3,0,0,0-5.46,3.69,8.53,8.53,0,0,0-.95,2.9"/><path class="cls-11" d="M271,61.45a4.15,4.15,0,0,1-.48-4.31A3.91,3.91,0,0,1,274.26,55a3.71,3.71,0,0,1,3.25,2.77,13.66,13.66,0,0,1,.81-3.09,4.72,4.72,0,0,1,2-2.38,4.1,4.1,0,0,1,4.85,1.09,5.45,5.45,0,0,1,.88,5.06"/><path class="cls-11" d="M306.51,51.78a10.21,10.21,0,0,1,13.15,3.46"/><path class="cls-12" d="M295.48,75.7c-3.32-5-6.75-10.32-7-16.3a31.1,31.1,0,0,1,1-8,248.33,248.33,0,0,1,8.6-30c1.78,12.58,3.56,25.38,1.63,37.94A95.18,95.18,0,0,1,295.48,75.7Z"/><path class="cls-12" d="M295.82,75.93c6-.36,12.32-.66,17.61,2.15A31.3,31.3,0,0,1,319.8,83a249.21,249.21,0,0,1,21.64,22.51c-11.77-4.78-23.74-9.67-33.63-17.65A94.9,94.9,0,0,1,295.82,75.93Z"/><path class="cls-12" d="M294.22,76.44c-2.49,5.58-5.18,11.42-10.1,15-3,2.2-6.59,3.41-10.14,4.49a233.49,233.49,0,0,1-29.71,6.81c7.45-7,16.08-12.59,24.65-18.14A49.08,49.08,0,0,1,277.23,80c5.53-2.19,11.71-2.29,17.31-4.31"/><path class="cls-13" d="M293.36,75.63c-2.08,32-4,60.4-3.36,90,3,2,7,2.32,9.41.67-1.76-30.19-2.59-59.65-2.59-90.67A16.64,16.64,0,0,1,293.36,75.63Z"/><path class="cls-14" d="M292.35,91.39c-1,27.28-2.14,51.63-2.93,74.12a13,13,0,0,0,8.9,1.31"/><path class="cls-14" d="M289.42,137.74a9.39,9.39,0,0,0,8.9.09l-.14-.44"/><path class="cls-14" d="M290.45,127a7.64,7.64,0,0,0,7.47-.12"/><path class="cls-14" d="M290.64,115.71a6.51,6.51,0,0,0,7.25.19"/><path class="cls-15" d="M294.45,76.47c-2.73,5.48-5.73,11.09-10.64,14.74-3.4,2.53-7.5,3.93-11.55,5.18A228.08,228.08,0,0,1,244.84,103"/><path class="cls-16" d="M286.63,80.49c-2.68.37-5.35.75-8.11,1.15l-5.88,3.73"/><path class="cls-16" d="M270.22,87.34,267,89.18"/><path class="cls-15" d="M298.06,21.67c.85,9.91,1.7,19.82,2.78,29.61q-1.53,10.67-4,21.16"/><path class="cls-16" d="M293.36,67.45a38.52,38.52,0,0,1-2.14-5.87,12.73,12.73,0,0,1-.16-6.19"/><path class="cls-16" d="M291.67,52.71l.87-3.2"/><path class="cls-15" d="M302.29,82.56a82.61,82.61,0,0,0,10.18,9.6q13.71,6.7,27.77,12.67"/><path class="cls-16" d="M304,78.22a18.32,18.32,0,0,1,11.3,4"/><path class="cls-17" d="M291.37,74a4.19,4.19,0,0,0,0,4,3.88,3.88,0,0,0,3.47,1.91,4.65,4.65,0,0,0,2.83-1.3,5.14,5.14,0,0,0,1.71-3.4,3.54,3.54,0,0,0-1.58-3.36A5.17,5.17,0,0,0,291.37,74Z"/><path class="cls-16" d="M317.3,83.73l4.35,4.06"/><path class="cls-10" d="M384.6,36.15c-.92-3-3-8.16-5.93-9.25a10.46,10.46,0,0,0-9.09,1,8.77,8.77,0,0,0,1.28-8.06,7.31,7.31,0,0,0-6.44-4.76,6.28,6.28,0,0,0-6.19,4.8,15.28,15.28,0,0,0-.63-7.54,6.7,6.7,0,0,0-11.8-2.12c-1.57,1.76-2.45,4-3.48,6.93a5.68,5.68,0,0,0-10.81,2.32,11.18,11.18,0,0,0-11.67,1c-3.29,2.49-4.95,11.17-4.11,15.71C317.05,35.93,383.43,36.2,384.6,36.15Z"/><path class="cls-11" d="M329.42,22.44a7.56,7.56,0,0,0-9,4.75"/><path class="cls-11" d="M319.68,29.33l-.24,2.21"/><path class="cls-11" d="M347.72,12.35A4.84,4.84,0,0,1,355,17.24"/><path class="cls-11" d="M367.08,20.44a7.48,7.48,0,0,1,.47,5.09,22.46,22.46,0,0,1-1.94,4.84"/><path class="cls-11" d="M343.69,32.2a8.32,8.32,0,0,1,.4-4.12,3.12,3.12,0,0,1,5.57-.87,8.61,8.61,0,0,1,1.26,2.47,3.77,3.77,0,1,1,7.53-.23"/><path class="cls-11" d="M377,30a5.35,5.35,0,0,1,3,3.41"/><path class="cls-13" d="M354.77,69.47c-2.08,32-4,60.39-3.36,90,3,2,7,2.31,9.4.66-1.76-30.18-2.59-59.65-2.59-90.66A17.26,17.26,0,0,1,354.77,69.47Z"/><path class="cls-14" d="M353.75,85.22c-1,27.28-2.13,51.63-2.92,74.12a13,13,0,0,0,8.89,1.31"/><path class="cls-14" d="M350.83,131.57a9.37,9.37,0,0,0,8.89.09c0-.15-.09-.29-.14-.44"/><path class="cls-14" d="M351.86,120.81a7.6,7.6,0,0,0,7.46-.12"/><path class="cls-14" d="M352.05,109.54a6.51,6.51,0,0,0,7.25.19"/><path class="cls-12" d="M356.65,69.32C352,65.53,347,61.6,341.1,60.78a31.25,31.25,0,0,0-8,.26,248.71,248.71,0,0,0-30.72,5.64c12.35,3,24.92,6,37.61,5.3A94.83,94.83,0,0,0,356.65,69.32Z"/><path class="cls-12" d="M356.84,69.68c-.94,5.92-1.85,12.19.43,17.73a31.07,31.07,0,0,0,4.25,6.81A247.19,247.19,0,0,0,381.82,118c-3.61-12.18-7.31-24.56-14.3-35.18A94.67,94.67,0,0,0,356.84,69.68Z"/><path class="cls-12" d="M357.51,68.14c5.8-1.94,11.87-4,16-8.6,2.48-2.76,4-6.22,5.45-9.66A232.32,232.32,0,0,0,388.58,21c-7.69,6.73-14.09,14.78-20.45,22.77a48.7,48.7,0,0,0-5.42,7.82c-2.72,5.3-3.42,11.43-6,16.81"/><path class="cls-15" d="M357.52,68.36c5.71-2.18,11.59-4.62,15.69-9.15,2.85-3.14,4.65-7.08,6.29-11a229.91,229.91,0,0,0,9.26-26.64"/><path class="cls-16" d="M362.28,61c.63-2.63,1.26-5.25,1.93-8l4.28-5.49"/><path class="cls-16" d="M370.68,45.31l2.14-3"/><path class="cls-15" d="M302.62,66.64c9.78,1.81,19.56,3.62,29.2,5.64q10.77-.5,21.46-2"/><path class="cls-16" d="M348.64,66.41A38.33,38.33,0,0,0,343,63.7a12.94,12.94,0,0,0-6.15-.76"/><path class="cls-16" d="M334.13,63.29l-3.27.56"/><path class="cls-15" d="M362.81,76.76a81.5,81.5,0,0,1,8.57,11.07q5.34,14.3,9.92,28.86"/><path class="cls-16" d="M358.33,78a18.29,18.29,0,0,0,2.85,11.63"/><path class="cls-17" d="M355.32,65.06a4.2,4.2,0,0,1,4,.41,3.87,3.87,0,0,1,1.56,3.64,4.63,4.63,0,0,1-1.57,2.7,5.13,5.13,0,0,1-3.54,1.36,3.52,3.52,0,0,1-3.2-1.9A5.18,5.18,0,0,1,355.32,65.06Z"/><path class="cls-16" d="M362.52,91.81l3.62,4.73"/><g class="cls-18"><path class="cls-19" d="M566.55,525.91c-.62-19.62-6-103.55-8.24-123.06,19.85-28.22,33.21-61.5,36.86-95.86-9-27.68-19.69-57.83-34.92-85.73s-35.21-53.6-60.71-72.57c-3.4-2.53-7.34-5.06-11.54-4.5s-7.6,6.05-4.76,9.19c-5.27-2.27-10.23-2.44-13.48-.19s-4.85,6.37-4.83,10.33a25,25,0,0,0,3.33,11.26c-4.73,6.76-3.75,14.51-1.4,21.26s6,13.05,7.92,19.93a7.93,7.93,0,0,0-4.91,6.8c-.26,2.77.58,5.51,1.46,8.15A237.05,237.05,0,0,0,486.8,267c0,16.12,1.43,32.23,2.2,49.84a67.35,67.35,0,0,0-28.69,42.29c-3.5,17.14.11,35.61,11.07,48.92.91,5.73-2.67,112.61-4.84,117.83Z"/><path class="cls-20" d="M481,150.76a304.53,304.53,0,0,1,49.06,104"/><path class="cls-20" d="M464.1,165.52c17.58,31,38.21,66.83,48.44,101"/><path class="cls-20" d="M471.56,208.38a547.29,547.29,0,0,1,29.95,68.82"/><path class="cls-20" d="M595.07,307.39c-3.65,34.32-17.15,67.54-36.93,93.41,2.8,27.86,5.6,97.25,8.41,125.11"/><path class="cls-19" d="M138.44-6.34c.62,19.63,6,103.56,8.24,123.07-19.86,28.22-33.22,61.5-36.86,95.86,9,27.68,19.69,57.82,34.92,85.72s35.21,53.6,60.71,72.58c3.4,2.53,7.34,5.05,11.54,4.49s7.6-6,4.75-9.18c5.28,2.26,10.24,2.43,13.49.18s4.85-6.37,4.82-10.32a24.84,24.84,0,0,0-3.32-11.26c4.73-6.76,3.75-14.51,1.4-21.27s-6-13-7.92-19.92a7.94,7.94,0,0,0,4.91-6.8c.25-2.77-.58-5.51-1.46-8.15a238.14,238.14,0,0,0-15.48-36.11c0-16.12-1.42-32.24-2.2-49.84a67.3,67.3,0,0,0,28.69-42.3c3.51-17.13-.1-35.6-11.06-48.92-.91-5.72,2.67-112.61,4.84-117.83Z"/><path class="cls-20" d="M224,368.82a304.43,304.43,0,0,1-49.06-104"/><path class="cls-20" d="M240.88,354.05c-17.57-31-38.2-66.82-48.43-101"/><path class="cls-20" d="M233.43,311.2a545.83,545.83,0,0,1-30-68.82"/><path class="cls-20" d="M109.92,212.19c3.65-34.32,17.15-67.55,36.93-93.41-2.8-27.86-5.61-97.26-8.41-125.12"/></g><path class="cls-21" d="M490.71,356.07C462,402,409.46,432.57,351,432.57q-5.07,0-10.06-.27-4-.23-7.95-.63c-81.74-8.17-148-71.36-148-154.34,0-37.81,13.74-73.64,36.46-102.35a174.77,174.77,0,0,1,40.12-37.06A162.67,162.67,0,0,1,334,111.2a158.94,158.94,0,0,1,17-.92,163.81,163.81,0,0,1,63.56,12.55A157.44,157.44,0,0,1,458,150a159.92,159.92,0,0,1,16.33,16.69c2.44,2.9,4.8,5.89,7,9A165.4,165.4,0,0,1,503.6,218c1.52,4.3,2.88,8.68,4.08,13.17a181.21,181.21,0,0,1,5.9,40.27A149,149,0,0,1,490.71,356.07Z"/><path class="cls-5" d="M341,432.3c.45-.86.88-1.72,1.33-2.57,1.94-3.71,3.92-7.65,3.74-11.84-.1-2.33-.72-5.09,1-6.65,1.93-1.74,5.39-.5,7.31-2.24,2.24-2,.42-5.91,1.63-8.68,2.06-4.7,9.89-2.21,13.71-5.63,4.18-3.74.52-10.76,2-16.17s7.6-7.89,12.8-10.08,10.95-6.3,10.26-11.89c-.35-2.82-2.34-5.22-2.72-8-.8-6.14,6.18-10.93,6.34-17.11.17-6.71-7.37-10.73-13.89-12.27s-14.19-2.87-17.36-8.79c-.91-1.69-1.35-3.65-2.53-5.16-2.93-3.75-8.66-3.12-13.3-2.13-.36-5.15-4.77-9.32-9.68-10.93s-10.23-1.15-15.35-.49c1-2.12-1.54-4.53-3.85-4.26s-4.05,2.24-5.17,4.27c-3.68-4.24-12.55-3.14-13.65-8.64-.28-1.36.07-2.86-.58-4.07-1.46-2.7-6-1.44-8.18-3.64-1.46-1.49-1.17-3.92-.58-5.91s1.41-4.12.7-6.08-3.86-2.9-4.8-1c-.41.83-.19,1.84-.34,2.76-.38,2.41-3.34,3.69-5.72,3.18s-4.31-2.25-6.1-3.92a2.51,2.51,0,0,1-1.05-1.79c.05-.71.69-1.22,1-1.86.68-1.3,0-2.85-.3-4.28-1.41-5.91,4-12.39,10-12.11,1.22.05,2.61.28,3.52-.53a12.1,12.1,0,0,0,1.17-1.72c1.65-2.05,5.18-.62,6.5,1.65s1.48,5.09,2.8,7.37,4.84,3.7,6.49,1.65,0-4.68-1.56-6.6l.18-1c-.12-1.78-.22-3.56-.34-5.33a2.58,2.58,0,0,1,2.19-3.16,12.9,12.9,0,0,0,4.27-2.73c2.43-2.54,2.92-6.29,3.68-9.72s2.31-7.17,5.61-8.38c1.8-.66,4.27-.74,4.88-2.56.36-1.08-.19-2.22-.38-3.32-.46-2.64,1.19-5.28,3.39-6.8s4.89-2.15,7.5-2.75a4,4,0,0,1-1.4,4.76c3.24-.14,6-2.22,8.59-4.2a7.31,7.31,0,0,0,2.65-3c.47-1.25,0-3-1.28-3.34-2-.59-4,2.27-5.87,1.3.58-.95,1.17-1.9,1.77-2.86-1.38-1.61-4.89.16-5.77-1.76-.66-1.46,1.24-2.7,2.77-3.18,2.93-.92,6.92-1.43,8.35,1.3.93,1.76.23,4.3,1.72,5.63a3.76,3.76,0,0,0,2.65.74c1.67,0,3.47-.68,4.2-2.17s-.45-3.73-2.09-3.45c-.31-5.31,4.69-10.62,2.4-15.42-2.12-4.43-9.41-5.39-10-10.26-.15-1.29.25-2.61,0-3.88s-1.72-2.45-2.8-1.72-.63,2.39-1.24,3.5c-.74,1.3-2.72,1.34-4,.54a13.63,13.63,0,0,1-3-3.32,14.65,14.65,0,0,0-9.26-5.31c-2.81-.41-5.94.13-7.89,2.18s-2.15,5.83.11,7.54c.78.58,1.81.95,2.26,1.81,1,1.82-1.35,3.51-2.8,5a7.57,7.57,0,0,0-.94,9.22c-1.66,1-3.73-.64-4.64-2.39s-1.61-3.88-3.45-4.57c-1.64-.62-3.54.24-5.21-.28-2.33-.75-3.1-3.68-5-5.17-1.4-1.09-3.26-1.3-4.89-2s-3.21-2.32-2.7-4c.6-2,3.31-2.2,5.11-3.3,4.47-2.7,2.82-10.83,7.45-13.26l-.62-1-4.05,1.66c-.53.23-1.19.43-1.64.07a2.14,2.14,0,0,1-.49-1.28c-.51-2.5-3.4-3.77-6-3.87s-5.13.58-7.64.11-4.85-2.1-7.41-2.68c-3.06-.69-6.23.14-9.35.34a13.16,13.16,0,0,1-4.59-.47C238.6,153,221.49,175,221.49,175a17.72,17.72,0,0,1-.17,7.42c-.8,3.94-1.58,8.62,1.25,11.47,1,1,2.22,1.57,3.16,2.55,3.47,3.58,1,9.47,1.34,14.44.46,6.66,6.26,11.89,7.38,18.47.44,2.57.13,5.22.6,7.8,1.3,7.2,8.11,11.9,14.32,15.77,2.95-6.25-8.92-12.47-5.87-18.67,2.07-1,4.25,1.24,5.3,3.31,3.65,7.23,4.94,15.44,8.11,22.89s9.2,14.64,17.27,15.41c2.1.2,4.53.07,6,1.62.75.82,1.13,2,2.07,2.6,1.7,1,3.94-.52,5.86,0,2.23.64,2.72,3.52,4,5.44,2.7,4,8.65,3.47,12.9,5.65,3.92,2,6.24,6.32,6.86,10.68s-.27,8.78-1.36,13a123.9,123.9,0,0,1-9.89,26c6.87.54,9.13,9.59,14.56,13.85,4.6,3.61,11.58,3.7,15.32,8.19l.77.32a57.55,57.55,0,0,0-1.1,28.9,24.41,24.41,0,0,1,1,6.86c-.24,3.33-2.13,6.41-2.17,9.76,0,3,1.41,5.84,1.16,8.81-.12,1.32-.57,2.6-.57,3.93,0,2.15,1.17,4.09,2,6.06a22.29,22.29,0,0,1,1.39,4.13"/><path class="cls-22" d="M331.28,363.22a57.55,57.55,0,0,0-1.1,28.9,24.41,24.41,0,0,1,1,6.86c-.24,3.33-2.13,6.41-2.17,9.76,0,3,1.41,5.84,1.16,8.81-.12,1.32-.57,2.6-.57,3.93"/><path class="cls-22" d="M227.07,210.86c.46,6.66,6.26,11.89,7.38,18.47.44,2.57.13,5.22.6,7.8,1.3,7.2,8.11,11.9,14.32,15.77,2.95-6.25-8.92-12.47-5.87-18.67,2.07-1,4.25,1.24,5.3,3.31,3.65,7.23,4.94,15.44,8.11,22.89"/><path class="cls-22" d="M353.87,190.14c-.31-5.31,4.69-10.62,2.4-15.42-2.12-4.43-9.41-5.39-10-10.26-.15-1.29.25-2.61,0-3.88s-1.72-2.45-2.8-1.72-.63,2.39-1.24,3.5c-.74,1.3-2.72,1.34-4,.54a13.63,13.63,0,0,1-3-3.32,14.65,14.65,0,0,0-9.26-5.31"/><path class="cls-22" d="M384.48,319.14c-6.53-1.54-14.19-2.87-17.36-8.79-.91-1.69-1.35-3.65-2.53-5.16-2.93-3.75-8.66-3.12-13.3-2.13-.36-5.15-4.77-9.32-9.68-10.93s-10.23-1.15-15.35-.49"/><path class="cls-5" d="M413.25,131.07c.7,1.07-.17,2.58-1.34,3.1a10,10,0,0,1-3.79.45c-8.18.34-14,8-21.39,11.41-4.07,1.89-8.86,2.62-12.08,5.77a2.81,2.81,0,0,0-.9,1.48,3.57,3.57,0,0,0,.27,1.63,11.31,11.31,0,0,1-.24,7.29,6.56,6.56,0,0,1-6.21-1.4,18.65,18.65,0,0,1-4-5.29c-1.89-3.34-3.71-6.83-4.18-10.63-.37-3,.08-6.23-1.29-8.93-.51-1-1.24-1.89-1.71-2.92-1.23-2.71-.56-6.37-2.83-8.29-1.72-1.42-4.65-1.38-5.59-3.39-1.25-2.65,2.26-6.43.07-8.39-.86-.79-2.18-.69-3.34-.57-2.88.32-5.85.58-8.6-.26a8.5,8.5,0,0,1-2.09-.93,158.94,158.94,0,0,1,17-.92,163.81,163.81,0,0,1,63.56,12.55,21.28,21.28,0,0,0-2.33,2.88c-.79,1.33-1.05,3.18,0,4.33A10.9,10.9,0,0,1,413.25,131.07Z"/><path class="cls-5" d="M324.62,130.36c.12.81,1.46.6,1.84-.12s.27-1.62.63-2.35c1-2,4.18-1,5.19.93s.83,4.27,1.61,6.3a8.84,8.84,0,0,0,4,4.35,14.85,14.85,0,0,1,3.23,1.95,2.76,2.76,0,0,1,.67,3.41c-.92,1.3-2.9,1-4.42.47.62,1.81,1.84,3.39,2.26,5.25s-.5,4.29-2.4,4.45c-1.35.12-2.53-1-3.21-2.14a24.69,24.69,0,0,0-2-3.56c-1.82-2.16-5-2.39-7.8-2.77-.77-.1-1.69-.37-1.87-1.13s.45-1.32.72-2c.51-1.25-.19-2.63-.87-3.79a28.87,28.87,0,0,0-4.67-6.49,9.67,9.67,0,0,0-7.22-2.92c-2.38.2-4.53,1.58-6.91,1.83s-5.31-1.58-4.66-3.88a4.1,4.1,0,0,1,1.22-1.79,13.92,13.92,0,0,1,22.59,4.81Z"/><path class="cls-5" d="M417.15,146l3.19.39a6.21,6.21,0,0,1,2.52.67,2.14,2.14,0,0,1,1.11,2.2c-.21.87-1.1,1.38-1.9,1.79-2.51,1.27-5.11,2.57-7.92,2.77a3.36,3.36,0,0,1-1.67-.21c-1.46-.71-1.61-2.94-3-3.69a9.89,9.89,0,0,0-2.68-.45.7.7,0,0,1-.44-.23.63.63,0,0,1-.08-.47,3.17,3.17,0,0,1,1.89-2.39,9.3,9.3,0,0,1,3.1-.67l4.34-.45Z"/><path class="cls-5" d="M304.9,259.91a11.47,11.47,0,0,1,3.43-1.19,3.93,3.93,0,0,1,3.36,1c.75.81,1,2,1.62,2.86a3.84,3.84,0,0,0,4.37,1.3c.61,1.06-.38,2.47-1.58,2.71a5,5,0,0,1-3.43-1c-2.45-1.51-4.76-3.59-7.62-3.85-1.25-.12-2.61.11-3.69-.55a2.89,2.89,0,0,1,3.14-1.71Z"/><path class="cls-5" d="M327.09,266.41c0,.23.35-.18.13-.25s-.41.15-.58.32c-1.14,1.12-3.47-.12-4.5,1.1-.51.61-.39,1.51-.57,2.28s-.66,1.57-.27,2.24a1.52,1.52,0,0,0,1.9.38,16.83,16.83,0,0,0,1.74-1.2c1.52-.94,3.47-.76,5.24-.49a4.86,4.86,0,0,0,1.86.06,1.62,1.62,0,0,0,1.29-1.22c.16-1.15-1.27-1.81-2.41-1.95s-2.59-.38-2.91-1.49Z"/><path class="cls-5" d="M474.32,166.69c-.32.69-.61,1.4-.87,2.12a9.42,9.42,0,0,1-1.31,2.88,2.57,2.57,0,0,1-2.81.95c-1.39-.59-1.79-2.78-3.3-3-.63-.09-1.26.23-1.91.2-1.28,0-2.1-1.37-2.5-2.58s-.67-2.59-1.7-3.36c-1.85-1.4-5.2-.06-6.46-2-1-1.62.56-3.56,1.73-5.08A14,14,0,0,0,458,150,159.92,159.92,0,0,1,474.32,166.69Z"/><path class="cls-5" d="M443.94,172.27a3.72,3.72,0,0,1,3.79,4.1,4.93,4.93,0,0,0-.15,1.07c.09,1.2,1.52,1.75,2.31,2.66a3.81,3.81,0,0,1,0,4.5,8.59,8.59,0,0,1-3.83,2.84.83.83,0,0,1-.82.05A.76.76,0,0,1,445,187a10.87,10.87,0,0,1,.27-3.49,3.9,3.9,0,0,0-.75-3.32c-.85-.83-2.29-.95-3-1.93s-.26-2.28-.49-3.43a11.28,11.28,0,0,0-1.72-3.15c-.61-1-.89-2.51,0-3.35s2.65-.41,3.89.21a1.82,1.82,0,0,1,.58.4,1.26,1.26,0,0,1-.21,1.5c-.36.41-.85.69-1.23,1.09a2.67,2.67,0,0,0-.5,2.78Z"/><path class="cls-5" d="M434.77,173.34a3.84,3.84,0,0,1,2.32,2.79,11.55,11.55,0,0,1,.13,3.76,2.06,2.06,0,0,1-.32,1.12c-.28.37-.77.49-1.14.76-.89.64-1.07,2-2,2.55a2.12,2.12,0,0,1-2.95-1.39,3.58,3.58,0,0,1,1.23-3.39,5.38,5.38,0,0,0,1.47-1.54,12.1,12.1,0,0,0,.38-1.63c.15-.54.58-1.09,1.14-1.05Z"/><path class="cls-5" d="M503.6,218h-.53c-3.16,0-6.53-1.69-7.58-4.67-.57-1.6-.64-3.69-2.17-4.39l-1.62,1a48.72,48.72,0,0,1,2.17,6.65c.37,1.52.18,3.77-1.38,3.84a7.68,7.68,0,0,0-4.06-3.89,7.62,7.62,0,0,1-1.83-.84c-1.53-1.19-1.19-3.51-1.27-5.45-.2-5.68-6.18-10.43-11.77-9.35,3.9,5.29,8,11.43,6.81,17.89a5.35,5.35,0,0,1-2.15-3.09,9.85,9.85,0,0,1-3.45,6.73c-.95-2.44-.46-5.17-.29-7.77s-.17-5.59-2.22-7.22c-1.27-1-3-1.32-4.34-2.17s-2.42-2.8-1.41-4.07c-2.11-.85-4.21,1.07-5.82,2.68s-4.25,3.11-5.95,1.6c-1.82,3.18-3.7,6.59-3.54,10.25A6.4,6.4,0,0,1,451,219c-.74,1.38-2.6,1.68-4.15,1.5s-3.13-.67-4.64-.28a11,11,0,0,1-2.63.74c-2.28,0-3.12-3-3.28-5.26-.27-3.5-.52-7-.78-10.52a52.67,52.67,0,0,1,14.91-1.37q-1.8-4.95-3.59-9.91a3.36,3.36,0,0,1-.28-1.93c.32-1.19,1.74-1.59,2.83-2.15,4.19-2.14,5.37-8.64,10-9.51a3.54,3.54,0,0,0,1.94-.64c.76-.78.28-2.1.56-3.15.49-1.81,3.67-1.83,4.16,0,.23.79,0,1.73.5,2.38s1.72.67,2.64.49a63.79,63.79,0,0,0,12.23-3.75A165.4,165.4,0,0,1,503.6,218Z"/><path class="cls-5" d="M490.71,356.07a7.72,7.72,0,0,1-2.73-5.86c.07-2.35,1.43-4.57,1.19-6.9-.28-2.56-2.4-4.57-2.94-7.08-.62-2.9.84-6.39-1.09-8.63s-6.91-2.21-7.11-5.29c-.14-2.22,2.59-3.5,3.4-5.56,1.42-3.61-3.36-6.62-4.26-10.39-.4-1.61,0-3.31-.34-4.94-.65-3.56-4.35-5.94-7.95-6.26s-7.17.95-10.55,2.26-6.87,2.7-10.5,2.63c-6.67-.14-12.15-5.07-16.95-9.71a19,19,0,0,1-3.65-4.31c-1.06-1.94-1.41-4.18-2.37-6.17-.81-1.65-2-3.14-2.38-4.95-.61-3.25,1.76-6.21,2.95-9.3,1.73-4.54.89-9.79,2.78-14.28,2.12-5.05,7.33-8.32,9.32-13.41,1-2.59,1.11-5.48,2.28-8s4.12-4.63,6.63-3.46a21.88,21.88,0,0,0,2.5,1.48c1.29.41,2.65-.17,3.87-.72l12.53-5.76c1-.46,2.22-.92,3.16-.34a4,4,0,0,1,1.33,2.33,16.37,16.37,0,0,0,7.71,8.59,48.75,48.75,0,0,0,11,4.1,6.06,6.06,0,0,1,8.23-8.28c1.23.69,2.18,1.8,3.36,2.59a8.21,8.21,0,0,0,7.52.69,181.21,181.21,0,0,1,5.9,40.27A149,149,0,0,1,490.71,356.07Z"/><path class="cls-23" d="M185,277.33c0-37.81,13.74-73.64,36.46-102.35a174.77,174.77,0,0,1,40.12-37.06"/><path class="cls-23" d="M507.68,231.15a181.21,181.21,0,0,1,5.9,40.27,149,149,0,0,1-22.87,84.65C462,402,409.46,432.57,351,432.57"/><path class="cls-22" d="M305,291.16c3.92,2,6.24,6.32,6.86,10.68s-.27,8.78-1.36,13"/><path class="cls-22" d="M490.71,356.07a7.72,7.72,0,0,1-2.73-5.86c.07-2.35,1.43-4.57,1.19-6.9-.28-2.56-2.4-4.57-2.94-7.08-.62-2.9.84-6.39-1.09-8.63s-6.91-2.21-7.11-5.29c-.14-2.22,2.59-3.5,3.4-5.56,1.42-3.61-3.36-6.62-4.26-10.39-.4-1.61,0-3.31-.34-4.94-.65-3.56-4.35-5.94-7.95-6.26s-7.17.95-10.55,2.26"/><path class="cls-22" d="M408.12,134.62c-8.18.34-14,8-21.39,11.41-4.07,1.89-8.86,2.62-12.08,5.77a2.81,2.81,0,0,0-.9,1.48,3.57,3.57,0,0,0,.27,1.63,11.31,11.31,0,0,1-.24,7.29,6.56,6.56,0,0,1-6.21-1.4"/><path class="cls-22" d="M323.06,143.41c.51-1.25-.19-2.63-.87-3.79a28.87,28.87,0,0,0-4.67-6.49,9.67,9.67,0,0,0-7.22-2.92c-2.38.2-4.53,1.58-6.91,1.83"/><path class="cls-22" d="M422.07,151c-2.51,1.27-5.11,2.57-7.92,2.77a3.36,3.36,0,0,1-1.67-.21c-1.46-.71-1.61-2.94-3-3.69"/><path class="cls-22" d="M459.92,163.91c-1.85-1.4-5.2-.06-6.46-2-1-1.62.56-3.56,1.73-5.08A14,14,0,0,0,458,150"/><path class="cls-22" d="M436.25,215.74c-.27-3.5-.52-7-.78-10.52a52.67,52.67,0,0,1,14.91-1.37"/><path class="cls-22" d="M474.77,222.42c-.95-2.44-.46-5.17-.29-7.77s-.17-5.59-2.22-7.22c-1.27-1-3-1.32-4.34-2.17s-2.42-2.8-1.41-4.07"/><path class="cls-23" d="M246.48,303.52c-2,1.34-4.28,2.74-6.66,2.35-1.69-.28-3.09-1.41-4.68-2a8.09,8.09,0,0,0-5.89,0c-1.35.53-2.57,1.43-4,1.64-3,.43-5.9-2.31-8.84-1.56-2.25.57-3.83,3.07-6.15,3-1.28,0-2.39-.84-3.55-1.38a8.9,8.9,0,0,0-8.35.53"/><path class="cls-23" d="M254.32,312.62a9.61,9.61,0,0,0-7.4-.45c-1.73.6-3.33,1.72-5.16,1.76s-3.35-.91-5-1.36a9,9,0,0,0-5.29.22,25.92,25.92,0,0,1-3.87,1.48c-3.3.62-6.72-1.95-9.92-.93-1.69.54-3,2-4.75,2.36-2.57.5-5.2-1.62-7.71-.9"/><path class="cls-23" d="M254.32,293.39a9.7,9.7,0,0,0-7.4-.45c-1.73.61-3.33,1.72-5.16,1.77s-3.35-.91-5-1.36a8.93,8.93,0,0,0-5.29.22,25.92,25.92,0,0,1-3.87,1.48c-3.3.61-6.72-1.95-9.92-.93-1.69.54-3,2-4.75,2.36-2.57.5-5.2-1.63-7.71-.9"/><path class="cls-23" d="M408,204.56c-2,1.34-4.27,2.74-6.65,2.35-1.69-.28-3.1-1.41-4.69-2a8.14,8.14,0,0,0-5.89,0c-1.34.54-2.57,1.44-4,1.65-3,.43-5.89-2.31-8.83-1.56-2.25.57-3.84,3.06-6.16,3-1.28,0-2.38-.83-3.54-1.37a8.93,8.93,0,0,0-8.35.52"/><path class="cls-23" d="M415.82,213.65a9.7,9.7,0,0,0-7.4-.45c-1.72.61-3.33,1.72-5.15,1.77s-3.35-.91-5-1.36a8.89,8.89,0,0,0-5.28.22,26.78,26.78,0,0,1-3.87,1.48c-3.31.61-6.72-1.95-9.93-.93-1.69.54-3,2-4.75,2.36-2.57.5-5.19-1.63-7.71-.9"/><path class="cls-23" d="M415.82,194.43a9.65,9.65,0,0,0-7.4-.45c-1.72.61-3.33,1.72-5.15,1.77s-3.35-.92-5-1.36a9,9,0,0,0-5.28.21,25.71,25.71,0,0,1-3.87,1.49c-3.31.61-6.72-2-9.93-.93-1.69.54-3,2-4.75,2.36-2.57.5-5.19-1.63-7.71-.9"/><path class="cls-23" d="M451.41,350.38c-3.93-2.11-6.4-2-10.42-.32s-6.3-1.32-10.09-1c-3.38.31-4.83,3.9-8.5,2.76s-6.46-2.86-10.33-.46"/><path class="cls-23" d="M454.89,359.18c-3.55-.46-6-2.3-9.75-1.12s-5.29,1.65-9.15.79c-3.69-.82-4.92.35-8.16,1.68s-5.83-1.23-8.95-.46"/><path class="cls-23" d="M453.76,339.74c-3.62-1.09-6-1.83-9.72-.45-3.36,1.25-5.16.87-8.6.2s-4.74.78-7.84,1.93-5.72-1.34-8.72-.57"/><path class="cls-19" d="M468.88,408.08c-11-13.31-14.56-31.78-11.06-48.92a67.31,67.31,0,0,1,28.69-42.29l1.54-1.37c-4-25.06-4.74-51,1.8-75.53.84-3.12,1.82-6.29,3.8-8.84s5.15-4.4,8.34-4c5.48.74,8,7.08,9.41,12.42q8.1,30.24,16.18,60.47Z"/><path class="cls-24" d="M473.93,327.38c-18,16-23.7,56-6,79.53"/><path class="cls-25" d="M527.58,300.06q-8.08-30.24-16.18-60.47c-1.43-5.34-3.93-11.68-9.41-12.42-3.19-.44-6.37,1.41-8.34,4s-3,5.72-3.8,8.84c-6.54,24.51-5.81,50.47-1.8,75.53"/><path class="cls-19" d="M231.12,111.49c11,13.32,14.56,31.79,11.06,48.92a67.33,67.33,0,0,1-28.69,42.3L212,204.08c4,25,4.74,51-1.8,75.53-.84,3.12-1.82,6.28-3.8,8.83s-5.15,4.4-8.34,4c-5.48-.75-8-7.09-9.41-12.43q-8.1-30.23-16.18-60.47Z"/><path class="cls-24" d="M226.07,192.19c18-16,23.7-56,6-79.52"/><path class="cls-25" d="M172.42,219.51q8.09,30.24,16.18,60.47c1.43,5.34,3.93,11.68,9.41,12.43,3.19.43,6.37-1.42,8.34-4s3-5.71,3.8-8.83c6.54-24.51,5.81-50.48,1.8-75.53"/><path class="cls-17" d="M499.23,407.57c-23.61,12.32-47.34,24.38-70.82,36-14.89-22.36-30.42-44.29-46.85-65.43.24-1.37.49-2.73.74-4.09L499.55,404Z"/><path class="cls-26" d="M382.6,374.08q24.21,32.21,46.56,65.76c23.48-11.65,46.3-23.61,69.91-35.93-15.28-18.56-30.16-36.53-46.73-53.52C429,358.29,405.63,366.18,382.6,374.08Z"/><path class="cls-12" d="M392.69,378.62c13.16,18.32,25,34.8,38.12,53.12,18.81-11.12,39.67-20.94,59.06-30.18-13-14.21-26.13-30.5-38.59-44.73C431.25,362,410.63,371.67,392.69,378.62Z"/><path class="cls-27" d="M439.31,365.31l29.47,40.31"/><path class="cls-27" d="M415.47,374.61q15.9,21.76,30.68,44.32"/><path class="cls-27" d="M458.18,373.9l-48.86,19.64"/><path class="cls-27" d="M473.12,392.44a548.35,548.35,0,0,1-51.94,19.12"/><path class="cls-28" d="M498.73,403.5c-15.49-17.6-30.36-35.47-45.85-53.07-23.64,7.4-49.23,15.34-70.28,24.18"/><path class="cls-29" d="M395.4,391.62A578.45,578.45,0,0,1,429,439.11c15-6.23,44.5-22,45.45-22.36"/><path class="cls-27" d="M388.64,392.56c-3.33,2.16-7,3.83-10.33,5.92s-6.57,4.7-8.47,8.18-2.31,8-.23,11.36a8.28,8.28,0,0,0,6,3.93,7,7,0,0,0,6.47-2.82,6.13,6.13,0,0,0,0-6.95,8.67,8.67,0,0,0-4.24-2.76c-7.88-2.71-17.14.46-22.53,6.83s-7.07,15.38-5.45,23.56c1.46,7.32,5.92,14.51,12.93,17.06"/><path class="cls-30" d="M423.11,481.53c.4,1.85.74,5.18,3.14,5.69S438,480.45,438,464.28c0-6.1-5.79-12.9-6.54-12.8C425.5,452.19,421.06,472.18,423.11,481.53Z"/><path class="cls-3" d="M426.25,487.22q-34.67-8.43-69.85-14.57c-1.32-6.9-1.82-13.32-.22-19.18a26.7,26.7,0,0,1,10.28-14.62c11.25-.24,22.76,2.55,34.12,5.33,10.3,2.52,20.61,5,30.86,7.3a29.65,29.65,0,0,0-7.91,17.63C423.1,475.47,422.65,478.15,426.25,487.22Z"/><path class="cls-31" d="M429.76,463.76a6.13,6.13,0,0,1,3.62,6.69,3.78,3.78,0,0,1-.62,1.49c-1,1.33-2.86,1.51-4.51,1.56"/><path class="cls-32" d="M427.8,456.84a34.15,34.15,0,0,0-1.91,30.46q-34.22-8.94-69.19-14.56"/><path class="cls-32" d="M395.79,443.49A185.61,185.61,0,0,0,367.16,439a23.48,23.48,0,0,0-11.39,16.66"/><path class="cls-33" d="M429.84,466.81a7.28,7.28,0,0,1,1.65,2.55"/><path class="cls-34" d="M369.41,468.56A131.15,131.15,0,0,1,374.07,446c-2.76-.49-4.83-.77-6.9-1.05-4.1,6.84-5.66,15.3-5,23.46C364.63,469.08,367.2,469.51,369.41,468.56Z"/><path class="cls-34" d="M381.18,470.59A132,132,0,0,1,385.85,448c-2.76-.48-4.83-.76-6.9-1-4.1,6.84-5.66,15.29-5,23.45C376.41,471.11,379,471.54,381.18,470.59Z"/><path class="cls-34" d="M393.25,472.39a131.09,131.09,0,0,1,4.67-22.62c-2.76-.49-4.83-.77-6.9-1-4.1,6.85-5.66,15.3-5,23.46C388.48,472.91,391.05,473.34,393.25,472.39Z"/><path class="cls-34" d="M405.06,475a131.09,131.09,0,0,1,4.67-22.62c-2.76-.48-4.83-.76-6.9-1-4.1,6.84-5.66,15.29-5,23.45C400.28,475.54,402.86,476,405.06,475Z"/><path class="cls-31" d="M416.45,461.34c-.45,2.33-.91,4.65-1.36,7"/><path class="cls-31" d="M412.77,464.65l5.67.93"/><path class="cls-17" d="M395.43,392.88a34,34,0,0,0-5.59,4.4,18.9,18.9,0,0,1-4.9-6.48,24.55,24.55,0,0,1,4.6-3.93C391.5,388.84,393.27,391,395.43,392.88Z"/><path class="cls-35" d="M321.9,430.2c-4,1.79-8.77,1.07-12.81-.68s-7.6-4.44-11.38-6.71a37.71,37.71,0,0,0-13.66-5.31A21.34,21.34,0,0,0,269.81,420a15.08,15.08,0,0,0-7.37,12.4c4.36,7.66,10.88,14.22,18.92,17.83s17.6,4.08,25.65.48S321.23,439.24,321.9,430.2Z"/><path class="cls-36" d="M274.67,431.23a100.57,100.57,0,0,0,12.52,14.5"/><path class="cls-36" d="M281.29,432.29l8.79-3.41"/><path class="cls-36" d="M282.76,422.92l-11.36,7.85"/><path class="cls-35" d="M279.15,478.15a38.15,38.15,0,0,0-34.23-26.92,12.24,12.24,0,0,0-3.29,8.19,18.52,18.52,0,0,0,2.09,8.7A25.3,25.3,0,0,0,259,481,25,25,0,0,0,279.15,478.15Z"/><path class="cls-36" d="M251.92,421.44a28.22,28.22,0,0,1-6.38,16"/><path class="cls-37" d="M254,419.25a60.17,60.17,0,0,0,18.58-9.69,15.72,15.72,0,0,0,4.18-4.31,2.76,2.76,0,0,0,.42-2.42,2.15,2.15,0,0,0-1.88-1.13,5.64,5.64,0,0,0-2.24.48,45.46,45.46,0,0,0-16.26,10.38,21.51,21.51,0,0,0,5.78-19.26c-.28-1.36-.86-2.87-2.16-3.32-1.63-.57-3.25.84-4.29,2.22a27,27,0,0,0-5.34,17.46,22.68,22.68,0,0,0-4.55-13.81c-1.1-1.46-2.67-2.89-4.49-2.7a4,4,0,0,0-3.21,3.14,9.68,9.68,0,0,0,.28,4.74C240.84,409,245.6,416.11,254,419.25Z"/><path class="cls-36" d="M321.47,430.06c-5,1.66-10.49.21-15.17-2.17s-8.85-5.65-13.57-7.94-11.26-3.66-16.16-1.73"/><path class="cls-38" d="M262.8,432c2.14,6.74,7.77,12.1,13.87,15.67a34.3,34.3,0,0,0,19.62,5"/><path class="cls-39" d="M259.25,389.54a23.86,23.86,0,0,0-8.69,19.37"/><path class="cls-39" d="M257.5,411.89c4.16-4.26,9-8,14.69-9.88a5.6,5.6,0,0,1,2.42-.39,2.23,2.23,0,0,1,1.88,1.38,3.18,3.18,0,0,1-.86,2.71,29.3,29.3,0,0,1-7.45,7"/><path class="cls-36" d="M232.72,445.91A78,78,0,0,1,266.57,472"/><path class="cls-36" d="M253.63,458.53l2.4,13"/><path class="cls-39" d="M239.34,394.13a21.38,21.38,0,0,0,2.58,13.73A40.55,40.55,0,0,0,251,418.72"/><path class="cls-36" d="M244.39,451.7A31,31,0,0,1,268,461.85"/><path class="cls-40" d="M252.24,422.91c1.33-.92,2.61-1.9,3.86-2.94a2.78,2.78,0,0,0,1-1.2c.31-1-.48-1.95-1.28-2.59a5.56,5.56,0,0,0-3.06-1.4,2.63,2.63,0,0,0-2.71,1.65,3.87,3.87,0,0,0,.11,2A9.69,9.69,0,0,0,252.24,422.91Z"/><path class="cls-38" d="M279.27,477.88a23.47,23.47,0,0,1-29.11-2.05"/><path class="cls-36" d="M218.58,376.4c.07,4.75-4.24,8.54-8.73,10.07s-9.39,1.55-14,2.74a26.76,26.76,0,0,0-17.64,14.86A24.46,24.46,0,0,0,180,426.9a22.54,22.54,0,0,0,20.42,10c5.31-.5,10.56-3.25,13.25-7.85S216,418,212.13,414.28c-3.58-3.42-9.46-3.8-13.81-1.43a16.07,16.07,0,0,0-7.78,12,24.32,24.32,0,0,0,2.89,14.32c4.06,7.8,12,14.06,20.8,13.94,8.6-.11,15.88-5.94,23-10.75,7.59-5.1,15.93-9.36,24.94-10.93s18.77-.24,26.26,5"/><path class="cls-17" d="M236.48,337.78a194.74,194.74,0,0,1,14.35-17.15,5.65,5.65,0,0,1,2.36-1.68,2,2,0,0,1,2.45,1c.32.94-.33,1.9-.95,2.66L240,340.86A22.31,22.31,0,0,1,236.48,337.78Z"/><path class="cls-17" d="M252.42,354.07a196.32,196.32,0,0,1,14.36-17.15,5.65,5.65,0,0,1,2.35-1.68,2,2,0,0,1,2.45,1c.32.93-.33,1.89-.95,2.66l-14.72,18.22A21.8,21.8,0,0,1,252.42,354.07Z"/><path class="cls-17" d="M266,360.19l-36-33.43c-4.54,4.66-8.91,9-13.34,13.57s-8.21,10.49-7.59,16.82c.37,3.84,2.34,7.35,4.68,10.42,3.48,4.56,7.8,8.39,12.1,12.19,3,2.64,6.28,5.41,10.26,5.71,3.66.28,7.12-1.62,10.1-3.76C254.1,376.09,260.32,368.5,266,360.19Z"/><path class="cls-27" d="M230.16,327.32a213.76,213.76,0,0,0-16,17c-2,2.48-4,5.16-4.7,8.27-.89,3.78.16,7.81,2.05,11.2a47.6,47.6,0,0,0,7.27,9.08"/><path class="cls-29" d="M260.14,362.49a56.66,56.66,0,0,1-19,18.71"/><path class="cls-29" d="M237.74,381.85a7.08,7.08,0,0,1-5.26-.58"/><path class="cls-41" d="M244.75,364.94c-1.66-2.73-3.22-5.26-4.63-7.87a30.55,30.55,0,0,1,8.41-3.53c-3.06-3.13-5.91-5.72-8.7-8.2-.77.71-10.46,4.82-11.6,5,0,1.17,3.12,5.77,5.3,9.35-4,2.32-8.07,4.64-12.39,7.49C223.94,367,239.52,365.32,244.75,364.94Z"/><path class="cls-42" d="M239.76,345.83l8.89,8.36a29.78,29.78,0,0,0-8.62,3.29l5,7.85a195.92,195.92,0,0,0-23.57,2.07"/><path class="cls-17" d="M225.52,375.93a52.47,52.47,0,0,0-4,5.6L216,376.21a.81.81,0,0,1,0-1.38c1.24-1.41,2.47-2.82,3.56-4.24C221.46,372.38,223.42,374.17,225.52,375.93Z"/><path class="cls-27" d="M220.35,370.4a41.9,41.9,0,0,0-4,3.39,1.86,1.86,0,0,0-.73,1.27,1.91,1.91,0,0,0,.69,1.18l5,5.05"/><path class="cls-41" d="M433,85l6.31-9.4c9.7.62,19.39-5.72,23.45-14.71s2.6-20.07-3.13-28.11a30.28,30.28,0,0,0-27.07-12.47A28.57,28.57,0,0,0,409,38.3,27.06,27.06,0,0,0,415.72,67c-.84,3.27-1.35,6.61-2.17,9.79C419.36,81.08,426.05,84.21,433,85Z"/><path class="cls-43" d="M416.35,61a20.18,20.18,0,0,1-1.28-21.88"/><path class="cls-43" d="M416.67,36.5a15.37,15.37,0,0,1,2.69-3"/><path class="cls-44" d="M464.46,44.81a24.93,24.93,0,0,1-5,21.47,24.16,24.16,0,0,1-19.85,8.66,56.32,56.32,0,0,1-5.35,8.23"/><path class="cls-5" d="M422.79,60.36s7.71-4.12,9.85-7.27a14.11,14.11,0,0,0,2-10.94,17.77,17.77,0,0,0-5.92-9.34,16.29,16.29,0,0,0-11.58,14.7,13.55,13.55,0,0,0,1.23,6.62A48,48,0,0,0,422.79,60.36Z"/><path class="cls-45" d="M425.45,71.06c-4.08-6-3.15-20,.57-30.37"/><path class="cls-45" d="M420.85,43.42c.83,2.4,1.76,4.77,2.8,7.09"/><path class="cls-45" d="M418.4,42.08A15.34,15.34,0,0,0,422.72,60"/><path class="cls-46" d="M428.83,32.73a17.86,17.86,0,0,1,6,10.91"/><path class="cls-5" d="M428.32,66.38a30.29,30.29,0,0,1,7.46-20.86A27.71,27.71,0,0,1,455.37,36a40.27,40.27,0,0,1,2.27,10.87,19.87,19.87,0,0,1-2.33,10.75,19.26,19.26,0,0,1-11.95,8.65A35.31,35.31,0,0,1,428.32,66.38Z"/><path class="cls-46" d="M428.07,65.26a29,29,0,0,1,13.48-24.09"/><path class="cls-45" d="M455.38,36.17a22,22,0,0,1-4.25,26.6"/><path class="cls-45" d="M450.3,42c-6.39,5.38-12.64,11-17.78,17.63s-9.16,14.22-10.6,22.45"/><path class="cls-30" d="M424,100.64l-3.9,6.88c-2.77-1.11-5.29-2-7.81-2.83.47-2.78.95-5.29,1.47-8.13A47.38,47.38,0,0,1,424,100.64Z"/><path class="cls-30" d="M435,81a8.93,8.93,0,0,1,3.15,2,3.06,3.06,0,0,1,.52,3.49,4.44,4.44,0,0,1-1.93,1.44,3.52,3.52,0,0,1,2.34,2.18,2.88,2.88,0,0,1-.79,3,3.56,3.56,0,0,1-3.46.33,2.48,2.48,0,1,1-2.05,4.45,3.81,3.81,0,0,1,1.21,3.4,3.87,3.87,0,0,1-2.2,2.85c-1.76.76-3.78.11-5.57-.57-7-2.66-17.88-6-17.88-6-1.77-.72-3.7-1.61-4.46-3.37A3.76,3.76,0,0,1,407.37,89a2.48,2.48,0,1,1,1.53-4.65,3.57,3.57,0,0,1-2.31-2.6A2.91,2.91,0,0,1,408.08,79a3.49,3.49,0,0,1,3.19,0,4.48,4.48,0,0,1-.43-2.37,3,3,0,0,1,2.76-2.2,8.76,8.76,0,0,1,3.69.65Z"/><path class="cls-47" d="M412.35,75.2a1.75,1.75,0,0,0-1.72,1.62,2.83,2.83,0,0,0,1.07,2.28A7.64,7.64,0,0,0,414,80.32,71.24,71.24,0,0,0,427.08,84"/><path class="cls-47" d="M438.47,89.52a1.86,1.86,0,0,1,.18,2,2.92,2.92,0,0,1-1.56,1.35c-1.64.64-3.47.13-5.15-.38L418.1,88.27"/><path class="cls-47" d="M407.62,84.85a1.56,1.56,0,0,0-2,1.17,2.53,2.53,0,0,0,.93,2.34,7.74,7.74,0,0,0,2.33,1.22l13.22,5"/><path class="cls-47" d="M433.17,98.7a3.68,3.68,0,0,1-1.91,5c-1.46.52-3.06,0-4.53-.42l-10.48-3.37"/><path class="cls-40" d="M538.52,73.15c.17-5.1-2.44-10.38-7-12.68-4.94-2.49-11-1.14-15.86,1.59a93.61,93.61,0,0,0-13.38,9.81c2.81,5.34,5.39,10.76,8.35,16.33,7.79-5,15.46-9.5,22.48-13.53C535,73.94,536.47,74.15,538.52,73.15Z"/><path class="cls-48" d="M549.78,81.49a16.47,16.47,0,0,0-3.83.36c-1.43-7.1-2.75-13.84-6.25-19.55-1.68-2.74-4.05-5.32-7.18-6a13.35,13.35,0,0,0-8.06,1.11,67.67,67.67,0,0,0-12.83,7.32c3.68-1.53,5.65-.63,7.65.93s2.56,3.65,3.52,6c2,4.81,3.33,9.84,4.9,15.07-1.23.42-2.46.83-3.62,1.32a147.72,147.72,0,0,0,15.71,16.91A54,54,0,0,0,549.78,81.49Z"/><path class="cls-49" d="M502.7,71.52c.8-.52,6.54-5.14,9.47-7a6,6,0,0,1,3.65-1c2,.16,3.59,1.86,4.73,3.55,2.38,3.53,6.84,14.35,7.46,18.56"/><path class="cls-49" d="M526.8,59.81a7.09,7.09,0,0,1,7,.88,13.76,13.76,0,0,1,4.37,5.92"/><path class="cls-49" d="M539.19,69.31a29.41,29.41,0,0,1,1,3.82"/><path class="cls-49" d="M545.92,86.19a30,30,0,0,1-3.74,10.92"/><path class="cls-50" d="M510,79.55a29.68,29.68,0,0,0,1.65,4.29c0,.08.09.17.17.19A.36.36,0,0,0,512,84l5.16-3.37"/><path class="cls-51" d="M528.88,85.82c-1.25.43-3.59,1.55-5.44,2.32a118.21,118.21,0,0,0,15.71,16.16"/><path class="cls-40" d="M476,102.73c-4.47,2.44-7.7,7.38-7.38,12.46.36,5.52,4.62,10.09,9.41,12.86a94.66,94.66,0,0,0,15.24,6.56c3.18-5.13,6.55-10.1,9.85-15.48-8.26-4.19-16-8.51-23.06-12.51C478.46,105.38,477.89,104,476,102.73Z"/><path class="cls-48" d="M477.46,88.8a16.88,16.88,0,0,0,2.26,3.12c-5.4,4.83-10.54,9.39-13.69,15.3-1.51,2.84-2.52,6.19-1.54,9.25a13.4,13.4,0,0,0,5,6.38,67.54,67.54,0,0,0,12.82,7.34c-3.19-2.39-3.41-4.55-3.08-7.07s1.85-4.05,3.39-6.07c3.15-4.13,6.79-7.86,10.5-11.87,1,.85,2,1.7,3,2.45a147.1,147.1,0,0,0,6.61-22.11A53.82,53.82,0,0,0,477.46,88.8Z"/><path class="cls-49" d="M492.75,134.44c-.85-.44-7.75-3-10.85-4.61a6,6,0,0,1-2.71-2.65c-.88-1.84-.21-4,.67-5.88,1.84-3.84,8.89-13.17,12.21-15.84"/><path class="cls-49" d="M470.44,119.6a7.07,7.07,0,0,1-2.82-6.51,13.73,13.73,0,0,1,2.88-6.77"/><path class="cls-49" d="M472.33,104.11a30.74,30.74,0,0,1,2.78-2.81"/><path class="cls-49" d="M483.47,89.75a29.85,29.85,0,0,1,11.3-2.32"/><path class="cls-50" d="M496,124.11a29.15,29.15,0,0,0,2.86-3.6.32.32,0,0,0,.08-.24c0-.08-.11-.13-.18-.17l-5.52-2.74"/><path class="cls-51" d="M491.79,104.62c1,.85,3.16,2.31,4.76,3.51a118.5,118.5,0,0,0,6-21.73"/><path class="cls-40" d="M530.77,141.63c4.34,2.66,10.22,3,14.47.2,4.62-3.06,6.46-9,6.48-14.57a94.49,94.49,0,0,0-1.9-16.48c-6-.2-12-.65-18.33-.84.48,9.25.6,18.14.63,26.24C531.83,138.15,530.91,139.34,530.77,141.63Z"/><path class="cls-48" d="M518,147.28a16.46,16.46,0,0,0,1.57-3.51c6.89,2.27,13.39,4.46,20.09,4.25,3.21-.1,6.62-.88,8.79-3.26a13.4,13.4,0,0,0,3-7.54,67.6,67.6,0,0,0,0-14.78c-.5,4-2.26,5.22-4.61,6.19s-4.43.41-6.94.08c-5.16-.68-10.21-2-15.53-3.2.25-1.28.5-2.56.65-3.8A147.06,147.06,0,0,0,502.52,127,54,54,0,0,0,518,147.28Z"/><path class="cls-49" d="M549.92,111.31c.05,1,1.23,8.23,1.41,11.7a6,6,0,0,1-1,3.66c-1.15,1.69-3.39,2.19-5.43,2.35-4.24.32-15.84-1.16-19.81-2.71"/><path class="cls-49" d="M548.15,138a7,7,0,0,1-4.25,5.68,13.73,13.73,0,0,1-7.3.87"/><path class="cls-49" d="M533.77,144.11a31.63,31.63,0,0,1-3.82-1"/><path class="cls-49" d="M515.77,141.59a30,30,0,0,1-7.63-8.65"/><path class="cls-50" d="M539.35,113.63a28.94,28.94,0,0,0-4.54-.69.23.23,0,0,0-.3.3l.36,6.15"/><path class="cls-51" d="M524.54,127c.23-1.3.43-3.89.67-5.87a117.88,117.88,0,0,0-21.81,5.64"/><path class="cls-40" d="M121.61,398.14c-3.4-3.79-8.94-5.81-13.81-4.32-5.3,1.61-8.77,6.81-10.36,12.11a94.54,94.54,0,0,0-2.9,16.33c5.73,1.92,11.33,4.06,17.33,6,2.18-9,4.6-17.56,6.89-25.32C119.61,401.17,120.83,400.29,121.61,398.14Z"/><path class="cls-48" d="M135.51,396.39A17,17,0,0,0,133,399.3c-6-4.15-11.56-8.1-18-9.81-3.11-.82-6.61-1-9.36.61a13.45,13.45,0,0,0-5,6.37,67.68,67.68,0,0,0-4.21,14.17C98,407,100,406.27,102.52,406s4.37.87,6.69,1.9c4.74,2.13,9.21,4.81,14,7.5-.6,1.16-1.21,2.31-1.7,3.46a147.26,147.26,0,0,0,23,1.37A53.73,53.73,0,0,0,135.51,396.39Z"/><path class="cls-49" d="M94.6,421.73c.22-.93,1.17-8.24,2-11.62a6.09,6.09,0,0,1,2-3.24c1.59-1.28,3.88-1.13,5.88-.69,4.16.9,14.85,5.64,18.21,8.25"/><path class="cls-49" d="M103.93,396.61a7.07,7.07,0,0,1,5.69-4.23,13.82,13.82,0,0,1,7.25,1.25"/><path class="cls-49" d="M119.44,394.91a29.76,29.76,0,0,1,3.37,2.06"/><path class="cls-49" d="M136,402.45a30.2,30.2,0,0,1,4.85,10.48"/><path class="cls-50" d="M105.39,422.52a28.71,28.71,0,0,0,4.16,2,.32.32,0,0,0,.25,0c.08,0,.1-.13.12-.22l1.41-6"/><path class="cls-51" d="M123.4,414c-.6,1.17-1.52,3.6-2.32,5.43a117.72,117.72,0,0,0,22.52.82"/><path class="cls-40" d="M96.86,462.76c-1.54,4.85-.46,10.65,3.29,14.09,4.07,3.75,10.31,4.11,15.69,2.8a95.54,95.54,0,0,0,15.54-5.8c-1.25-5.91-2.25-11.82-3.58-18-8.86,2.68-17.47,4.93-25.32,6.9C100.49,463,99.11,462.34,96.86,462.76Z"/><path class="cls-48" d="M88.3,451.67a16.85,16.85,0,0,0,3.79.68c-.56,7.23-1.12,14.08.69,20.52.87,3.09,2.45,6.22,5.27,7.75a13.37,13.37,0,0,0,8,1.13,68.11,68.11,0,0,0,14.35-3.55c-4,.47-5.61-.94-7.11-3s-1.47-4.2-1.75-6.72c-.58-5.17-.53-10.38-.62-15.84,1.3-.07,2.6-.13,3.84-.29a146.54,146.54,0,0,0-10.51-20.54A53.8,53.8,0,0,0,88.3,451.67Z"/><path class="cls-49" d="M130.9,474.07c-.92.28-7.7,3.17-11,4.18a6,6,0,0,1-3.78-.05c-1.91-.71-3-2.77-3.58-4.71-1.33-4-2.68-15.66-2.13-19.88"/><path class="cls-49" d="M104.51,478.77A7,7,0,0,1,98,476a13.81,13.81,0,0,1-2.59-6.88"/><path class="cls-49" d="M95.18,466.27a30.61,30.61,0,0,1,.07-3.95"/><path class="cls-49" d="M93.3,448.19a30.09,30.09,0,0,1,6.57-9.49"/><path class="cls-50" d="M126.11,464.37a30.72,30.72,0,0,0-.43-4.58.27.27,0,0,0-.11-.22c-.07-.05-.17,0-.25,0l-5.88,1.83"/><path class="cls-51" d="M109.6,453.19c1.31-.08,3.88-.52,5.86-.75a117.85,117.85,0,0,0-10.72-19.83"/><path class="cls-40" d="M163.34,453c5-1.07,9.47-4.89,10.6-9.86,1.22-5.4-1.57-11-5.39-15a94.75,94.75,0,0,0-12.76-10.6c-4.5,4-9.13,7.84-13.82,12.07,6.73,6.35,13,12.69,18.58,18.52C161.71,449.75,161.86,451.25,163.34,453Z"/><path class="cls-48" d="M158,465.94a16.51,16.51,0,0,0-1.29-3.63c6.55-3.11,12.77-6,17.46-10.8,2.25-2.3,4.18-5.23,4.1-8.44a13.41,13.41,0,0,0-3-7.54A67.74,67.74,0,0,0,165,424.85c2.38,3.2,2,5.34.95,7.66s-2.91,3.36-5,4.86c-4.2,3.07-8.75,5.62-13.43,8.42-.71-1.1-1.41-2.19-2.16-3.19a146.47,146.47,0,0,0-12.6,19.33A53.94,53.94,0,0,0,158,465.94Z"/><path class="cls-49" d="M156.23,417.84c.69.66,6.57,5.11,9.1,7.49a6,6,0,0,1,1.85,3.3c.33,2-.94,3.93-2.31,5.45-2.84,3.17-12.25,10.12-16.19,11.74"/><path class="cls-49" d="M173.43,438.39a7.07,7.07,0,0,1,.86,7,13.83,13.83,0,0,1-4.68,5.67"/><path class="cls-49" d="M167.23,452.71a30.59,30.59,0,0,1-3.46,1.9"/><path class="cls-49" d="M152.48,463.33a30,30,0,0,1-11.5-1"/><path class="cls-50" d="M150.19,426.82a31.47,31.47,0,0,0-3.76,2.65c-.06,0-.14.12-.14.21s.07.15.13.21l4.52,4.19"/><path class="cls-51" d="M148.71,446.71c-.73-1.1-2.38-3.11-3.57-4.71a117.39,117.39,0,0,0-11.87,19.16"/><path class="cls-10" d="M348,251.16c1.38-3.53,4.29-10.78,7.93-11.8a12.45,12.45,0,0,1,10.75,2,10.47,10.47,0,0,1-.79-9.74,8.74,8.74,0,0,1,8.13-5.08,7.52,7.52,0,0,1,6.93,6.3,18.38,18.38,0,0,1,1.44-8.94c1.35-2.73,4-5,7-5.16a8.82,8.82,0,0,1,7.23,3.72c1.71,2.25,2.55,5,3.51,8.59a6.78,6.78,0,0,1,12.67,3.76,13.4,13.4,0,0,1,13.84,2.23,14,14,0,0,1,3.84,14.09C428.93,250.77,349.37,251.32,348,251.16Z"/><path class="cls-11" d="M373,229.4A7,7,0,0,0,367.6,238"/><path class="cls-11" d="M375.53,230a2.84,2.84,0,0,1,2.29.84"/><path class="cls-11" d="M358.52,241.57a8.25,8.25,0,0,0-5.46,3.68,8.51,8.51,0,0,0-.95,2.91"/><path class="cls-11" d="M377.58,246.64a4.18,4.18,0,0,1-.49-4.31,4,4,0,0,1,3.73-2.15,3.72,3.72,0,0,1,3.25,2.78,13.74,13.74,0,0,1,.81-3.1,4.72,4.72,0,0,1,2-2.38,4.11,4.11,0,0,1,4.85,1.09,5.45,5.45,0,0,1,.88,5.06"/><path class="cls-11" d="M413.07,237a10.19,10.19,0,0,1,13.14,3.46"/><path class="cls-10" d="M347.87,224.9c-.91-3-3-8.16-5.93-9.25a10.43,10.43,0,0,0-9.09,1,8.71,8.71,0,0,0,1.28-8.06,7.29,7.29,0,0,0-6.44-4.76,6.29,6.29,0,0,0-6.19,4.8,15.39,15.39,0,0,0-.62-7.54A6.71,6.71,0,0,0,309.07,199c-1.56,1.76-2.44,4-3.47,6.93a5.68,5.68,0,0,0-10.81,2.32,11.2,11.2,0,0,0-11.68,1c-3.28,2.49-4.95,11.16-4.11,15.71C280.33,224.68,346.7,225,347.87,224.9Z"/><path class="cls-11" d="M292.69,211.19a7.57,7.57,0,0,0-9,4.75"/><path class="cls-11" d="M283,218.08l-.24,2.21"/><path class="cls-11" d="M311,201.1a4.84,4.84,0,0,1,7.28,4.88"/><path class="cls-11" d="M330.36,209.19a7.42,7.42,0,0,1,.46,5.09,21.93,21.93,0,0,1-1.93,4.84"/><path class="cls-11" d="M307,221a8.44,8.44,0,0,1,.4-4.12,3.51,3.51,0,0,1,3.23-2.23,3.47,3.47,0,0,1,2.34,1.36,8.5,8.5,0,0,1,1.27,2.47,3.77,3.77,0,1,1,7.52-.23"/><path class="cls-11" d="M340.25,218.74a5.35,5.35,0,0,1,3,3.41"/><path class="cls-10" d="M438.56,345.66c-.92-3-3-8.16-5.93-9.25a10.44,10.44,0,0,0-9.1,1,8.71,8.71,0,0,0,1.28-8.06,7.29,7.29,0,0,0-6.44-4.76,6.3,6.3,0,0,0-6.19,4.8,15.39,15.39,0,0,0-.62-7.54A7.41,7.41,0,0,0,406,317.1a7.33,7.33,0,0,0-6.27,2.63c-1.57,1.76-2.45,4-3.48,6.93A5.68,5.68,0,0,0,385.47,329a11.2,11.2,0,0,0-11.68,1c-3.28,2.49-5,11.16-4.1,15.71C371,345.44,437.38,345.71,438.56,345.66Z"/><path class="cls-11" d="M383.37,332a7.57,7.57,0,0,0-9,4.75"/><path class="cls-11" d="M373.63,338.84l-.24,2.21"/><path class="cls-11" d="M401.68,321.86a4.84,4.84,0,0,1,7.28,4.88"/><path class="cls-11" d="M421,330a7.42,7.42,0,0,1,.46,5.09,21.93,21.93,0,0,1-1.93,4.84"/><path class="cls-11" d="M397.64,341.71a8.32,8.32,0,0,1,.41-4.12,3.11,3.11,0,0,1,5.56-.87,8.5,8.5,0,0,1,1.27,2.47,3.77,3.77,0,1,1,7.52-.23"/><path class="cls-11" d="M430.93,339.5a5.32,5.32,0,0,1,3,3.41"/></g></svg>